<svg id="Layer_1" data-name="Layer 1" xmlns="http://www.w3.org/2000/svg" xmlns:xlink="http://www.w3.org/1999/xlink" viewBox="0 0 610.22 504.62"><defs><style>.cls-1,.cls-2{opacity:0.5;}.cls-1{fill:url(#linear-gradient);}.cls-2{fill:url(#linear-gradient-2);}.cls-3{opacity:0.85;}.cls-4{fill:url(#linear-gradient-3);}.cls-5{fill:#6030dc;}.cls-6{fill:url(#linear-gradient-4);}.cls-7{fill:#4838da;}.cls-8{opacity:0.84;}.cls-9{fill:url(#linear-gradient-5);}.cls-10{opacity:0.87;}.cls-11{fill:url(#linear-gradient-6);}.cls-12{fill:#1f5aa9;}.cls-13{opacity:0.86;}.cls-14{fill:url(#linear-gradient-7);}.cls-15{fill:url(#linear-gradient-8);}.cls-16{fill:url(#linear-gradient-9);}.cls-17,.cls-18,.cls-84{fill:#fff;}.cls-18{opacity:0.13;}.cls-19{fill:url(#linear-gradient-10);}.cls-20{fill:url(#linear-gradient-11);}.cls-21{fill:url(#linear-gradient-12);}.cls-22{fill:url(#linear-gradient-13);}.cls-23{fill:url(#linear-gradient-14);}.cls-24{fill:url(#linear-gradient-15);}.cls-25{fill:url(#linear-gradient-16);}.cls-26{fill:url(#linear-gradient-17);}.cls-27{fill:url(#_11);}.cls-28{fill:url(#linear-gradient-18);}.cls-29{opacity:0.83;}.cls-30{fill:url(#linear-gradient-19);}.cls-31{fill:url(#linear-gradient-20);}.cls-32{fill:url(#_11-2);}.cls-33{fill:url(#linear-gradient-21);}.cls-34{fill:url(#linear-gradient-22);}.cls-35{fill:url(#linear-gradient-23);}.cls-36{fill:url(#linear-gradient-24);}.cls-37{fill:url(#linear-gradient-25);}.cls-38{fill:url(#linear-gradient-26);}.cls-39{fill:url(#linear-gradient-27);}.cls-40{fill:url(#linear-gradient-28);}.cls-41{fill:url(#_11-3);}.cls-42{fill:url(#linear-gradient-29);}.cls-43{fill:url(#linear-gradient-30);}.cls-44{fill:url(#linear-gradient-31);}.cls-45{fill:url(#linear-gradient-32);}.cls-46{fill:url(#linear-gradient-33);}.cls-47{fill:url(#linear-gradient-34);}.cls-48{fill:url(#_11-4);}.cls-49{fill:url(#linear-gradient-35);}.cls-50{fill:url(#linear-gradient-36);}.cls-51{fill:url(#linear-gradient-37);}.cls-52{fill:url(#linear-gradient-38);}.cls-53{fill:url(#linear-gradient-39);}.cls-54{fill:url(#linear-gradient-40);}.cls-55{fill:url(#linear-gradient-41);}.cls-56{fill:url(#linear-gradient-42);}.cls-57{fill:url(#linear-gradient-43);}.cls-58{fill:url(#linear-gradient-44);}.cls-59{fill:url(#linear-gradient-45);}.cls-60{fill:url(#linear-gradient-46);}.cls-61{fill:url(#linear-gradient-47);}.cls-62{fill:url(#linear-gradient-48);}.cls-63{fill:url(#linear-gradient-49);}.cls-64{fill:url(#linear-gradient-50);}.cls-65{fill:url(#linear-gradient-51);}.cls-66{fill:url(#linear-gradient-52);}.cls-67{fill:url(#linear-gradient-53);}.cls-68{fill:url(#linear-gradient-54);}.cls-69{fill:url(#linear-gradient-55);}.cls-70{fill:url(#linear-gradient-56);}.cls-71{fill:url(#linear-gradient-57);}.cls-72{fill:url(#linear-gradient-58);}.cls-73{fill:url(#linear-gradient-59);}.cls-74{fill:url(#linear-gradient-60);}.cls-75{fill:url(#linear-gradient-61);}.cls-76{fill:url(#linear-gradient-62);}.cls-77{fill:url(#linear-gradient-63);}.cls-78{fill:url(#linear-gradient-64);}.cls-79{fill:url(#linear-gradient-65);}.cls-80{fill:url(#linear-gradient-66);}.cls-81{fill:url(#linear-gradient-67);}.cls-82{fill:url(#linear-gradient-68);}.cls-83{fill:url(#linear-gradient-69);}.cls-84,.cls-88{opacity:0.64;}.cls-85{fill:url(#linear-gradient-70);}.cls-86{fill:url(#linear-gradient-71);}.cls-87{fill:url(#linear-gradient-72);}.cls-89{fill:url(#linear-gradient-73);}.cls-90{fill:url(#linear-gradient-74);}.cls-91{fill:url(#linear-gradient-75);}.cls-92{fill:url(#linear-gradient-76);}.cls-93{fill:url(#linear-gradient-77);}.cls-94{fill:url(#linear-gradient-78);}.cls-95{fill:url(#linear-gradient-79);}.cls-96{fill:url(#linear-gradient-80);}.cls-97{fill:url(#linear-gradient-81);}.cls-98{fill:url(#linear-gradient-82);}.cls-99{fill:url(#linear-gradient-83);}.cls-100{fill:url(#linear-gradient-84);}.cls-101{fill:url(#linear-gradient-85);}.cls-102{fill:url(#linear-gradient-86);}.cls-103{fill:url(#linear-gradient-87);}.cls-104{fill:#f8a570;}.cls-105{fill:url(#linear-gradient-88);}.cls-106{fill:url(#linear-gradient-89);}.cls-107{fill:url(#linear-gradient-90);}.cls-108{fill:url(#linear-gradient-91);}.cls-109{fill:url(#linear-gradient-92);}.cls-110{fill:url(#linear-gradient-93);}.cls-111{fill:url(#linear-gradient-94);}.cls-112{fill:url(#linear-gradient-95);}.cls-113{fill:url(#linear-gradient-96);}.cls-114{fill:url(#linear-gradient-97);}.cls-115{fill:url(#linear-gradient-98);}.cls-116{fill:url(#linear-gradient-99);}.cls-117{fill:url(#linear-gradient-100);}.cls-118{fill:url(#linear-gradient-101);}.cls-119{fill:url(#linear-gradient-102);}.cls-120{fill:url(#linear-gradient-103);}.cls-121{fill:url(#linear-gradient-104);}</style><linearGradient id="linear-gradient" x1="7.6" y1="287.16" x2="603.48" y2="287.16" gradientUnits="userSpaceOnUse"><stop offset="0" stop-color="#b37cff"/><stop offset="1" stop-color="#f895e7"/></linearGradient><linearGradient id="linear-gradient-2" x1="37.61" y1="287.16" x2="573.48" y2="287.16" xlink:href="#linear-gradient"/><linearGradient id="linear-gradient-3" x1="-2097.32" y1="-273.46" x2="-1815.12" y2="-561.26" gradientTransform="translate(2491.26 202.59) rotate(-11.43)" gradientUnits="userSpaceOnUse"><stop offset="0" stop-color="#a737d5"/><stop offset="1" stop-color="#ef497a"/></linearGradient><linearGradient id="linear-gradient-4" x1="624.77" y1="177.96" x2="425.5" y2="371.31" gradientUnits="userSpaceOnUse"><stop offset="0" stop-color="#8d55d1"/><stop offset="1" stop-color="#1c2873"/></linearGradient><linearGradient id="linear-gradient-5" x1="-71.51" y1="-57.14" x2="25.05" y2="177.68" gradientTransform="translate(166.88 165.24) rotate(-6.52)" xlink:href="#linear-gradient-4"/><linearGradient id="linear-gradient-6" x1="-158.71" y1="127.22" x2="-44.61" y2="127.22" gradientTransform="translate(166.88 165.24) rotate(-6.52)" xlink:href="#linear-gradient-3"/><linearGradient id="linear-gradient-7" x1="-181.66" y1="178.71" x2="-59.14" y2="178.71" gradientTransform="translate(166.88 165.24) rotate(-6.52)" xlink:href="#linear-gradient"/><linearGradient id="linear-gradient-8" x1="261.8" y1="436.86" x2="355.54" y2="155.65" gradientUnits="userSpaceOnUse"><stop offset="0" stop-color="#2b3582"/><stop offset="1" stop-color="#150e42"/></linearGradient><linearGradient id="linear-gradient-9" x1="470.83" y1="137.15" x2="-46.21" y2="727.71" gradientUnits="userSpaceOnUse"><stop offset="0" stop-color="#fdf53f"/><stop offset="0.66" stop-color="#e57a58"/><stop offset="1" stop-color="#d93c65"/></linearGradient><linearGradient id="linear-gradient-10" x1="478.52" y1="420.39" x2="64.38" y2="521.12" xlink:href="#linear-gradient-8"/><linearGradient id="linear-gradient-11" x1="173.52" y1="304.3" x2="233.65" y2="317.03" gradientTransform="matrix(1, 0, 0, 1, 0, 0)" xlink:href="#linear-gradient-3"/><linearGradient id="linear-gradient-12" x1="219.95" y1="273.76" x2="212.88" y2="337.42" gradientTransform="matrix(1, 0, 0, 1, 0, 0)" xlink:href="#linear-gradient-3"/><linearGradient id="linear-gradient-13" x1="388.56" y1="215.35" x2="384.33" y2="290.34" gradientTransform="matrix(1, 0, 0, 1, 0, 0)" xlink:href="#linear-gradient-3"/><linearGradient id="linear-gradient-14" x1="394.44" y1="303.37" x2="590.38" y2="359.96" gradientUnits="userSpaceOnUse"><stop offset="0" stop-color="#53d8ff"/><stop offset="1" stop-color="#3840f7"/></linearGradient><linearGradient id="linear-gradient-15" x1="423.6" y1="257.78" x2="348.61" y2="435.22" xlink:href="#linear-gradient-14"/><linearGradient id="linear-gradient-16" x1="211.38" y1="181.75" x2="219.3" y2="305.33" xlink:href="#linear-gradient-14"/><linearGradient id="linear-gradient-17" x1="268.65" y1="245.75" x2="375.47" y2="433.21" gradientTransform="matrix(1, 0, 0, 1, 0, 0)" xlink:href="#linear-gradient-3"/><linearGradient id="_11" x1="283.85" y1="309.09" x2="273.29" y2="423.16" gradientUnits="userSpaceOnUse"><stop offset="0" stop-color="#cb236d"/><stop offset="0.19" stop-color="#b2236d"/><stop offset="1" stop-color="#4c246d"/></linearGradient><linearGradient id="linear-gradient-18" x1="-2610.89" y1="245.21" x2="-2704.2" y2="441.27" gradientTransform="translate(3070.24)" xlink:href="#linear-gradient-3"/><linearGradient id="linear-gradient-19" x1="541.54" y1="203.43" x2="443.5" y2="360.51" gradientTransform="matrix(1, 0, 0, 1, 0, 0)" xlink:href="#linear-gradient-3"/><linearGradient id="linear-gradient-20" x1="-14975.35" y1="373.37" x2="-14953.28" y2="431.86" gradientTransform="translate(15474.39)" gradientUnits="userSpaceOnUse"><stop offset="0" stop-color="#f9b776"/><stop offset="1" stop-color="#f47960"/></linearGradient><linearGradient id="_11-2" x1="10095.81" y1="328.31" x2="10033.54" y2="440.55" gradientTransform="matrix(-1, 0, 0, 1, 10587.5, 0)" xlink:href="#_11"/><linearGradient id="linear-gradient-21" x1="20007.45" y1="489.54" x2="20029.36" y2="489.54" gradientTransform="matrix(-1, 0, 0, 1, 20550.06, 0)" xlink:href="#linear-gradient-8"/><linearGradient id="linear-gradient-22" x1="10055.85" y1="445.13" x2="10055.85" y2="490.49" gradientTransform="matrix(-1, 0, 0, 1, 10587.5, 0)" xlink:href="#linear-gradient-14"/><linearGradient id="linear-gradient-23" x1="19968.95" y1="489.6" x2="19979.21" y2="489.6" gradientTransform="matrix(-1, 0, 0, 1, 20550.06, 0)" xlink:href="#linear-gradient-8"/><linearGradient id="linear-gradient-24" x1="10007.76" y1="455.82" x2="10012.37" y2="504.24" gradientTransform="matrix(-1, 0, 0, 1, 10587.5, 0)" xlink:href="#linear-gradient-14"/><linearGradient id="linear-gradient-25" x1="19973.29" y1="482.52" x2="19979.95" y2="482.52" gradientTransform="matrix(-1, 0, 0, 1, 20550.06, 0)" xlink:href="#linear-gradient-20"/><linearGradient id="linear-gradient-26" x1="20008.56" y1="482.09" x2="20014.11" y2="482.09" gradientTransform="matrix(-1, 0, 0, 1, 20550.06, 0)" xlink:href="#linear-gradient-20"/><linearGradient id="linear-gradient-27" x1="-14923.26" y1="465.76" x2="-14921.61" y2="363.68" gradientTransform="translate(15474.39)" gradientUnits="userSpaceOnUse"><stop offset="0" stop-color="#7c27dd"/><stop offset="1" stop-color="#2b41d9"/></linearGradient><linearGradient id="linear-gradient-28" x1="20022.36" y1="396.79" x2="19999.65" y2="426.15" gradientTransform="matrix(-1, 0, 0, 1, 20550.06, 0)" xlink:href="#linear-gradient-8"/><linearGradient id="_11-3" x1="10070.95" y1="355.02" x2="9971.79" y2="434.2" gradientTransform="matrix(-1, 0, 0, 1, 10587.5, 0)" xlink:href="#_11"/><linearGradient id="linear-gradient-29" x1="20025.13" y1="344.12" x2="20027.86" y2="327.27" gradientTransform="matrix(-1, 0, 0, 1, 20550.06, 0)" xlink:href="#linear-gradient-20"/><linearGradient id="linear-gradient-30" x1="-14998.6" y1="465.81" x2="-14910.59" y2="355.46" gradientTransform="translate(15474.39)" xlink:href="#linear-gradient-14"/><linearGradient id="linear-gradient-31" x1="-3584.8" y1="-17306.88" x2="-3542.59" y2="-17205.08" gradientTransform="translate(18065.43 1141.09) rotate(-75.81)" xlink:href="#linear-gradient-14"/><linearGradient id="linear-gradient-32" x1="-3551.58" y1="-17200.9" x2="-3521.23" y2="-17100.48" gradientTransform="translate(18065.43 1141.09) rotate(-75.81)" xlink:href="#linear-gradient-14"/><linearGradient id="linear-gradient-33" x1="-3574.86" y1="-14070.26" x2="-3544.51" y2="-13969.83" gradientTransform="matrix(0.25, -0.97, 1.2, 0.3, 18317.9, 1204.97)" xlink:href="#linear-gradient-14"/><linearGradient id="linear-gradient-34" x1="-14912.16" y1="375.84" x2="-14887.34" y2="411.7" xlink:href="#linear-gradient-20"/><linearGradient id="_11-4" x1="10056.72" y1="337.2" x2="9957.55" y2="416.38" gradientTransform="matrix(-1, 0, 0, 1, 10587.5, 0)" xlink:href="#_11"/><linearGradient id="linear-gradient-35" x1="-14990.87" y1="379.23" x2="-14968.8" y2="437.71" xlink:href="#linear-gradient-20"/><linearGradient id="linear-gradient-36" x1="-14921.67" y1="382.33" x2="-14896.56" y2="418.61" xlink:href="#linear-gradient-20"/><linearGradient id="linear-gradient-37" x1="2033.99" y1="3213.67" x2="2013.61" y2="3240.63" gradientTransform="matrix(-0.78, -0.62, -0.62, 0.78, 4113.84, -929.08)" xlink:href="#linear-gradient-20"/><linearGradient id="linear-gradient-38" x1="2018.43" y1="3220.14" x2="2042.77" y2="3220.14" gradientTransform="matrix(-0.78, -0.62, -0.62, 0.78, 4113.84, -929.08)" xlink:href="#linear-gradient-8"/><linearGradient id="linear-gradient-39" x1="2004.15" y1="3235.02" x2="2020.49" y2="3218.25" gradientTransform="matrix(-0.78, -0.62, -0.62, 0.78, 4113.84, -929.08)" xlink:href="#linear-gradient-20"/><linearGradient id="linear-gradient-40" x1="24.45" y1="199.65" x2="30.07" y2="199.65" gradientTransform="translate(285.16)" xlink:href="#linear-gradient-8"/><linearGradient id="linear-gradient-41" x1="31.57" y1="199.49" x2="37.35" y2="199.49" gradientTransform="translate(285.16)" xlink:href="#linear-gradient-8"/><linearGradient id="linear-gradient-42" x1="38.81" y1="199.65" x2="44.44" y2="199.65" gradientTransform="translate(285.16)" xlink:href="#linear-gradient-8"/><linearGradient id="linear-gradient-43" x1="585.91" y1="-776.51" x2="556.38" y2="-715.64" gradientTransform="translate(-242.96 647.62) rotate(9.25)" xlink:href="#linear-gradient-8"/><linearGradient id="linear-gradient-44" x1="416.63" y1="68.61" x2="426.03" y2="352.95" gradientUnits="userSpaceOnUse"><stop offset="0" stop-color="#fdf53f"/><stop offset="1" stop-color="#d93c65"/></linearGradient><linearGradient id="linear-gradient-45" x1="362.24" y1="95.11" x2="424.51" y2="245.55" gradientTransform="matrix(1, 0, 0, 1, 0, 0)" xlink:href="#linear-gradient-20"/><linearGradient id="linear-gradient-46" x1="-8597.5" y1="94.79" x2="-8535.22" y2="245.23" gradientTransform="matrix(-1, 0, 0, 1, -8124.85, 0)" xlink:href="#linear-gradient-20"/><linearGradient id="linear-gradient-47" x1="417.55" y1="114.76" x2="414.33" y2="245.08" xlink:href="#linear-gradient-8"/><linearGradient id="linear-gradient-48" x1="509.42" y1="172.2" x2="543.45" y2="172.2" gradientTransform="translate(-53.16 17.32) rotate(0.44)" gradientUnits="userSpaceOnUse"><stop offset="0" stop-color="#2c759e"/><stop offset="1" stop-color="#051042"/></linearGradient><linearGradient id="linear-gradient-49" x1="501.32" y1="158.25" x2="471.44" y2="157.9" gradientTransform="translate(-6.96 32.05) rotate(0.44)" gradientUnits="userSpaceOnUse"><stop offset="0" stop-color="#53eac9"/><stop offset="1" stop-color="#45aed8"/></linearGradient><linearGradient id="linear-gradient-50" x1="477.4" y1="132.09" x2="441.47" y2="229.39" gradientTransform="matrix(1, 0, 0, 1, 0, 0)" xlink:href="#linear-gradient-20"/><linearGradient id="linear-gradient-51" x1="501.39" y1="156.98" x2="471.51" y2="156.62" xlink:href="#linear-gradient-49"/><linearGradient id="linear-gradient-52" x1="501.27" y1="156.77" x2="471.52" y2="156.42" xlink:href="#linear-gradient-49"/><linearGradient id="linear-gradient-53" x1="545.81" y1="-60.58" x2="515.73" y2="-60.95" gradientTransform="matrix(1, 0.06, -0.06, 1, -55.08, 223.69)" xlink:href="#linear-gradient-49"/><linearGradient id="linear-gradient-54" x1="545.53" y1="-60.79" x2="515.93" y2="-61.14" gradientTransform="matrix(1, 0.06, -0.06, 1, -55.08, 223.69)" xlink:href="#linear-gradient-49"/><linearGradient id="linear-gradient-55" x1="-5484.76" y1="137.4" x2="-5450.71" y2="137.4" gradientTransform="matrix(-1, -0.02, -0.02, 1, -5108.58, -53.79)" xlink:href="#linear-gradient-48"/><linearGradient id="linear-gradient-56" x1="-9152.16" y1="100.74" x2="-9181.95" y2="100.38" gradientTransform="matrix(-1, -0.02, -0.02, 1, -8814.19, -90.85)" xlink:href="#linear-gradient-49"/><linearGradient id="linear-gradient-57" x1="405.42" y1="102.76" x2="369.48" y2="200.12" gradientTransform="matrix(1, 0, 0, 1, 0, 0)" xlink:href="#linear-gradient-20"/><linearGradient id="linear-gradient-58" x1="-9152.17" y1="99.51" x2="-9181.95" y2="99.15" gradientTransform="matrix(-1, -0.02, -0.02, 1, -8814.19, -90.85)" xlink:href="#linear-gradient-49"/><linearGradient id="linear-gradient-59" x1="-9152.11" y1="99.31" x2="-9181.95" y2="98.95" gradientTransform="matrix(-1, -0.02, -0.02, 1, -8814.19, -90.85)" xlink:href="#linear-gradient-49"/><linearGradient id="linear-gradient-60" x1="-9098.75" y1="351.83" x2="-9128.72" y2="351.47" gradientTransform="matrix(-1, 0.03, 0.03, 1, -8771.19, 103.11)" xlink:href="#linear-gradient-49"/><linearGradient id="linear-gradient-61" x1="-9098.92" y1="351.63" x2="-9128.6" y2="351.27" gradientTransform="matrix(-1, 0.03, 0.03, 1, -8771.19, 103.11)" xlink:href="#linear-gradient-49"/><linearGradient id="linear-gradient-62" x1="492.62" y1="130.21" x2="399.23" y2="200.36" gradientTransform="matrix(1, 0, 0, 1, 0, 0)" xlink:href="#linear-gradient-27"/><linearGradient id="linear-gradient-63" x1="408.17" y1="193.13" x2="383.7" y2="130.71" gradientTransform="matrix(1, 0, 0, 1, 0, 0)" xlink:href="#linear-gradient-27"/><linearGradient id="linear-gradient-64" x1="416.91" y1="107.54" x2="416.08" y2="35.44" gradientTransform="matrix(1, 0, 0, 1, 0, 0)" xlink:href="#linear-gradient-20"/><linearGradient id="linear-gradient-65" x1="555.63" y1="-678.27" x2="558.21" y2="-741.01" gradientTransform="translate(-242.96 647.62) rotate(9.25)" xlink:href="#linear-gradient-20"/><linearGradient id="linear-gradient-66" x1="586.12" y1="-785.07" x2="552.89" y2="-716.58" gradientTransform="translate(-242.96 647.62) rotate(9.25)" xlink:href="#linear-gradient-8"/><linearGradient id="linear-gradient-67" x1="87.52" y1="590.88" x2="91.57" y2="492.57" gradientTransform="translate(240.86 -498.31) rotate(-7.64)" xlink:href="#linear-gradient-20"/><linearGradient id="linear-gradient-68" x1="417.19" y1="104.52" x2="415.1" y2="204.68" xlink:href="#linear-gradient-14"/><linearGradient id="linear-gradient-69" x1="205.12" y1="244.24" x2="-67.9" y2="424.53" xlink:href="#linear-gradient-14"/><linearGradient id="linear-gradient-70" x1="176.37" y1="242.73" x2="121.32" y2="294.98" gradientTransform="matrix(1, 0, 0, 1, 0, 0)" xlink:href="#linear-gradient-3"/><linearGradient id="linear-gradient-71" x1="211.9" y1="245.9" x2="163.03" y2="292.29" gradientTransform="matrix(1, 0, 0, 1, 0, 0)" xlink:href="#linear-gradient-3"/><linearGradient id="linear-gradient-72" x1="251.49" y1="246" x2="202.62" y2="292.38" gradientTransform="matrix(1, 0, 0, 1, 0, 0)" xlink:href="#linear-gradient-3"/><linearGradient id="linear-gradient-73" x1="-7741.72" y1="484.01" x2="-7716.71" y2="484.01" gradientTransform="matrix(-1, 0, 0, 1, -7429.66, 0)" xlink:href="#linear-gradient-14"/><linearGradient id="linear-gradient-74" x1="-7741.72" y1="479.11" x2="-7717.41" y2="479.11" gradientTransform="matrix(-1, 0, 0, 1, -7429.66, 0)" xlink:href="#linear-gradient-8"/><linearGradient id="linear-gradient-75" x1="-7739.41" y1="472.26" x2="-7732.37" y2="472.26" gradientTransform="matrix(-1, 0, 0, 1, -7429.66, 0)" xlink:href="#linear-gradient-20"/><linearGradient id="linear-gradient-76" x1="-7786.37" y1="490.21" x2="-7776.79" y2="490.21" gradientTransform="matrix(-1, 0, 0, 1, -7429.66, 0)" xlink:href="#linear-gradient-14"/><linearGradient id="linear-gradient-77" x1="-7786.3" y1="480.67" x2="-7772.23" y2="480.67" gradientTransform="matrix(-1, 0, 0, 1, -7429.66, 0)" xlink:href="#linear-gradient-8"/><linearGradient id="linear-gradient-78" x1="-7778.99" y1="468.59" x2="-7770.57" y2="468.59" gradientTransform="matrix(-1, 0, 0, 1, -7429.66, 0)" xlink:href="#linear-gradient-20"/><linearGradient id="linear-gradient-79" x1="-7710.87" y1="377.71" x2="-7782.77" y2="495.49" gradientTransform="matrix(-1, 0, 0, 1, -7429.66, 0)" xlink:href="#linear-gradient-14"/><linearGradient id="linear-gradient-80" x1="-7733.45" y1="399.4" x2="-7726.9" y2="386.56" gradientTransform="matrix(-1, 0, 0, 1, -7429.66, 0)" xlink:href="#linear-gradient-14"/><linearGradient id="linear-gradient-81" x1="-7663.16" y1="291.2" x2="-7696.51" y2="334.59" gradientTransform="matrix(-1, 0, 0, 1, -7429.66, 0)" xlink:href="#linear-gradient-20"/><linearGradient id="linear-gradient-82" x1="-7702.72" y1="301.37" x2="-7814.08" y2="433.34" gradientTransform="matrix(-1, 0, 0, 1, -7429.66, 0)" xlink:href="#linear-gradient-4"/><linearGradient id="linear-gradient-83" x1="317.69" y1="87.14" x2="292.2" y2="261.8" xlink:href="#linear-gradient-4"/><linearGradient id="linear-gradient-84" x1="-7737.5" y1="319.25" x2="-7733.85" y2="300.09" gradientTransform="matrix(-1, 0, 0, 1, -7429.66, 0)" xlink:href="#linear-gradient-20"/><linearGradient id="linear-gradient-85" x1="-7727.63" y1="284.1" x2="-7748.45" y2="300.03" gradientTransform="matrix(-1, 0, 0, 1, -7429.66, 0)" xlink:href="#linear-gradient-20"/><linearGradient id="linear-gradient-86" x1="-7742.28" y1="271.49" x2="-7722.89" y2="296.45" gradientTransform="matrix(-1, 0, 0, 1, -7429.66, 0)" xlink:href="#linear-gradient-8"/><linearGradient id="linear-gradient-87" x1="-7730.21" y1="280.73" x2="-7751.03" y2="296.66" gradientTransform="matrix(-1, 0, 0, 1, -7429.66, 0)" xlink:href="#linear-gradient-20"/><linearGradient id="linear-gradient-88" x1="-7721.96" y1="340.03" x2="-7733.9" y2="357.95" gradientTransform="matrix(-1, 0, 0, 1, -7429.66, 0)" xlink:href="#linear-gradient-20"/><linearGradient id="linear-gradient-89" x1="316.12" y1="342.93" x2="304.42" y2="360.48" gradientTransform="matrix(1, 0, 0, 1, 0, 0)" xlink:href="#linear-gradient-20"/><linearGradient id="linear-gradient-90" x1="1272.88" y1="577.45" x2="1239.96" y2="586.47" gradientTransform="translate(-987.24 -155.36) rotate(-2.83)" xlink:href="#linear-gradient-8"/><linearGradient id="linear-gradient-91" x1="1317.14" y1="337.51" x2="1293.92" y2="362.05" gradientTransform="translate(-1049.15)" xlink:href="#linear-gradient-8"/><linearGradient id="linear-gradient-92" x1="1303.06" y1="343.64" x2="1292.57" y2="359.45" gradientTransform="translate(-1049.15)" xlink:href="#linear-gradient-14"/><linearGradient id="linear-gradient-93" x1="2963.34" y1="281.73" x2="3073.07" y2="338.98" gradientTransform="matrix(-1, 0, 0, 1, 3088.89, 0)" gradientUnits="userSpaceOnUse"><stop offset="0" stop-color="#cb236d"/><stop offset="1" stop-color="#4c246d"/></linearGradient><linearGradient id="linear-gradient-94" x1="146.37" y1="169.06" x2="104.84" y2="298.59" gradientTransform="matrix(1, 0, 0, 1, 0, 0)" xlink:href="#linear-gradient-3"/><linearGradient id="linear-gradient-95" x1="-6469.65" y1="941.23" x2="-6467.21" y2="923.87" gradientTransform="matrix(-0.96, 0.26, 0.26, 0.96, -6387.29, 1111.58)" xlink:href="#linear-gradient-20"/><linearGradient id="linear-gradient-96" x1="-6480.86" y1="904.03" x2="-6458" y2="930.32" gradientTransform="matrix(-0.96, 0.26, 0.26, 0.96, -6387.29, 1111.58)" xlink:href="#linear-gradient-20"/><linearGradient id="linear-gradient-97" x1="2973.57" y1="262.13" x2="3083.29" y2="319.37" xlink:href="#linear-gradient-93"/><linearGradient id="linear-gradient-98" x1="-6475.15" y1="899.07" x2="-6452.29" y2="925.35" gradientTransform="matrix(-0.96, 0.26, 0.26, 0.96, -6387.29, 1111.58)" xlink:href="#linear-gradient-20"/><linearGradient id="linear-gradient-99" x1="2233.97" y1="544.2" x2="2288.52" y2="447.92" gradientTransform="translate(-2172.25 -48.39) rotate(0.38)" xlink:href="#linear-gradient-20"/><linearGradient id="linear-gradient-100" x1="2245.87" y1="510.16" x2="2261.81" y2="510.16" gradientTransform="translate(-2172.25 -48.39) rotate(0.38)" xlink:href="#linear-gradient-8"/><linearGradient id="linear-gradient-101" x1="2295.79" y1="472.97" x2="2214.21" y2="499.06" gradientTransform="translate(-2172.25 -48.39) rotate(0.38)" xlink:href="#linear-gradient-20"/><linearGradient id="linear-gradient-102" x1="2260.65" y1="513.04" x2="2279.65" y2="513.04" gradientTransform="translate(-2172.25 -48.39) rotate(0.38)" xlink:href="#linear-gradient-8"/><linearGradient id="linear-gradient-103" x1="2286.6" y1="385.21" x2="2241.07" y2="486.71" gradientTransform="translate(-2172.25 -48.39) rotate(0.38)" xlink:href="#linear-gradient-8"/><linearGradient id="linear-gradient-104" x1="2256.2" y1="242.57" x2="2346.69" y2="139.07" gradientTransform="translate(-2203.57 365.42) rotate(-6.24)" xlink:href="#linear-gradient-20"/></defs><title>process-revision</title><path class="cls-1" d="M300.38,461.44S98.05,463.62,41.7,414.6s-35.15-97.91,8-111.75S100.22,274.6,77,255.18s-52.71-59.29-3.75-99.36,104.84,17.49,148.6,9.84,26.43-33.38,84-15.6,44.86-34,91.13-38.67,41.52,53.83,89.11,31.74,86.52-19,107,16,11.57,82.33-33.31,110.48-40.07,26.24-23.3,53.91,31.82,118.66-44.55,131.66S300.38,461.44,300.38,461.44Z"/><path class="cls-2" d="M300.9,440.35S119,442.26,68.27,399.17,36.66,313.12,75.47,301s45.42-24.83,24.54-41.9-47.4-52.11-3.36-87.33,94.27,15.37,133.63,8.65S254.05,151,305.8,166.65s40.35-29.86,81.95-34S425.1,180,467.89,160.56s77.81-16.73,96.21,14.1,10.4,72.36-30,97.11-36,23.07-20.95,47.39,28.61,104.29-40.06,115.71S300.9,440.35,300.9,440.35Z"/><g class="cls-3"><path class="cls-4" d="M597.49,105.75c-15.53,5.54-51.09,5.29-96.62,3.59-55.78-2.08-67.61,41.64-56.47,72,7.86,21.38,18.32,40,29.17,70.46l6.19-3.07c-4.37-19-5.93-30.71,1-44.3,7.93-15.57,11.43-1.87,61.12-16.31,38.6-11.22,55.2-57.53,60.69-77.65A3.91,3.91,0,0,0,597.49,105.75Z"/><path class="cls-5" d="M473.71,238.08c-1.15-1.75-2.16-3.49-3.17-5.27s-1.93-3.59-2.83-5.42a109.08,109.08,0,0,1-4.78-11.25,77.42,77.42,0,0,1-4.77-24,51,51,0,0,1,1.22-12.31,41.73,41.73,0,0,1,4.46-11.58,46.39,46.39,0,0,1,7.65-9.74c1.48-1.4,2.93-2.83,4.48-4.15.78-.67,1.51-1.37,2.32-2l2.38-1.92a90.65,90.65,0,0,1,10.15-6.85,75.78,75.78,0,0,1,11.12-5.16,79.15,79.15,0,0,1,11.77-3.31c4-.81,8-1.36,12-1.8,8-.85,16.09-1.36,24-2.57A104.84,104.84,0,0,0,573,124.56h0a.48.48,0,0,1,.36.88A106,106,0,0,1,550,132.09C542,133.46,533.93,134,526,135c-4,.48-8,1.06-11.87,1.9a78.37,78.37,0,0,0-11.46,3.35,72.7,72.7,0,0,0-10.76,5.14,88,88,0,0,0-9.82,6.79l-2.31,1.9c-.78.62-1.49,1.32-2.25,2-1.5,1.3-2.91,2.72-4.35,4.11a44.12,44.12,0,0,0-7.2,9.27,39.27,39.27,0,0,0-4.17,10.93,49,49,0,0,0-1.11,11.72,75.16,75.16,0,0,0,4.59,23.26,114.23,114.23,0,0,0,4.6,11q1.29,2.7,2.73,5.33c1,1.74,2,3.49,3,5.12v0a1.13,1.13,0,0,1-1.9,1.24Z"/></g><g class="cls-3"><path class="cls-6" d="M473.21,397.09a.4.4,0,0,1-.73-.29,114.79,114.79,0,0,0,1.79-45.69c-4.44-28.09-32.08-94.18,20.34-111.94,46.17-15.64,73.87-20.84,86-31.35a2.84,2.84,0,0,1,4.69,2c1.1,17,1.19,62-27.23,76.08-35.27,17.44-72.38,6-82.72,20.36C465.35,320.16,489.42,367.3,473.21,397.09Z"/><path class="cls-7" d="M468.62,317.26a91,91,0,0,1-1.05-9.09c-.21-3-.32-6.08-.29-9.13a94,94,0,0,1,1.83-18.22,71.63,71.63,0,0,1,2.43-8.91,59,59,0,0,1,3.81-8.48,46.54,46.54,0,0,1,5.42-7.63c.54-.57,1.1-1.12,1.65-1.68.28-.28.54-.58.84-.83l.9-.77.9-.76A8,8,0,0,1,486,251l1.93-1.37.48-.34.51-.29,1-.59a20.67,20.67,0,0,1,2.07-1.12l2.14-1a9.14,9.14,0,0,1,1.08-.45l1.09-.4a52.75,52.75,0,0,1,9-2.39c6.11-1.11,12.29-.95,18.29-.83,3,.06,6,.11,8.93-.08a44.75,44.75,0,0,0,8.71-1.35,38.09,38.09,0,0,0,8.22-3.24,53.87,53.87,0,0,0,7.47-4.89.38.38,0,0,1,.49.59,42.74,42.74,0,0,1-15.66,9.33,45.77,45.77,0,0,1-9.05,1.8c-3.06.3-6.11.35-9.13.39s-6,0-9,.18a65.58,65.58,0,0,0-8.77,1,49.07,49.07,0,0,0-8.43,2.37l-1,.4a8.24,8.24,0,0,0-1,.42l-2,.91a19.26,19.26,0,0,0-1.89,1l-.94.54-.46.27-.44.32-1.76,1.25a7.8,7.8,0,0,0-.84.68l-.82.7-.82.7c-.27.24-.51.51-.76.77l-1.51,1.55a44.08,44.08,0,0,0-5,7.06,54.47,54.47,0,0,0-3.61,8,68.64,68.64,0,0,0-2.43,8.49c-.18.71-.29,1.45-.44,2.17s-.28,1.45-.39,2.19-.24,1.46-.34,2.19l-.28,2.21c-.34,3-.54,5.91-.66,8.89a119.14,119.14,0,0,0,.68,17.83v0a1,1,0,0,1-2,.29Z"/></g><g class="cls-8"><path class="cls-9" d="M152.94,284.08s-3.69-48.75-27.39-59.53-67.1-14.67-75.66-84.35c-5-40.79-7.81-58.56-9.27-66.29a4.63,4.63,0,0,1,5-5.47c21.61,1.88,92.17,11.45,111.31,57.05C179.58,179.55,152.94,284.08,152.94,284.08Z"/><path class="cls-7" d="M63.78,86.4c14,10.65,26.49,23.13,38.1,36.32,2.84,3.36,5.72,6.69,8.4,10.17l2,2.59,1,1.29,1,1.33,3.93,5.3,1,1.33.94,1.36,1.87,2.72,1.87,2.72.93,1.36.89,1.39c2.35,3.73,4.8,7.37,7,11.25.57.95,1.07,1.93,1.6,2.91s1.06,1.94,1.56,2.93l1.47,3,.74,1.49.68,1.51,1.38,3,1.28,3c.43,1,.85,2.05,1.23,3.08l1.18,3.1a182.5,182.5,0,0,1,7.23,25.48,209.93,209.93,0,0,1,3.76,26.16c.34,4.39.54,8.8.59,13.2s0,8.79-.38,13.24a1.18,1.18,0,0,1-2.36-.15v0c.1-2.12.11-4.31.09-6.48s-.06-4.34-.15-6.51q-.27-6.51-.94-13a212,212,0,0,0-4.11-25.69,197,197,0,0,0-7.3-24.91,163.64,163.64,0,0,0-10.86-23.51c-2.11-3.76-4.5-7.41-6.78-11.1l-.87-1.38-.91-1.35L119,150.87l-1.83-2.7-.91-1.35-1-1.32c-5-7.13-10.34-14-15.84-20.74S88.1,111.58,82,105.35A253.08,253.08,0,0,0,63,87.47l0,0a.67.67,0,0,1,.83-1Z"/></g><g class="cls-10"><path class="cls-11" d="M150.06,413.22c3.27,2-28.61-46.17-33.66-117.86-2.38-33.79,1.19-75.54-16.39-93.29-14.63-14.76-69.12-11-87-9.32a2.65,2.65,0,0,0-1.63,4.51c7.81,7.82,24.4,26.1,27.64,43.36,4.26,22.73,24.13,38.69,42.69,44.16s28.75,10.09,35.32,41.11S140.76,407.61,150.06,413.22Z"/><path class="cls-12" d="M36.92,204.38A86,86,0,0,1,69,215.56a67,67,0,0,1,13.58,10.5,58.21,58.21,0,0,1,10.21,13.87l1,1.92c.32.64.58,1.32.88,2s.59,1.33.85,2l.77,2c1,2.63,2.07,5.27,3.06,7.92q3,7.94,5.77,16c3.68,10.71,7,21.52,9.73,32.53a.49.49,0,0,1-.94.26h0c-1.63-5.39-3.37-10.77-5.2-16.1s-3.69-10.66-5.62-16l-2.93-7.94-3-7.9c-1-2.64-2-5.26-3.08-7.88l-.78-2c-.26-.65-.55-1.27-.82-1.91s-.53-1.28-.84-1.9L90.68,241A57.83,57.83,0,0,0,81,227.63a62.76,62.76,0,0,0-6.17-5.58l-.81-.66-.84-.62c-.56-.41-1.11-.84-1.68-1.24-1.15-.79-2.29-1.59-3.48-2.32a86.25,86.25,0,0,0-15-7.43,89.94,89.94,0,0,0-16.15-4.62h0a.39.39,0,0,1-.31-.45A.39.39,0,0,1,36.92,204.38Z"/></g><g class="cls-13"><path class="cls-14" d="M135,408.59c1.87.74-12.18-18.13-15.11-35.83S109.45,325.13,92,308.71s-34.43-16.16-53.73,2.78c-16.08,15.79-26.3,24-32.61,26a2.45,2.45,0,0,0-1.23,3.74c5,7.16,18.73,23.34,38.25,19.86,24.9-4.44,53.44-24.21,64.25-11.67s10.5,20.29,11.52,26.7S122.56,403.76,135,408.59Z"/><path class="cls-7" d="M48,332.55a48.79,48.79,0,0,1,3.95-4.18c1.38-1.32,2.81-2.59,4.33-3.78a47.22,47.22,0,0,1,9.83-6.09,33.15,33.15,0,0,1,5.55-1.94,25.41,25.41,0,0,1,5.91-.7c.5,0,1,0,1.5.07s1,.1,1.49.18l2.87.54,2.83.74,2.77,1a33.19,33.19,0,0,1,10,6.11,41.39,41.39,0,0,1,7.43,8.92l.78,1.22c.26.4.47.84.71,1.25.46.85.94,1.68,1.38,2.54l1.23,2.59c.43.86.75,1.76,1.12,2.64a100.6,100.6,0,0,1,3.65,10.83.42.42,0,0,1-.29.51.4.4,0,0,1-.49-.25h0c-1.31-3.55-2.58-7.1-4.2-10.49-.76-1.72-1.66-3.37-2.51-5-.45-.82-.94-1.61-1.41-2.42-.25-.39-.46-.81-.73-1.19l-.79-1.15a42,42,0,0,0-7.29-8.31,32.42,32.42,0,0,0-9.39-5.59l-2.6-.89-2.67-.69-2.72-.5c-.45-.07-.88-.1-1.33-.16s-.89,0-1.33-.07a22,22,0,0,0-5.35.6,30.41,30.41,0,0,0-5.21,1.68A52.26,52.26,0,0,0,57.26,326c-1.53,1.09-3,2.21-4.48,3.4s-2.86,2.45-4.2,3.75h0a.43.43,0,0,1-.62-.58Z"/></g><path class="cls-15" d="M503.83,447.06a7.36,7.36,0,0,1-7.34,7.33H99.61a7.36,7.36,0,0,1-7.34-7.33L89,219c0-4,4.75-11.9,13.46-11.31l387.88-10a18.51,18.51,0,0,1,19,18.92Z"/><path class="cls-16" d="M496.59,440a7,7,0,0,1-6.95,6.94H109.18a7,7,0,0,1-6.94-6.94L99.12,233C99.49,220.52,110.41,216,117,216.3l371.75-10a13,13,0,0,1,13.34,13.3Z"/><path class="cls-17" d="M106.35,341.19a.55.55,0,0,1-.55-.54l-.24-16.79a.53.53,0,0,1,.54-.55.55.55,0,0,1,.55.54l.25,16.79a.55.55,0,0,1-.54.55Z"/><path class="cls-17" d="M105.75,300a.54.54,0,0,1-.55-.53l-1-64.32c0-4.29,1.35-7.71,3.93-10.19,4.71-4.51,12.08-4.29,12.39-4.28l118.72-3.18a.53.53,0,0,1,.56.53.55.55,0,0,1-.53.56l-118.75,3.19c-.33,0-7.25-.23-11.63,4-2.37,2.26-3.57,5.43-3.59,9.4l.94,64.3a.53.53,0,0,1-.54.55Z"/><path class="cls-18" d="M119,428.54c.4-17.11.25-168.65-.73-181.74s19.4-15.54,50.69-17,295.34-7.3,302.14-7.85c15.28-1.24,18.44,21.6,16.92,71.19-1.15,37.25-3.06,98.62-3.93,126.84a15.57,15.57,0,0,1-15.54,15.1c-63.54.17-307.07.87-323.28,1.35C126.61,437,118.84,435.33,119,428.54Z"/><rect class="cls-19" x="68.12" y="453.29" width="467.91" height="20.04" rx="10.02"/><path class="cls-20" d="M167.71,255.35l21.91,24c-13.71,10.34-22.31,30.63.64,54.76l-30.85,15C137.79,311.18,140.85,281.26,167.71,255.35Z"/><path class="cls-21" d="M154.81,340.34l21.26.34,3.81-20.93c11.68,24,39.26,34,70.83,23.77l15.94,29.63C221.09,393.92,175,383.26,154.81,340.34Z"/><path class="cls-22" d="M333.05,308.67c17.23-34.06,62.7-46.62,95.4-28l33.15-11c-38.71-51.64-109.06-41.85-152.76,9.76Z"/><path class="cls-23" d="M409.51,344.71l14.07,32.85c51.31-21.37,66.84-93.74,20.51-125.62l.34,21.28-21.81,4.54C454.73,293,440.42,336.16,409.51,344.71Z"/><path class="cls-24" d="M317.92,354c48.61,35,91.15,39.52,125.07,11.74l-23.87-8.49L425.76,336c-29.76,20.66-57.43,13.94-84-7.21Z"/><path class="cls-25" d="M167.71,255.35v23l21.91.95c14.21-9.22,34.78-8.47,60.67-.19l15-33.36C226,228.93,193.73,233,167.71,255.35Z"/><path class="cls-26" d="M250.29,279.14,238,253.51l27.36-7.73a147.22,147.22,0,0,1,43.5,33.71c12.58,27.7,29.85,51.35,51.44,61.44l-28.34.3L336.3,366a225.9,225.9,0,0,1-31.24-22.25l-21.28-37.84C276.36,294.6,266,285.42,250.29,279.14Z"/><path class="cls-27" d="M308.84,279.49c-8.32,8.9-13.77,22-21.59,31.34-12.48,14.87-28,34.09-56.11,36.58l22.92,11.86-13.64,22.38c45.78-9.1,77.81-39,92.63-73V275.93Z"/><g class="cls-8"><path class="cls-17" d="M327.33,377.39a.73.73,0,0,1-.41.18.7.7,0,0,1-.75-.64c-.08-.93-.15-1.87-.19-2.8a.7.7,0,1,1,1.39-.07c0,.91.11,1.84.19,2.75A.68.68,0,0,1,327.33,377.39Z"/><path class="cls-17" d="M444,312.3a.71.71,0,0,1-.88,0c-1.51-1.13-3.09-2.21-4.68-3.21a.7.7,0,1,1,.74-1.18c1.63,1,3.23,2.12,4.77,3.27a.69.69,0,0,1,.15,1A.52.52,0,0,1,444,312.3Zm-12.9-7.68a.7.7,0,0,1-.76.12c-1.7-.79-3.47-1.53-5.24-2.18a.7.7,0,0,1,.49-1.31c1.8.67,3.6,1.42,5.34,2.22a.71.71,0,0,1,.34.93A.92.92,0,0,1,431.1,304.62Zm-14.2-4.88a.67.67,0,0,1-.63.16c-1.83-.43-3.71-.79-5.57-1.07a.7.7,0,0,1-.58-.8.69.69,0,0,1,.79-.58c1.9.29,3.81.66,5.68,1.1a.68.68,0,0,1,.52.83A.65.65,0,0,1,416.9,299.74Zm-89.61,65.57a.71.71,0,0,1-.53.17.69.69,0,0,1-.64-.74c.16-1.92.39-3.85.69-5.75a.7.7,0,0,1,.8-.58.69.69,0,0,1,.57.8c-.29,1.87-.52,3.76-.67,5.64A.72.72,0,0,1,327.29,365.31ZM402,297.83a.66.66,0,0,1-.48.18c-1.88,0-3.79,0-5.67.09a.7.7,0,0,1-.08-1.39c1.92-.11,3.86-.14,5.78-.09a.69.69,0,0,1,.68.71A.66.66,0,0,1,402,297.83Zm-72,52.71a.68.68,0,0,1-.66.15.69.69,0,0,1-.47-.86c.54-1.85,1.15-3.7,1.83-5.49a.69.69,0,0,1,.9-.4.68.68,0,0,1,.4.89c-.66,1.76-1.27,3.57-1.79,5.39A.64.64,0,0,1,330,350.54ZM387.05,299a.78.78,0,0,1-.34.17c-1.85.34-3.71.76-5.53,1.24a.69.69,0,1,1-.36-1.34c1.86-.5,3.76-.93,5.64-1.27a.69.69,0,0,1,.81.56A.72.72,0,0,1,387.05,299Zm-51.4,37.61a.68.68,0,0,1-.79.09.69.69,0,0,1-.29-.94c.9-1.69,1.88-3.38,2.91-5a.7.7,0,0,1,1.18.74c-1,1.59-2,3.24-2.86,4.91A.9.9,0,0,1,335.65,336.63Zm37-33.39a.57.57,0,0,1-.21.13c-1.74.71-3.48,1.5-5.16,2.35a.7.7,0,0,1-.63-1.25c1.72-.86,3.49-1.66,5.27-2.39a.7.7,0,0,1,.73,1.16Zm-13.25,7.07-.08.06c-1.56,1.05-3.1,2.17-4.58,3.35a.7.7,0,1,1-.86-1.1c1.5-1.19,3.08-2.34,4.67-3.41a.7.7,0,0,1,.85,1.1ZM344,324.17a.69.69,0,0,1-.91,0,.71.71,0,0,1-.09-1c1.23-1.47,2.54-2.92,3.88-4.29a.7.7,0,0,1,1,1c-1.32,1.35-2.6,2.77-3.81,4.21Z"/><path class="cls-17" d="M453.08,320.31a.7.7,0,0,1-1,0c-.63-.66-1.28-1.32-1.94-2a.69.69,0,0,1,0-1,.71.71,0,0,1,1,0c.67.65,1.33,1.32,2,2a.7.7,0,0,1,0,1Z"/><path class="cls-17" d="M473.46,373.67a.76.76,0,0,1-.49.18.71.71,0,0,1-.67-.73c0-.92.05-1.85.05-2.76a.7.7,0,0,1,1.39,0c0,.93,0,1.88-.05,2.81A.67.67,0,0,1,473.46,373.67Z"/><path class="cls-17" d="M449.38,425.36l-.47.42a.69.69,0,0,1-1-.06.7.7,0,0,1,.05-1h0l.46-.42c1.22-1.1,2.42-2.26,3.57-3.45a.71.71,0,0,1,1,0,.69.69,0,0,1,0,1C451.85,423.05,450.63,424.23,449.38,425.36Zm-7.68,6.05-.07.06c-1.56,1.06-3.18,2.08-4.81,3a.7.7,0,0,1-.7-1.21c1.61-.92,3.2-1.93,4.72-3a.7.7,0,0,1,.86,1.09Zm17.22-16.5a.7.7,0,0,1-1-.94c1.11-1.49,2.18-3,3.17-4.6a.69.69,0,1,1,1.17.75c-1,1.59-2.09,3.17-3.23,4.69A.41.41,0,0,1,458.92,414.91ZM428.74,438.5a.62.62,0,0,1-.19.12c-1.75.74-3.54,1.42-5.32,2a.7.7,0,1,1-.45-1.32c1.76-.59,3.51-1.25,5.22-2a.7.7,0,0,1,.74,1.16Zm37.79-36.26a.7.7,0,0,1-1.1-.82c.78-1.67,1.52-3.4,2.18-5.14a.7.7,0,0,1,1.3.5c-.67,1.77-1.42,3.53-2.22,5.24A.89.89,0,0,1,466.53,402.24Zm-51.9,40.61a.68.68,0,0,1-.33.16c-1.85.38-3.74.68-5.62.91a.7.7,0,0,1-.17-1.39c1.84-.22,3.7-.52,5.51-.88a.69.69,0,0,1,.82.54A.72.72,0,0,1,414.63,442.85Zm56.8-54.55a.68.68,0,0,1-.63.16.7.7,0,0,1-.51-.84c.44-1.8.81-3.64,1.11-5.47a.7.7,0,0,1,.8-.58.69.69,0,0,1,.57.8c-.3,1.87-.68,3.74-1.13,5.58A.66.66,0,0,1,471.43,388.3Zm-71.5,56a.72.72,0,0,1-.47.18c-1.89,0-3.8-.1-5.69-.25a.7.7,0,0,1-.63-.76.69.69,0,0,1,.75-.63c1.85.15,3.73.23,5.57.24a.71.71,0,0,1,.7.71A.7.7,0,0,1,399.93,444.27Zm-14.69-1.58a.7.7,0,0,1-.61.17c-1.45-.31-2.92-.67-4.36-1.06l-1.16-.33a.69.69,0,0,1-.47-.86.7.7,0,0,1,.86-.48l1.14.32c1.41.39,2.85.74,4.28,1a.71.71,0,0,1,.54.83A.7.7,0,0,1,385.24,442.69Zm-14.08-4.47a.69.69,0,0,1-.74.12c-1.74-.75-3.47-1.58-5.14-2.46a.7.7,0,1,1,.65-1.23c1.64.87,3.34,1.68,5,2.41a.7.7,0,0,1,.36.92A.81.81,0,0,1,371.16,438.22ZM358.26,431a.69.69,0,0,1-.87.06c-1.54-1.09-3.07-2.25-4.53-3.45a.7.7,0,1,1,.89-1.07c1.43,1.18,2.93,2.31,4.44,3.38a.68.68,0,0,1,.17,1A.52.52,0,0,1,358.26,431Z"/><path class="cls-17" d="M347.07,421.33a.7.7,0,0,1-1,0c-.63-.67-1.27-1.37-1.89-2.08a.72.72,0,0,1,.07-1,.69.69,0,0,1,1,.06c.61.7,1.23,1.38,1.86,2a.69.69,0,0,1,0,1Z"/><path class="cls-28" d="M353.17,401.94a.89.89,0,0,0,.91.46l10.57-1.64a46.74,46.74,0,0,0,11.61,9.64l.35,10.68a.88.88,0,0,0,.62.81l12.26,3.79a.87.87,0,0,0,1-.32l6.31-8.63a46.6,46.6,0,0,0,15-1.41l7.81,7.31a.88.88,0,0,0,1,.14l11.34-6a.88.88,0,0,0,.46-.91l-1.64-10.57a46.61,46.61,0,0,0,9.64-11.62l10.68-.34a.87.87,0,0,0,.81-.62l3.79-12.26a.88.88,0,0,0-.32-1l-8.63-6.31a46.29,46.29,0,0,0-1.41-15l7.31-7.81a.86.86,0,0,0,.14-1l-6-11.34a.87.87,0,0,0-.91-.46l-10.57,1.64a46.74,46.74,0,0,0-11.61-9.64l-.35-10.68a.87.87,0,0,0-.62-.81l-12.26-3.79a.89.89,0,0,0-1,.32l-6.31,8.63a46.29,46.29,0,0,0-15,1.41l-7.81-7.32a.88.88,0,0,0-1-.13l-11.34,6a.87.87,0,0,0-.46.91l1.64,10.57a46.56,46.56,0,0,0-9.64,11.61l-10.68.35a.87.87,0,0,0-.81.62l-3.79,12.25a.88.88,0,0,0,.32,1l8.63,6.31a46.32,46.32,0,0,0,1.41,15l-7.32,7.8a.89.89,0,0,0-.13,1Z"/><path class="cls-17" d="M408.31,379.2h0a12.43,12.43,0,1,1,4.1-8.59A12.38,12.38,0,0,1,408.3,379.21Zm-15.26-16.91a10.34,10.34,0,0,0,13.85,15.37h0a10.34,10.34,0,0,0-13.85-15.37Z"/><path class="cls-17" d="M421.68,393.54a32.07,32.07,0,0,1-37.17,4.17l1-1.82a30.34,30.34,0,0,0,5.85,2.51,30,30,0,0,0,32.76-10.64l0-.05,0-.06a29.37,29.37,0,0,0,4.56-9,29.69,29.69,0,0,0-2.12-22.79,30.45,30.45,0,0,0-4.27-6.12,29.92,29.92,0,0,0-51.24,27.18l-2,.5a32,32,0,1,1,52.56,16.12Z"/></g><g class="cls-29"><path class="cls-17" d="M519.31,300.93a.39.39,0,0,1-.2-.33c0-.55-.07-1.11-.11-1.65a.41.41,0,0,1,.37-.45.42.42,0,0,1,.46.38c0,.55.09,1.11.11,1.68a.42.42,0,0,1-.39.44A.4.4,0,0,1,519.31,300.93Z"/><path class="cls-17" d="M458.55,336.89c-.83-.51-1.65-1.05-2.44-1.62a.42.42,0,0,1,.48-.68c.91.65,1.86,1.27,2.83,1.85h0a.41.41,0,0,1,.14.57.42.42,0,0,1-.57.15Zm5.38,2.75a.41.41,0,0,1-.17-.51.42.42,0,0,1,.55-.23c1,.43,2.09.83,3.16,1.17a.42.42,0,1,1-.26.8c-1.08-.36-2.17-.76-3.22-1.2Zm8.57,2.52a.42.42,0,0,1,.29-.77c1.1.2,2.23.35,3.34.45a.42.42,0,0,1,.38.45.42.42,0,0,1-.46.38c-1.13-.1-2.28-.26-3.41-.46A.34.34,0,0,1,472.5,342.16Zm8.91.56a.39.39,0,0,1-.2-.34.4.4,0,0,1,.39-.43c1.12-.06,2.25-.16,3.36-.32a.42.42,0,1,1,.11.83c-1.13.16-2.29.26-3.43.32A.36.36,0,0,1,481.41,342.72Zm8.8-1.44A.47.47,0,0,1,490,341a.42.42,0,0,1,.29-.51c1.07-.31,2.15-.66,3.2-1a.41.41,0,0,1,.54.24.42.42,0,0,1-.25.54c-1.07.4-2.17.76-3.27,1.07A.47.47,0,0,1,490.21,341.28Zm8.27-3.37a.46.46,0,0,1-.15-.16.41.41,0,0,1,.17-.56c1-.54,2-1.12,2.89-1.74a.43.43,0,0,1,.58.12.42.42,0,0,1-.12.58c-1,.63-2,1.22-3,1.77A.42.42,0,0,1,498.48,337.91Zm7.32-5.11-.09-.08a.41.41,0,0,1,0-.59c.85-.74,1.67-1.52,2.44-2.33a.42.42,0,0,1,.59,0,.41.41,0,0,1,0,.59c-.79.83-1.63,1.63-2.48,2.39A.44.44,0,0,1,505.8,332.8Zm6-6.61,0,0a.41.41,0,0,1-.09-.58c.58-.8,1.13-1.64,1.65-2.48l.2-.34a.41.41,0,0,1,.57-.14h0a.43.43,0,0,1,.14.57l-.21.35c-.53.86-1.1,1.71-1.69,2.53A.41.41,0,0,1,511.81,326.19Zm4.37-7.78a.41.41,0,0,1-.16-.52c.43-1,.83-2.1,1.17-3.16a.42.42,0,1,1,.8.26c-.36,1.09-.76,2.17-1.21,3.22a.41.41,0,0,1-.54.22Zm2.54-8.57a.41.41,0,0,1-.19-.43c.2-1.1.35-2.22.45-3.34a.42.42,0,0,1,.84.08c-.11,1.14-.27,2.28-.47,3.41a.42.42,0,0,1-.48.34A.39.39,0,0,1,518.72,309.84Z"/><path class="cls-17" d="M451.86,331.74l-.08-.05c-.4-.39-.81-.79-1.19-1.19a.42.42,0,0,1,0-.59.41.41,0,0,1,.59,0c.38.39.77.78,1.17,1.16a.42.42,0,0,1,0,.59A.41.41,0,0,1,451.86,331.74Z"/><path class="cls-17" d="M439.47,303a.43.43,0,0,1-.2-.36c0-.55,0-1.12,0-1.68a.42.42,0,0,1,.44-.4.41.41,0,0,1,.4.43c0,.55,0,1.11,0,1.65a.42.42,0,0,1-.42.42A.37.37,0,0,1,439.47,303Z"/><path class="cls-17" d="M440.07,295.92a.41.41,0,0,1-.19-.43c.2-1.1.44-2.21.73-3.3a.41.41,0,0,1,.51-.3.42.42,0,0,1,.29.51c-.28,1.07-.52,2.16-.71,3.24a.41.41,0,0,1-.48.34Zm2.46-8.43a.43.43,0,0,1-.16-.52c.43-1,.91-2.07,1.42-3.07a.42.42,0,1,1,.74.38c-.5,1-1,2-1.39,3a.43.43,0,0,1-.55.23Zm4.24-7.7h0a.43.43,0,0,1-.1-.59c.65-.91,1.35-1.82,2.07-2.68a.42.42,0,1,1,.64.54c-.71.84-1.39,1.73-2,2.63A.41.41,0,0,1,446.77,279.79Zm5.83-6.57-.09-.08a.42.42,0,0,1,0-.59c.84-.75,1.71-1.48,2.61-2.16a.41.41,0,0,1,.5.66c-.87.67-1.73,1.38-2.55,2.12A.42.42,0,0,1,452.6,273.22Zm7.13-5.14a.54.54,0,0,1-.15-.15.42.42,0,0,1,.16-.57c1-.56,2-1.08,3-1.55a.42.42,0,0,1,.55.21.41.41,0,0,1-.21.55c-1,.46-2,1-3,1.52A.45.45,0,0,1,459.73,268.08Zm8.07-3.47a.42.42,0,0,1-.18-.23.41.41,0,0,1,.28-.52c1.07-.33,2.18-.62,3.27-.86a.43.43,0,0,1,.5.33.41.41,0,0,1-.32.49c-1.08.23-2.16.51-3.21.83A.4.4,0,0,1,467.8,264.61Zm8.63-1.62a.41.41,0,0,1-.2-.32.43.43,0,0,1,.39-.45c1.12-.08,2.26-.12,3.38-.11a.42.42,0,0,1,.42.42.43.43,0,0,1-.42.42c-1.11,0-2.22,0-3.32.1A.36.36,0,0,1,476.43,263Zm8.78.32a.42.42,0,0,1-.2-.42.43.43,0,0,1,.48-.35c1.11.17,2.23.38,3.32.64a.42.42,0,0,1,.32.5.43.43,0,0,1-.51.31c-1.07-.25-2.17-.46-3.25-.62A.44.44,0,0,1,485.21,263.31Zm8.5,2.23a.42.42,0,0,1-.17-.51.42.42,0,0,1,.54-.24c1.05.4,2.1.86,3.11,1.34a.43.43,0,0,1,.19.56.41.41,0,0,1-.56.19c-1-.47-2-.91-3-1.31Zm10.52,6,0,0c-.86-.68-1.77-1.34-2.68-1.95a.41.41,0,1,1,.46-.69c.93.62,1.86,1.29,2.74,2a.42.42,0,0,1,.07.59A.43.43,0,0,1,504.23,271.53Z"/><path class="cls-17" d="M509.4,276.45a.39.39,0,0,1-.1-.08c-.36-.42-.74-.83-1.11-1.22a.41.41,0,0,1,0-.59.42.42,0,0,1,.59,0c.38.41.77.82,1.14,1.25a.42.42,0,0,1-.53.63Z"/><path class="cls-30" d="M505,285.27a.46.46,0,0,0-.5-.24l-5.76.9a25.24,25.24,0,0,0-6.35-5.24l-.2-5.83a.48.48,0,0,0-.34-.44l-6.69-2.05a.48.48,0,0,0-.53.18l-3.43,4.71a25.18,25.18,0,0,0-8.19.79l-4.27-4a.47.47,0,0,0-.55-.07L462,277.28a.49.49,0,0,0-.25.5l.91,5.76a25.42,25.42,0,0,0-5.24,6.35l-5.83.2a.47.47,0,0,0-.44.34l-2.05,6.69a.49.49,0,0,0,.17.53l4.72,3.43a25.27,25.27,0,0,0,.79,8.2l-4,4.26a.49.49,0,0,0-.08.55l3.29,6.18a.47.47,0,0,0,.49.25l5.77-.91a25.2,25.2,0,0,0,6.34,5.25l.21,5.82a.46.46,0,0,0,.34.44l6.69,2.05a.48.48,0,0,0,.52-.17l3.44-4.72a25.48,25.48,0,0,0,8.19-.78l4.27,4a.5.5,0,0,0,.55.07l6.18-3.28a.49.49,0,0,0,.25-.5l-.91-5.76a25.6,25.6,0,0,0,5.24-6.35l5.83-.21a.47.47,0,0,0,.44-.33l2.05-6.69a.47.47,0,0,0-.18-.53l-4.71-3.43a25.27,25.27,0,0,0-.79-8.2l4-4.26a.48.48,0,0,0,.07-.56Z"/><path class="cls-17" d="M476,308.61a6.21,6.21,0,0,1-1.51-1.25,6.84,6.84,0,1,1,4.73,2.24A6.69,6.69,0,0,1,476,308.61ZM482.45,298a5.63,5.63,0,0,0-2.63-.81h0a5.59,5.59,0,0,0-4,1.44,5.59,5.59,0,0,0,7.5,8.29,5.6,5.6,0,0,0,.39-7.9A5.71,5.71,0,0,0,482.45,298Zm-2.6-1.43Z"/><path class="cls-17" d="M470.28,317.79a17.51,17.51,0,0,1,14.26-31.68l.42.14a17.13,17.13,0,0,1,2.71,1.16l.3.16-.61,1.1a16.12,16.12,0,0,0-3.19-1.36h0a16.26,16.26,0,1,0,9.15,24,16.61,16.61,0,0,0,1.67-3.71,16.23,16.23,0,0,0,.24-8.66l1.22-.3a17.46,17.46,0,0,1-.26,9.32,17.14,17.14,0,0,1-1.81,4,17.54,17.54,0,0,1-20.06,7.61A17.14,17.14,0,0,1,470.28,317.79Z"/></g><path class="cls-31" d="M493.31,383.5l4.33,4.28a31.23,31.23,0,0,0,14.55-4.94c-2.2-5.45-4.42-8.69-6.17-10.58A35.65,35.65,0,0,1,493.31,383.5Z"/><path class="cls-32" d="M523.49,367.5l-10.23-16A40.44,40.44,0,0,1,506,372.26c1.75,1.89,4,5.13,6.17,10.58A28.14,28.14,0,0,0,523.49,367.5Z"/><path class="cls-33" d="M534.37,494c-5.1.24-10,.09-13.34-.08,3-2.14,9.92-6.79,15.71-8.64l4-.24s1.34,2.05,1.82,6.74C541.88,492.56,540,493.7,534.37,494Z"/><path class="cls-34" d="M521,493.91l0,0c3.3.17,8.24.32,13.34.08,5.59-.26,7.51-1.4,8.17-2.22,0,.21.05.43.07.65a1.86,1.86,0,0,1-1.71,2c-4.18.32-14.54,1-19.54.77A.7.7,0,0,1,521,493.91Z"/><path class="cls-35" d="M570.87,492.6a38.66,38.66,0,0,1,1.43-6.75c.73-1.39,3.21,0,3.21,0a6.64,6.64,0,0,1,2.55,2.17c.52.87,1.93,3.33,2.89,5a1.06,1.06,0,0,1,.15.59l-10,.35A1.94,1.94,0,0,1,570.87,492.6Z"/><path class="cls-36" d="M581.1,493.61a1.12,1.12,0,0,1-1.1,1.1l-7.09.2a2,2,0,0,1-1.76-1Z"/><path class="cls-37" d="M570.11,477.89c.08.29,1.37,6.52,1.93,9.26a1.57,1.57,0,0,0,1.61,1.25c.42,0,.91-.06,1.43-.13a1.88,1.88,0,0,0,1.64-1.79c.09-2.4.13-7-.75-8.79C574.76,475.23,570.11,477.89,570.11,477.89Z"/><path class="cls-38" d="M541.5,479.68c-.56,0,.22,2.84-.62,5.66a1.43,1.43,0,0,1-1.32,1.14c-.43,0-.94,0-1.46,0a1.59,1.59,0,0,1-1.47-1.44l-.68-7.31Z"/><path class="cls-39" d="M526.06,402c.25,1.2,8.94,51.9,9.47,78.13a.89.89,0,0,0,.77.87,17.48,17.48,0,0,0,5.33,0,.63.63,0,0,0,.52-.58c.31-4.89,2.75-46.22-.24-65.68,0,0,24.71,52,28.46,66.36a.75.75,0,0,0,.77.56,19,19,0,0,0,5-.89,1.31,1.31,0,0,0,.82-1.54c-2.09-8.58-16.76-67.72-26.72-80.75Z"/><path class="cls-40" d="M541.91,415a.31.31,0,0,0,.22-.09.33.33,0,0,0,0-.46l-3.31-3.38a.33.33,0,0,0-.46,0,.32.32,0,0,0,0,.46l3.31,3.39A.32.32,0,0,0,541.91,415Z"/><path class="cls-41" d="M511.94,338.53c6.35-1.67,18.05-4.27,27.38-3.71a4.2,4.2,0,0,1,4,4c1.41,24.82,3.34,46.86,7,59.67-8.14,3.23-16.22,4.72-24.19,3.55a268.35,268.35,0,0,1-15.64-44.3s-2.62-13.37-.08-17.82A2.6,2.6,0,0,1,511.94,338.53Z"/><path class="cls-42" d="M527.21,321.14s1.6,9.56,2.08,14a1.75,1.75,0,0,1-.94,1.73,12.65,12.65,0,0,1-9.57,1,1.63,1.63,0,0,1-1.1-1.57l.28-12.77Z"/><path class="cls-43" d="M590.25,394.82,465.06,368.87l-3.17,12.52L584.38,418l.83.22,4.17,1.06c7.17,1.81,14-.64,15.19-5.47L606,408.1c1.22-4.83-3.6-10.22-10.77-12L591.08,395ZM597.59,409c-.81,3.2-5.85,4.7-11.24,3.33s-9.12-5.07-8.31-8.27,5.85-4.7,11.24-3.34S598.4,405.82,597.59,409Z"/><path class="cls-44" d="M424.33,351.86,448.57,358a5.7,5.7,0,0,1,3.86,3.28l3.63,8.37a5.74,5.74,0,0,1-1.72,6.79l-7.17,5.64a5.76,5.76,0,0,1-4.95,1.06L418,377a4.41,4.41,0,0,0-5,6.25,33,33,0,0,0,21.35,16.8c17.43,4.4,32.86-6.16,37.1-22.92s-4.32-33.39-21.75-37.8A33,33,0,0,0,422.87,344,4.41,4.41,0,0,0,424.33,351.86Z"/><path class="cls-45" d="M423.76,354.14,448,360.27a5.73,5.73,0,0,1,3.86,3.28l3.63,8.38a5.73,5.73,0,0,1-1.72,6.78l-7.17,5.65a5.71,5.71,0,0,1-4.95,1.05l-24.24-6.12a4.41,4.41,0,0,0-5,6.24,33,33,0,0,0,21.35,16.8c17.44,4.41,32.86-6.15,37.1-22.92s-4.32-33.39-21.75-37.79a33,33,0,0,0-26.77,4.64A4.4,4.4,0,0,0,423.76,354.14Z"/><path class="cls-46" d="M589.79,396.65l-125.19-26-3.17,12.52,122.49,36.65.83.23,4.17,1.05c7.17,1.81,14-.64,15.19-5.47l1.46-5.75c1.22-4.83-3.6-10.22-10.77-12l-4.18-1.05C590.35,396.77,590.07,396.7,589.79,396.65Zm7.34,14.2c-.81,3.2-5.85,4.7-11.24,3.33s-9.12-5.07-8.31-8.27,5.85-4.7,11.24-3.34S597.94,407.64,597.13,410.85Z"/><path class="cls-47" d="M559.72,371.59c3.14,8.81,1.37,18.25,1.37,18.25l4.14,1.11s5.35-6.36,4.12-20.47A20.26,20.26,0,0,0,559.72,371.59Z"/><path class="cls-48" d="M569.35,370.48c-.13-1.59-.35-3.27-.67-5.05-2.8-15.56-22.75-27.53-27.44-30.15a.63.63,0,0,0-1,.58L541,357c11.12,1.49,16.37,7.85,18.77,14.57A20.26,20.26,0,0,1,569.35,370.48Z"/><path class="cls-49" d="M484.58,391.26a2.69,2.69,0,0,1-1.74-1.5c-.63-1.42-1.35-3.7.18-4.4,2.28-1,6.41,3.21,6.41,3.21l2,3.28,1.85.89C491.61,393.21,488.35,392.43,484.58,391.26Z"/><path class="cls-50" d="M561.37,387.78h-5.12s4.15,2.48,4.29,5.1-1.65,8-2.48,9.52,11.58-2.41,7.17-14.62Z"/><path class="cls-51" d="M515.63,308.18c-.17.21-5.92,17-5.92,17l9.66,3.08,7.82-15.11S518.43,304.67,515.63,308.18Z"/><path class="cls-52" d="M523.24,314.11a1.44,1.44,0,0,1,.07,1.28l-3.44,8.16a1.45,1.45,0,0,1-.2.34c-.47.58-2.1,2.29-3.8.52-1.45-1.52-2.8-2.89-4.11-3.35a1.46,1.46,0,0,0-1.86.92,54.56,54.56,0,0,0-2,7.76,1.44,1.44,0,0,0,1.08,1.64,40.21,40.21,0,0,0,9,1.29,1.46,1.46,0,0,0,1.29-.77c1.11-2.09,4.25-7.93,5.39-9.44s3.41-1.27,4.48-1.12a1.46,1.46,0,0,0,1.13-.32c1-.77,2.55-2.59.51-5a1.47,1.47,0,0,1,.16-2,3.21,3.21,0,0,0,.58-4.7,4.54,4.54,0,0,0-5.21-1.69,1.51,1.51,0,0,1-1.69-.65,1,1,0,0,0-.83-.48A1.42,1.42,0,0,1,522.4,305a3.74,3.74,0,0,0-2.66-3.94c-4.21-1.59-7.13,2.4-7.58,5.47s4.21,4.54,7,4.5C521.21,311,522.63,313,523.24,314.11Z"/><path class="cls-53" d="M523.34,325.46s1-5.33,3.26-5.46,4.31,1.84,1.91,4.72C525.53,328.3,523.34,325.46,523.34,325.46Z"/><circle class="cls-17" cx="319.89" cy="199.26" r="19.45" transform="translate(71.96 483.1) rotate(-80.78)"/><path class="cls-54" d="M309.61,199.29l5.62-2.93v1.25a.59.59,0,0,1-.07.26.61.61,0,0,1-.24.2l-2.57,1.32a2.17,2.17,0,0,1-.35.15l-.38.11.38.11.35.14,2.57,1.33a.61.61,0,0,1,.24.2.59.59,0,0,1,.07.26v1.25L309.61,200Z"/><path class="cls-55" d="M318.4,204.45a1.35,1.35,0,0,1-.16.29,1.1,1.1,0,0,1-.23.2,1.31,1.31,0,0,1-.27.12.9.9,0,0,1-.28,0h-.73l4.14-10.6a1,1,0,0,1,.35-.46,1,1,0,0,1,.55-.16h.74Z"/><path class="cls-56" d="M324,202.94v-1.25a.59.59,0,0,1,.07-.26.61.61,0,0,1,.24-.2l2.57-1.33a3.38,3.38,0,0,1,.74-.25l-.39-.11a2.17,2.17,0,0,1-.35-.15l-2.57-1.32a.61.61,0,0,1-.24-.2.59.59,0,0,1-.07-.26v-1.25l5.62,2.93V200Z"/><path class="cls-57" d="M403.46,26.64c-.15.29-9.65,7.28-9.65,7.28s2.1,15,10.62,20.93c9.36,6.51,22.58-5.37,22.58-5.37s10.53,2.5,16.12-19.4c1.29-5-6.12-5.45-15.07-4.53C416.53,26.75,403.46,26.64,403.46,26.64Z"/><path class="cls-58" d="M385.71,77.83a39.94,39.94,0,0,1,12.18-5.66c1.63-.45,10.46,2.12,15.92,2,7.5-.17,15.13-3.58,21.3-2s11.16,3.53,14.06,5.59c8.68,6.17,13.78,17.68,16.88,29.09a39.87,39.87,0,0,1-13.28,8.72l-1.36,55.42-32.78,16.77-37.4-18.78,1.34-54.16s-11.88-5.54-12.75-7.55S375.23,85,385.71,77.83Z"/><path class="cls-59" d="M370.37,107s-15.92,44.13,20.38,62.27c7.54-1,4.64-13.52,4.64-13.52s-15.77-3.49-11-40.3C380,111.84,370.37,107,370.37,107Z"/><path class="cls-60" d="M465.29,107s10.95,46.07-20.38,62.27c-7.54-1-4.64-13.52-4.64-13.52s12.71-6.26,11-40.3C455.67,111.84,465.29,107,465.29,107Z"/><rect class="cls-61" x="380.79" y="123.81" width="71.87" height="48.54" rx="8.33"/><path class="cls-62" d="M484.18,186.74c-8.22-1.89-27.23-.88-27.23-.88l-.77,2.1-1.28,10.4s18.1,3.27,27,3.26a8.64,8.64,0,0,0,2.51-.37c.27-.25.54-.5.79-.78C489,196.34,487.91,190.27,484.18,186.74Z"/><path class="cls-63" d="M485,186.94c-.26-.07-.53-.14-.82-.2,3.73,3.53,4.82,9.6,1,13.73-.25.28-.52.53-.79.78C491.12,199.16,491.91,188.89,485,186.94Z"/><path class="cls-64" d="M451.49,185.28l3.22.13a6.22,6.22,0,0,1,4.52,2.34,7.66,7.66,0,0,1,1.66,5.22,6,6,0,0,1-1.74,4,4.86,4.86,0,0,1-3.77,1.43l-4.93-.35Z"/><path class="cls-65" d="M468.73,196.33a.48.48,0,0,1-.46-.39c-.82-3.29-4-6.6-4-6.63a.58.58,0,0,1,0-.75.45.45,0,0,1,.67,0c.14.15,3.43,3.55,4.32,7.13a.54.54,0,0,1-.33.65A.3.3,0,0,1,468.73,196.33Z"/><path class="cls-66" d="M464.38,196.06a.34.34,0,0,1-.14,0,.54.54,0,0,1-.31-.66c1.07-3.83,5.13-6.89,5.3-7a.45.45,0,0,1,.66.14.57.57,0,0,1-.13.74s-3.95,3-4.92,6.45A.48.48,0,0,1,464.38,196.06Z"/><path class="cls-67" d="M477.46,196.85a.51.51,0,0,1-.46-.42c-.68-3.33-3.72-6.81-3.75-6.84a.58.58,0,0,1,0-.75.45.45,0,0,1,.68,0c.13.15,3.26,3.72,4,7.35a.52.52,0,0,1-.36.63Z"/><path class="cls-68" d="M473.13,196.34a.45.45,0,0,1-.16,0,.55.55,0,0,1-.29-.68c1.25-3.76,5.43-6.6,5.61-6.72a.46.46,0,0,1,.66.18.57.57,0,0,1-.17.73s-4.07,2.76-5.2,6.18A.49.49,0,0,1,473.13,196.34Z"/><path class="cls-69" d="M343.25,185.74c8.27-1.64,27.25,0,27.25,0l.72,2.12,1,10.44s-18.18,2.7-27.1,2.42a8.41,8.41,0,0,1-2.49-.45,9.57,9.57,0,0,1-.77-.79C338.2,195.19,339.44,189.15,343.25,185.74Z"/><path class="cls-70" d="M342.43,185.92c.26-.07.54-.13.82-.18-3.81,3.41-5.05,9.45-1.37,13.7a9.57,9.57,0,0,0,.77.79C336,197.94,335.47,187.65,342.43,185.92Z"/><path class="cls-71" d="M376,185.28l-3.22,0a6.15,6.15,0,0,0-4.58,2.2,7.63,7.63,0,0,0-1.79,5.16,6.06,6.06,0,0,0,1.65,4,4.86,4.86,0,0,0,3.73,1.55l4.93-.2Z"/><path class="cls-72" d="M358.46,195.8a.48.48,0,0,0,.47-.37c.9-3.27,4.18-6.48,4.21-6.51a.56.56,0,0,0,.05-.74.45.45,0,0,0-.68-.05c-.14.13-3.51,3.43-4.49,7a.54.54,0,0,0,.31.66Z"/><path class="cls-73" d="M362.82,195.67l.14,0a.55.55,0,0,0,.33-.66c-1-3.86-5-7-5.13-7.17a.44.44,0,0,0-.66.12.56.56,0,0,0,.11.74s3.87,3.1,4.76,6.6A.5.5,0,0,0,362.82,195.67Z"/><path class="cls-74" d="M349.72,196.05a.49.49,0,0,0,.47-.4c.76-3.31,3.89-6.69,3.92-6.73a.58.58,0,0,0,0-.75.45.45,0,0,0-.68,0c-.13.15-3.36,3.62-4.18,7.23a.53.53,0,0,0,.34.64Z"/><path class="cls-75" d="M354.06,195.68a.51.51,0,0,0,.17,0,.54.54,0,0,0,.3-.67c-1.15-3.8-5.27-6.77-5.44-6.89a.45.45,0,0,0-.66.16.57.57,0,0,0,.14.73s4,2.89,5.05,6.34A.51.51,0,0,0,354.06,195.68Z"/><path class="cls-76" d="M486.48,154.11c-3.73-8.58-12.85-10-20.61-6-.14.17-49.31,25.38-92.68,36.42a47.26,47.26,0,0,1,2,12.38c0,.93,0,1.84,0,2.74,33.25-1.71,69.34-12.8,100.36-22.54C485.14,174.05,490.62,163.62,486.48,154.11Z"/><path class="cls-77" d="M451.72,197.6a28.67,28.67,0,0,1,2.8-13.4c.06-.19.13-.37.19-.56-2.48-.76-5.68-1.8-9.88-3.23C414,169.87,390.55,159.23,368.12,147c-8.71-4.76-18.61-1.57-21.4,8.74-2.49,9.2,3,17.05,11.28,19.81,24.81,8.26,11.89,6,20,8.58,21.77,6.73,48.85,12.86,73.78,14.53Z"/><path class="cls-78" d="M397.89,72.17s3.31,14.35,19.39,14c16.37-.3,17.83-14.1,17.83-14.1l-10.69-2.29-.9-11.92L407.43,59.1l-.3,11.33Z"/><path class="cls-79" d="M409.69,24.14s-18.44,35.72,3.43,44.39c15.43,6.11,25.11-23.72,22.22-31.81-4.46-12.49-7.4-11-7.4-11Z"/><path class="cls-80" d="M439.78,20.89c9.11,2.5,1.32,22.26-12.39,17.59s-19.11-4.61-21.24-.84-2.6,17.14-7.24,10.53c-5.08-7.25-7.92-21.79-1.68-26.48,5.57-4.2,6.87-10.69,13.55-10.47,8.87.3,15.73-3.63,19.73-.8C435.11,13.68,433.08,19.05,439.78,20.89Z"/><path class="cls-81" d="M405.3,40.71s-3.93-4.23-4.56.87,1.39,11.67,3.76,8.07S405.3,40.71,405.3,40.71Z"/><path class="cls-82" d="M421,137c.38,2.57-1,4.91-3.58,5.29a4.72,4.72,0,0,1-5.35-4c-.38-2.58.8-5.14,3.37-5.52A5.08,5.08,0,0,1,421,137Z"/><path class="cls-83" d="M27.61,238.34l237-1a4.06,4.06,0,0,1,4.1,4.08l-.5,83a4.06,4.06,0,0,1-4.18,4c-20.9-.62-235.09-3.37-239.18-3.2S23,259.83,23.58,242.25A4.05,4.05,0,0,1,27.61,238.34Z"/><path class="cls-17" d="M264.13,325.16h0c-13.35-.39-141.34-2-202.85-2.76L27.09,322h-.31l-.06-.31c-1.45-8.2-1.43-35.62.07-79.29a.86.86,0,0,1,.85-.82l237-1a.85.85,0,0,1,.61.25.8.8,0,0,1,.25.6l-.5,83A.86.86,0,0,1,264.13,325.16Zm-236.71-4c3.83.06,16.38.21,33.84.43,61.51.77,189.5,2.37,202.87,2.77h0s.06,0,.06-.09l.5-82.95-.08-.47v.39l-237,1a.09.09,0,0,0-.08.08C26.08,285.46,26,312.69,27.42,321.2Z"/><path class="cls-84" d="M37.75,259.76h0c0,2.24.75,4.06,1.67,4.06H130.2c.92,0,1.67-1.82,1.67-4.06h0c0-2.25-.75-4.06-1.67-4.06H39.42C38.5,255.7,37.75,257.51,37.75,259.76Z"/><path class="cls-84" d="M37.75,273.6h0c0,2.25.75,4.07,1.67,4.07H130.2c.92,0,1.67-1.82,1.67-4.07h0c0-2.24-.75-4.06-1.67-4.06H39.42C38.5,269.54,37.75,271.36,37.75,273.6Z"/><path class="cls-84" d="M37.75,287.45h0c0,2.24.75,4.06,1.67,4.06H130.2c.92,0,1.67-1.82,1.67-4.06h0c0-2.24-.75-4.06-1.67-4.06H39.42C38.5,283.39,37.75,285.21,37.75,287.45Z"/><path class="cls-84" d="M37.75,301.3h0c0,2.24.75,4.06,1.67,4.06H130.2c.92,0,1.67-1.82,1.67-4.06h0c0-2.25-.75-4.06-1.67-4.06H39.42C38.5,297.24,37.75,299.05,37.75,301.3Z"/><circle class="cls-17" cx="154.87" cy="262.62" r="15.79" transform="translate(-136.31 353.01) rotate(-76.72)"/><circle class="cls-17" cx="194.11" cy="262.62" r="15.79" transform="translate(-85.72 94.27) rotate(-22.5)"/><circle class="cls-17" cx="233.36" cy="263.14" r="15.79" transform="translate(-63.76 451.33) rotate(-80.78)"/><path class="cls-85" d="M164.25,259.28a10.15,10.15,0,1,1-9.38-6.29l.51,0v-2.58h-.51a12.71,12.71,0,1,0,11.74,7.84Z"/><path class="cls-86" d="M199.34,271.72a10,10,0,0,1-5.4,1.56,10.15,10.15,0,0,1,0-20.29l.51,0v-2.58h-.51A12.72,12.72,0,1,0,200.62,274Z"/><path class="cls-87" d="M241.82,268.84A10.14,10.14,0,1,1,233.43,253l.52,0v-2.58h-.52a12.72,12.72,0,1,0,10.47,19.93Z"/><g class="cls-88"><path class="cls-17" d="M167.73,285.1H142a2.93,2.93,0,0,0,0,5.85h25.73a2.93,2.93,0,1,0,0-5.85Z"/><path class="cls-17" d="M207,285.1H181.25a2.93,2.93,0,1,0,0,5.85H207a2.93,2.93,0,0,0,0-5.85Z"/><path class="cls-17" d="M220.49,291h25.73a2.93,2.93,0,1,0,0-5.85H220.49a2.93,2.93,0,0,0,0,5.85Z"/><rect class="cls-17" x="139.08" y="294.2" width="31.58" height="23.07" rx="2.92"/><rect class="cls-17" x="178.32" y="294.2" width="31.58" height="23.07" rx="2.92"/><rect class="cls-17" x="217.57" y="294.2" width="31.58" height="23.07" rx="2.92"/></g><path class="cls-89" d="M287.75,482.8c4.29.37,11.72,1,17.59,1.23,3.52.16,5.55-.19,6.72-.66,0,.13,0,.26,0,.37a1.22,1.22,0,0,1-1.15,1.15,205.59,205.59,0,0,1-23,0,.86.86,0,0,1-.71-1.29A7.33,7.33,0,0,1,287.75,482.8Z"/><path class="cls-90" d="M305.34,484c-5.87-.26-13.3-.86-17.59-1.23,4.21-5.17,17.59-8.65,17.59-8.65h3.77a15.81,15.81,0,0,1,2.95,9.22C310.89,483.84,308.86,484.19,305.34,484Z"/><path class="cls-91" d="M309.75,468l-.35,7a1.61,1.61,0,0,1-1.37,1.51,6.26,6.26,0,0,1-2.83-.24,1.91,1.91,0,0,1-1.28-1.45L302.7,468Z"/><path class="cls-92" d="M353.59,490.87a3.68,3.68,0,0,0,3.05-2.92v0a3.33,3.33,0,0,1-1.63,3.56,8.46,8.46,0,0,1-4.51.91,4.19,4.19,0,0,1-3.38-2h0C348.52,491.32,350.49,491.43,353.59,490.87Z"/><path class="cls-93" d="M344.83,470.14h3.11c4.75-.13,7.72,12.8,8.7,17.81a3.68,3.68,0,0,1-3.05,2.92c-3.1.56-5.07.45-6.47-.44-2.56-4.36-3.83-10.75-4.44-14.47C342,471.72,344.83,470.14,344.83,470.14Z"/><path class="cls-94" d="M347.54,463.64l1.73,6.88a1.87,1.87,0,0,1-1,2.12,6.61,6.61,0,0,1-3.58.87,1.6,1.6,0,0,1-1.28-1l-2.54-7.24Z"/><path class="cls-95" d="M286.69,373s15.46,96.62,15.21,97.15a12.86,12.86,0,0,0,8.92.25s-1.4-51.65-4.67-71.46c0,0,26.38,46.17,34.75,69.17a21,21,0,0,0,8-2.9s-28.4-83.1-36-94.16Z"/><path class="cls-96" d="M305.53,398.46a.43.43,0,0,1-.37-.2l-5.68-9.07-4.06-.82a.44.44,0,1,1,.17-.86l4.25.85a.5.5,0,0,1,.29.2l5.77,9.23a.44.44,0,0,1-.14.61A.46.46,0,0,1,305.53,398.46Z"/><path class="cls-97" d="M215.76,278.43s10.43,2.3,16.78,5.23a5.73,5.73,0,0,1,2.83,2.85c1.9,4.15,7.58,14.58,18.59,19.55-1.59,2.1-4.14,6.48-5.25,13.84-6.61-4.92-12.32-13.14-15.06-26.62a5.4,5.4,0,0,1-4.69-.13c-1.38-.67-3-1.62-4.16-2.36a5.41,5.41,0,0,1-2.41-3.25,18.53,18.53,0,0,1-.19-5l-5.36-1.66A1.91,1.91,0,0,1,215.76,278.43Z"/><path class="cls-98" d="M248.71,319.9c1.11-7.36,3.66-11.74,5.25-13.84,6.84,3.09,15.73,4.08,27.06.15a12.25,12.25,0,0,1,3.24-.64c6-.35,25.9-1,42.35,4.44a12.75,12.75,0,0,1,7.7,7c4.45,10.21,11.65,33.46-8.34,45.2a49.91,49.91,0,0,0-4.82-9.13c3.22-5.43,4.17-12.85-1.54-22.51-4.17,11.25-6.13,27.66-6.53,34.93a15.49,15.49,0,0,0,1.22,7l.1.24a.82.82,0,0,1-.58,1.13c-11.25,2.53-23,1.84-26.46,1.56a1.45,1.45,0,0,1-1.28-1.11c-5.48-23.06-5.49-38.79-4.15-48.73C276.81,326.72,261.16,329.16,248.71,319.9Z"/><path class="cls-99" d="M285.9,311.57s-2.67,4.22-4,14.17Z"/><path class="cls-100" d="M309.68,292.14s1.14,12,2.15,15.6a1.22,1.22,0,0,1-.58,1.39c-1.7,1-5.78,2.56-11.36-.18a2.52,2.52,0,0,1-1.41-2.38l.49-11.63Z"/><path class="cls-101" d="M298.73,276.74s-3.64,8.36-3.89,12.75-1.19,7.24,3.89,8.13,9.35-1.65,11.67-6c0,0,3.63-6.74,2.82-9.5S298.73,276.74,298.73,276.74Z"/><path class="cls-102" d="M308.66,288.46l-.28-.13a.69.69,0,0,1-.34-1c.71-1.38,2.11-4.55.3-5.29-2.32-.95-11.52-2.83-13.51-6.1a6.07,6.07,0,0,1,2.32-8.34.35.35,0,0,1,.46.15l.21.4a.35.35,0,0,0,.64-.07h0a.34.34,0,0,1,.62-.09c.61,1,2.26,2.57,6.67,3.38,6.26,1.16,10.4,3.69,10.5,8a.35.35,0,0,0,.54.28c.46-.28,1.2-.41,2.19.42,1.72,1.45,1,5.2-2.75,8.28a.35.35,0,0,0,0,.56c.69.44,1.7,1.5-.94,2.91a8.87,8.87,0,0,1-5.55,1.21.34.34,0,0,1-.28-.41l.84-3.81a.35.35,0,0,0-.34-.41Z"/><path class="cls-103" d="M308.51,289.26s1.39-5.35,3.78-3.85-1.24,6-3.17,6.19Z"/><path class="cls-104" d="M230.87,292a.48.48,0,0,1-.35-.16c-1-1.29-4-4.74-5-5.31a2.34,2.34,0,0,1-1.27-1.41,1.7,1.7,0,0,1,.33-1.39.45.45,0,0,1,.45-.19l4.56.92a.4.4,0,0,1,.2.09l2.42,2.08a.45.45,0,0,1,.05.62.44.44,0,0,1-.63.05l-2.33-2-4.13-.83a.76.76,0,0,0-.07.45c.07.27.36.56.86.84,1.34.76,4.84,5,5.24,5.52a.44.44,0,0,1-.07.62A.41.41,0,0,1,230.87,292Z"/><path class="cls-105" d="M308.61,370.44l-16.43-.36s14.33-4.05,15.22-2.95c0,0,8.88-5.83,13.75-14a49.91,49.91,0,0,1,4.82,9.13C321.61,364.78,315.88,369.23,308.61,370.44Z"/><path class="cls-106" d="M309.07,367.59s.34,6.55-8.25,5.6c-4.67-.52-12.22-4.87-12.22-4.87S308.26,368.27,309.07,367.59Z"/><path class="cls-107" d="M305.71,369.35h-.1l-40.86,0a1.81,1.81,0,1,1,0-3.62l40.86,0a1.81,1.81,0,0,1,.09,3.62Z"/><path class="cls-108" d="M228,332.64h34a6.49,6.49,0,0,1,5.86,3.68l15.74,33H241.36a4,4,0,0,1-3.67-2.47l-12.2-30.54A2.7,2.7,0,0,1,228,332.64Z"/><path class="cls-109" d="M252,349.57c.74,2.26.2,4.46-1.21,4.91s-3.15-1-3.89-3.29-.19-4.47,1.22-4.92S251.26,347.3,252,349.57Z"/><path class="cls-110" d="M107.76,310.33c-1.67-2.76-4.58-4.57-6.34-7.27a13.16,13.16,0,0,1-.84-11.7c1.2-3.15,3.35-5.87,4.57-9,1.65-4.23,1.68-6,.93-10.28-.66-3.74-2.11-7.71-5.69-9.85A21.46,21.46,0,0,0,85.46,260a27.84,27.84,0,0,0-14.23,7,20.06,20.06,0,0,0-6.3,14.32c0,3.62,1.21,7.36,0,10.79a8.49,8.49,0,0,1-6,5.45c-3,.71-6.22-.33-9.36-.29a13.67,13.67,0,0,0-8.56,3.2,11.32,11.32,0,0,0-4,7,8.44,8.44,0,0,0,2.7,7.44c1.43,1.22,3.45,2.05,4,3.85.59,2-1.15,4.05-3.08,4.87s-4.13.89-6.1,1.63c-4.41,1.64-7.09,6.62-6.74,11.31s3.31,8.95,7.21,11.6a27.63,27.63,0,0,0,13.32,4.21,109.1,109.1,0,0,0,14.12-.21c5.39-.25,10.87-.32,16-2.05s9.62-5.09,13.78-8.61c2-1.66,4-3.49,4.85-5.91.64-1.76.64-3.72,1.38-5.44,1.58-3.69,6-5.26,8.51-8.38A10.22,10.22,0,0,0,107.76,310.33Z"/><path class="cls-17" d="M49.37,317h0a6.64,6.64,0,0,1-4.06-10.58c2-2.66,5.66-3.35,9.19-3.83l6.38-.86c3.6-.49,7.29-1.19,9.37-3.85,2.21-2.84,1.76-6.72,1.34-10.48,0-.43-.1-.85-.14-1.27a27.39,27.39,0,0,1,1.67-13.85A15.61,15.61,0,0,1,83.22,263a.16.16,0,0,1,.19.12.15.15,0,0,1-.11.19,15.37,15.37,0,0,0-9.92,9,27.17,27.17,0,0,0-1.64,13.68c0,.42.09.85.14,1.28.44,3.81.88,7.76-1.41,10.71-2.14,2.76-5.91,3.47-9.58,4l-6.38.87c-3.46.46-7,1.14-9,3.7a6.3,6.3,0,0,0,3.86,10.06.17.17,0,0,1,.13.19A.18.18,0,0,1,49.37,317Z"/><path class="cls-17" d="M51.38,315a.31.31,0,0,1-.22-.09A9.63,9.63,0,0,1,49,312.31a3.48,3.48,0,0,1,.05-3.49,4.62,4.62,0,0,1,2.11-1.48,26.91,26.91,0,0,1,6.09-1.77c1.36-.22,2.76-.33,4.1-.45a39,39,0,0,0,5.26-.67c2.06-.45,5.76-1.7,7.36-4.93,1.3-2.62.82-5.53.31-8.61-.42-2.51-.84-5.09-.26-7.55a.33.33,0,0,1,.64.15c-.56,2.33-.14,4.85.26,7.29.51,3.05,1,6.21-.36,9-1.73,3.47-5.63,4.8-7.81,5.28a40.62,40.62,0,0,1-5.34.68c-1.34.11-2.72.23-4.05.45a25.59,25.59,0,0,0-5.94,1.72,4,4,0,0,0-1.84,1.25,2.9,2.9,0,0,0,0,2.83,9.1,9.1,0,0,0,2.05,2.42.33.33,0,0,1-.22.57Z"/><path class="cls-111" d="M103.11,304c-3-1-11.91-2.8-20.49,4.87a5.25,5.25,0,0,0-1.6,5.2c2.14,8.4,7.74,33.21,2.31,43.82,0,0,9.1,10.36,19.33,2.29,0,0,4.86-19.68,10.94-28.26,4.19-5.93-6.18-22.6-8.81-26.63A3.13,3.13,0,0,0,103.11,304Z"/><path class="cls-112" d="M94.94,287.29s-4.72,12.7-5.15,18.33a9.67,9.67,0,0,0,9.72-1.4s.7-12.76,1.45-15Z"/><path class="cls-113" d="M101.5,270s11.55,16.73,4.41,21.42-15.37-7.2-15.37-7.2-2.59-9.09.32-12.12S101.5,270,101.5,270Z"/><path class="cls-114" d="M96.09,265.92s5.41,1.38,6.13,3.85-7.77,4.61-10.15,4.68L90,284.33s-5.49-9.41-3.17-14.76S96.09,265.92,96.09,265.92Z"/><path class="cls-115" d="M92.85,283s-4.51-5.4-6.4-1.95,4,6.14,6.14,4.47Z"/><path class="cls-116" d="M113.79,401.91c-.05.89,1.42,8,2.21,11.84a6.26,6.26,0,0,1-.74,4.48l-30.5,49.49a6.7,6.7,0,0,0-.81,1.93,43,43,0,0,0-1.3,13.3l1.49,3.21-6.62-1.61-1.16-17.86,1.9-1.12a8.89,8.89,0,0,0,3.68-4.17c2.79-6.48,9.73-23,11.58-31C95.62,421.21,106,413.9,106,413.9l-1.73-4.27Z"/><path class="cls-117" d="M70.24,478.29s3.68-5.63,4.13-7.83,1.7-6.1,3.89-4.89c0,0,.87,10.77.44,15s4.69,4.14,4.69,4.14A4.78,4.78,0,0,1,85.81,486a1.2,1.2,0,0,1-.84,2,29,29,0,0,1-7.11-.52,2.16,2.16,0,0,1-1.72-2L75.6,473,71,478.65Z"/><path class="cls-118" d="M95.93,409.58s-1.77,44.68-2,51,.67,20.43,7,24.74l-2.8,2a37,37,0,0,1-6.71-8.71c-3.69-6.42-4.82-7.6-4.82-7.6l1.3-2.57a5.69,5.69,0,0,0,.52-3.63c-1.27-6.68-5.5-28.89-6.67-33.67-1.39-5.66-1.37-13.17,3.87-19.38S95.93,409.58,95.93,409.58Z"/><path class="cls-119" d="M88.77,489.21a.39.39,0,0,1-.39-.34c-.19-1.49-1-7.48-1.67-9-.8-1.78-3.37-9.28.16-9.86,0,0,8.57,12.95,10.22,14.71a3.31,3.31,0,0,0,3.8.66,6.33,6.33,0,0,1,2.84,2.11,1.16,1.16,0,0,1-.94,1.85l-5.91,0A4.16,4.16,0,0,1,93,486.58c-1-2.61-2.73-6.45-4.78-8.17l.91,10.37a.38.38,0,0,1-.39.43Z"/><path class="cls-120" d="M104.14,355.43s-1.4,4.22.53,11.24l12,44.5a1.36,1.36,0,0,1-.88,1.65,84.62,84.62,0,0,1-33.36,3.5,1.94,1.94,0,0,1-1.74-1.53l-5.32-25.91c-2.78-13.54-5.9-28.14,9-36.7C91.08,355.2,97.39,357,104.14,355.43Z"/><path class="cls-121" d="M81.38,310.56s-14.63,11.76-18.47,28.1S83.7,357.13,83.7,357.13s3.41-3.69,7.37-2.29.41-6.52-4.24-6.58-2.56,3.66-9.09.57c-6.36-3-10.18-12.05,6.39-25.4a7.36,7.36,0,0,0,2.21-2.91C89.65,312.58,87.21,307.29,81.38,310.56Z"/></svg>