<svg id="Layer_1" data-name="Layer 1" xmlns="http://www.w3.org/2000/svg" xmlns:xlink="http://www.w3.org/1999/xlink" viewBox="0 0 610.22 504.62"><defs><style>.cls-1{mask:url(#mask);filter:url(#luminosity-noclip-2);}.cls-2{mix-blend-mode:multiply;fill:url(#linear-gradient);}.cls-3{opacity:0.8;}.cls-4{fill:#eac4f9;}.cls-5{fill:url(#linear-gradient-2);}.cls-21,.cls-6{fill:#fff;}.cls-7{fill:url(#linear-gradient-3);}.cls-10,.cls-8,.cls-9{opacity:0.5;}.cls-9{fill:url(#linear-gradient-4);}.cls-10{fill:url(#linear-gradient-5);}.cls-11{fill:url(#linear-gradient-6);}.cls-12{opacity:0.4;}.cls-13{opacity:0.54;}.cls-14{fill:url(#linear-gradient-7);}.cls-15{fill:url(#linear-gradient-8);}.cls-16{fill:url(#linear-gradient-9);}.cls-17{fill:url(#linear-gradient-10);}.cls-18{fill:url(#linear-gradient-11);}.cls-19{fill:url(#linear-gradient-12);}.cls-20{fill:url(#linear-gradient-13);}.cls-21{opacity:0.6;}.cls-22{fill:url(#linear-gradient-14);}.cls-23{fill:url(#linear-gradient-15);}.cls-24{fill:url(#linear-gradient-16);}.cls-25{fill:url(#linear-gradient-17);}.cls-26{fill:url(#linear-gradient-18);}.cls-27{fill:url(#linear-gradient-19);}.cls-28{fill:url(#linear-gradient-20);}.cls-29{fill:url(#linear-gradient-21);}.cls-30{fill:url(#linear-gradient-22);}.cls-31{fill:url(#linear-gradient-23);}.cls-32{fill:url(#linear-gradient-24);}.cls-33{fill:url(#linear-gradient-25);}.cls-34{fill:url(#linear-gradient-26);}.cls-35{fill:url(#linear-gradient-27);}.cls-36{fill:url(#linear-gradient-28);}.cls-37{fill:url(#linear-gradient-29);}.cls-38{fill:url(#linear-gradient-30);}.cls-39{fill:url(#linear-gradient-31);}.cls-40{fill:url(#linear-gradient-32);}.cls-41{fill:url(#linear-gradient-33);}.cls-42{fill:url(#linear-gradient-34);}.cls-43{fill:url(#linear-gradient-35);}.cls-44{fill:url(#linear-gradient-36);}.cls-45{fill:url(#linear-gradient-37);}.cls-46{fill:url(#linear-gradient-38);}.cls-47{fill:url(#linear-gradient-39);}.cls-48{fill:url(#linear-gradient-40);}.cls-49{fill:url(#linear-gradient-41);}.cls-50{fill:url(#linear-gradient-42);}.cls-51{fill:url(#linear-gradient-43);}.cls-52{fill:url(#linear-gradient-44);}.cls-53{fill:#50c7fe;}.cls-54{fill:url(#linear-gradient-45);}.cls-55{fill:url(#linear-gradient-46);}.cls-56{fill:url(#linear-gradient-47);}.cls-57{fill:url(#linear-gradient-48);}.cls-58{fill:url(#linear-gradient-49);}.cls-59{fill:url(#linear-gradient-50);}.cls-60{fill:url(#linear-gradient-51);}.cls-61{fill:url(#linear-gradient-52);}.cls-62{fill:url(#linear-gradient-53);}.cls-63{fill:url(#linear-gradient-54);}.cls-64{fill:url(#linear-gradient-55);}.cls-65{fill:url(#linear-gradient-56);}.cls-66{fill:url(#linear-gradient-57);}.cls-67{fill:url(#linear-gradient-58);}.cls-68{opacity:0.3;}.cls-69{fill:url(#linear-gradient-59);}.cls-70{fill:url(#linear-gradient-60);}.cls-71{fill:url(#linear-gradient-61);}.cls-72{fill:url(#linear-gradient-62);}.cls-73{fill:url(#linear-gradient-63);}.cls-74{fill:url(#linear-gradient-64);}.cls-75{fill:url(#linear-gradient-65);}.cls-76{fill:url(#linear-gradient-66);}.cls-77{fill:url(#linear-gradient-67);}.cls-78{fill:url(#linear-gradient-68);}.cls-79{fill:url(#linear-gradient-69);}.cls-80{fill:url(#linear-gradient-70);}.cls-81{fill:url(#linear-gradient-71);}.cls-82{fill:url(#linear-gradient-72);}.cls-83{fill:url(#linear-gradient-73);}.cls-84{fill:url(#linear-gradient-74);}.cls-85{fill:url(#linear-gradient-75);}.cls-86{fill:url(#linear-gradient-76);}.cls-87{fill:url(#linear-gradient-77);}.cls-88{fill:url(#linear-gradient-78);}.cls-89{fill:url(#linear-gradient-79);}.cls-90{fill:url(#linear-gradient-80);}.cls-91{fill:url(#linear-gradient-81);}.cls-92{fill:url(#linear-gradient-82);}.cls-93{fill:url(#linear-gradient-83);}.cls-94{fill:url(#linear-gradient-84);}.cls-95{fill:url(#linear-gradient-85);}.cls-96{fill:url(#linear-gradient-86);}.cls-97{fill:url(#linear-gradient-87);}.cls-98{mask:url(#mask-2);}.cls-99{opacity:0.32;fill:url(#linear-gradient-88);}.cls-100{fill:url(#linear-gradient-89);}.cls-101{fill:url(#linear-gradient-90);}.cls-102{fill:url(#linear-gradient-91);}.cls-103{fill:url(#linear-gradient-92);}.cls-104{fill:url(#linear-gradient-93);}.cls-105{fill:url(#linear-gradient-94);}.cls-106{fill:url(#linear-gradient-95);}.cls-107{fill:url(#linear-gradient-96);}.cls-108{fill:url(#linear-gradient-97);}.cls-109{fill:url(#linear-gradient-98);}.cls-110{fill:url(#linear-gradient-99);}.cls-111{filter:url(#luminosity-noclip);}</style><filter id="luminosity-noclip" x="289.19" y="-7904.31" width="13.17" height="32766" filterUnits="userSpaceOnUse" color-interpolation-filters="sRGB"><feFlood flood-color="#fff" result="bg"/><feBlend in="SourceGraphic" in2="bg"/></filter><mask id="mask" x="289.19" y="-7904.31" width="13.17" height="32766" maskUnits="userSpaceOnUse"><g class="cls-111"/></mask><linearGradient id="linear-gradient" x1="810.37" y1="-894.59" x2="822.28" y2="-894.59" gradientTransform="translate(-812.88 835.49) rotate(23.84)" gradientUnits="userSpaceOnUse"><stop offset="0" stop-color="#fff"/><stop offset="1"/></linearGradient><linearGradient id="linear-gradient-2" x1="839.68" y1="-2715.63" x2="953.23" y2="-2715.63" gradientTransform="translate(-2248.92 824.06) rotate(57.92)" gradientUnits="userSpaceOnUse"><stop offset="0" stop-color="#53d8ff"/><stop offset="1" stop-color="#3840f7"/></linearGradient><linearGradient id="linear-gradient-3" x1="818.07" y1="-2850.1" x2="832.42" y2="-2743.65" xlink:href="#linear-gradient-2"/><linearGradient id="linear-gradient-4" x1="-5132.81" y1="579.72" x2="-4516" y2="131.8" gradientTransform="matrix(-1, 0, 0, 1, -4493.78, 0)" gradientUnits="userSpaceOnUse"><stop offset="0" stop-color="#a737d5"/><stop offset="1" stop-color="#ef497a"/></linearGradient><linearGradient id="linear-gradient-5" x1="-4585.65" y1="234.88" x2="-5115.91" y2="487.12" gradientTransform="matrix(-1, 0, 0, 1, -4493.78, 0)" gradientUnits="userSpaceOnUse"><stop offset="0" stop-color="#ed539f"/><stop offset="1" stop-color="#a061c2"/></linearGradient><linearGradient id="linear-gradient-6" x1="-4816.13" y1="3603.4" x2="-4586.82" y2="3926.68" gradientTransform="translate(-1675.9 -5910.3) rotate(-49.47)" xlink:href="#linear-gradient-2"/><linearGradient id="linear-gradient-7" x1="572.5" y1="321.12" x2="450.92" y2="406.37" gradientTransform="matrix(1, 0, 0, 1, 0, 0)" xlink:href="#linear-gradient-2"/><linearGradient id="linear-gradient-8" x1="594.32" y1="352.23" x2="472.73" y2="437.48" gradientTransform="matrix(1, 0, 0, 1, 0, 0)" xlink:href="#linear-gradient-2"/><linearGradient id="linear-gradient-9" x1="576.51" y1="326.83" x2="454.92" y2="412.09" gradientTransform="matrix(1, 0, 0, 1, 0, 0)" xlink:href="#linear-gradient-2"/><linearGradient id="linear-gradient-10" x1="595.08" y1="353.31" x2="473.49" y2="438.57" gradientTransform="matrix(1, 0, 0, 1, 0, 0)" xlink:href="#linear-gradient-2"/><linearGradient id="linear-gradient-11" x1="4898.59" y1="444.96" x2="4711.34" y2="566.34" gradientTransform="matrix(-1, 0, 0, 1, 5358.53, 0)" xlink:href="#linear-gradient-2"/><linearGradient id="linear-gradient-12" x1="579.61" y1="365.78" x2="415.57" y2="543.96" gradientUnits="userSpaceOnUse"><stop offset="0" stop-color="#fdf53f"/><stop offset="1" stop-color="#d93c65"/></linearGradient><linearGradient id="linear-gradient-13" x1="407.04" y1="411.73" x2="589.25" y2="411.73" gradientUnits="userSpaceOnUse"><stop offset="0" stop-color="#cb236d"/><stop offset="1" stop-color="#4c246d"/></linearGradient><linearGradient id="linear-gradient-14" x1="-35.69" y1="960.26" x2="-83.89" y2="723.51" gradientTransform="translate(72.8 -552.55) rotate(-5.68)" gradientUnits="userSpaceOnUse"><stop offset="0" stop-color="#2b3582"/><stop offset="1" stop-color="#150e42"/></linearGradient><linearGradient id="linear-gradient-15" x1="557.59" y1="179.1" x2="358.46" y2="501.58" xlink:href="#linear-gradient-12"/><linearGradient id="linear-gradient-16" x1="422.58" y1="404.83" x2="262.81" y2="414.23" xlink:href="#linear-gradient-12"/><linearGradient id="linear-gradient-17" x1="304.59" y1="346.93" x2="124.74" y2="540.08" xlink:href="#linear-gradient-12"/><linearGradient id="linear-gradient-18" x1="207.25" y1="496.79" x2="140.29" y2="404.28" gradientUnits="userSpaceOnUse"><stop offset="0" stop-color="#fdf53f"/><stop offset="0.28" stop-color="#f3c14a"/><stop offset="1" stop-color="#d93c65"/></linearGradient><linearGradient id="linear-gradient-19" x1="-3004.65" y1="404.06" x2="-3059.5" y2="134.7" gradientTransform="matrix(-0.98, -0.2, -0.2, 0.98, -2406.71, -588.16)" xlink:href="#linear-gradient-14"/><linearGradient id="linear-gradient-20" x1="994.44" y1="-570.4" x2="1055.15" y2="-671.58" gradientTransform="matrix(0.84, 0.55, -0.55, 0.84, -751.72, 411.46)" xlink:href="#linear-gradient-2"/><linearGradient id="linear-gradient-21" x1="59.14" y1="90.5" x2="130.06" y2="90.5" xlink:href="#linear-gradient-13"/><linearGradient id="linear-gradient-22" x1="-3814.81" y1="-4630.7" x2="-3809.74" y2="-4680.69" gradientTransform="matrix(-0.37, -0.93, -0.93, 0.37, -5644.45, -1702.47)" xlink:href="#linear-gradient-12"/><linearGradient id="linear-gradient-23" x1="-3858.03" y1="-4659.38" x2="-3838.83" y2="-4698.5" gradientTransform="matrix(-0.37, -0.93, -0.93, 0.37, -5644.45, -1702.47)" xlink:href="#linear-gradient-12"/><linearGradient id="linear-gradient-24" x1="-3757.74" y1="-4657.55" x2="-3787.62" y2="-4708.08" gradientTransform="matrix(-0.37, -0.93, -0.93, 0.37, -5644.45, -1702.47)" xlink:href="#linear-gradient-12"/><linearGradient id="linear-gradient-25" x1="-5372.86" y1="-1473.05" x2="-5350.51" y2="-1247.97" gradientTransform="matrix(-0.91, -0.42, -0.42, 0.91, -5308.45, -906.43)" xlink:href="#linear-gradient-14"/><linearGradient id="linear-gradient-26" x1="-3795.35" y1="-4799.32" x2="-3835.92" y2="-4740.64" gradientTransform="matrix(-0.37, -0.93, -0.93, 0.37, -5644.45, -1702.47)" xlink:href="#linear-gradient-12"/><linearGradient id="linear-gradient-27" x1="-5381.31" y1="-1731.42" x2="-5349.85" y2="-1731.42" gradientTransform="matrix(-0.63, -0.77, -0.77, 0.63, -4557.56, -2995.87)" xlink:href="#linear-gradient-2"/><linearGradient id="linear-gradient-28" x1="-3822.8" y1="-4749.21" x2="-3797.04" y2="-4749.21" gradientTransform="matrix(-0.37, -0.93, -0.93, 0.37, -5644.45, -1702.47)" xlink:href="#linear-gradient-14"/><linearGradient id="linear-gradient-29" x1="-5356.76" y1="-1708.03" x2="-5335.98" y2="-1708.03" gradientTransform="matrix(-0.88, -0.48, -0.48, 0.88, -5353.81, -996.71)" xlink:href="#linear-gradient-2"/><linearGradient id="linear-gradient-30" x1="-3818.58" y1="-4718.8" x2="-3801.57" y2="-4718.8" gradientTransform="matrix(-0.37, -0.93, -0.93, 0.37, -5644.45, -1702.47)" xlink:href="#linear-gradient-14"/><linearGradient id="linear-gradient-31" x1="25.91" y1="253.05" x2="188.51" y2="253.05" xlink:href="#linear-gradient-13"/><linearGradient id="linear-gradient-32" x1="37.21" y1="406.27" x2="-22.28" y2="540.9" gradientUnits="userSpaceOnUse"><stop offset="0" stop-color="#fdf53f"/><stop offset="0.66" stop-color="#e57a58"/><stop offset="1" stop-color="#d93c65"/></linearGradient><linearGradient id="linear-gradient-33" x1="86.31" y1="427.97" x2="26.82" y2="562.6" xlink:href="#linear-gradient-32"/><linearGradient id="linear-gradient-34" x1="29.07" y1="485.26" x2="39.51" y2="435.17" xlink:href="#linear-gradient-32"/><linearGradient id="linear-gradient-35" x1="101.94" y1="496.63" x2="143.96" y2="496.63" xlink:href="#linear-gradient-13"/><linearGradient id="linear-gradient-36" x1="134.32" y1="415.84" x2="122.84" y2="495.15" gradientTransform="matrix(1, 0, 0, 1, 0, 0)" xlink:href="#linear-gradient-14"/><linearGradient id="linear-gradient-37" x1="104.04" y1="483.97" x2="115.41" y2="483.97" gradientUnits="userSpaceOnUse"><stop offset="0" stop-color="#f9b776"/><stop offset="1" stop-color="#f47960"/></linearGradient><linearGradient id="linear-gradient-38" x1="167.84" y1="488.3" x2="201.77" y2="488.3" xlink:href="#linear-gradient-13"/><linearGradient id="linear-gradient-39" x1="191.18" y1="424.07" x2="179.7" y2="503.38" gradientTransform="matrix(1, 0, 0, 1, 0, 0)" xlink:href="#linear-gradient-14"/><linearGradient id="linear-gradient-40" x1="41.18" y1="432.67" x2="131.17" y2="432.67" gradientTransform="matrix(1, 0, 0, 1, 0, 0)" xlink:href="#linear-gradient-14"/><linearGradient id="linear-gradient-41" x1="157.89" y1="484.92" x2="171.46" y2="484.92" xlink:href="#linear-gradient-37"/><linearGradient id="linear-gradient-42" x1="122.93" y1="395.18" x2="24.13" y2="507.19" gradientTransform="matrix(1, 0, 0, 1, 0, 0)" xlink:href="#linear-gradient-14"/><linearGradient id="linear-gradient-43" x1="71.98" y1="284.09" x2="105.81" y2="284.09" xlink:href="#linear-gradient-37"/><linearGradient id="linear-gradient-44" x1="14.59" y1="335.47" x2="143.85" y2="335.47" gradientTransform="matrix(1, 0, 0, 1, 0, 0)" xlink:href="#linear-gradient-2"/><linearGradient id="linear-gradient-45" x1="139.67" y1="359.29" x2="171.02" y2="359.29" xlink:href="#linear-gradient-37"/><linearGradient id="linear-gradient-46" x1="-337.01" y1="2204.12" x2="-367.52" y2="2244.48" gradientTransform="translate(133.43 -1967.38) rotate(-8.21)" xlink:href="#linear-gradient-37"/><linearGradient id="linear-gradient-47" x1="-360.31" y1="2213.86" x2="-323.87" y2="2213.86" gradientTransform="translate(133.43 -1967.38) rotate(-8.21)" xlink:href="#linear-gradient-13"/><linearGradient id="linear-gradient-48" x1="-381.7" y1="2236.08" x2="-357.23" y2="2210.98" gradientTransform="translate(133.43 -1967.38) rotate(-8.21)" xlink:href="#linear-gradient-37"/><linearGradient id="linear-gradient-49" x1="-4086.23" y1="-5142.59" x2="-4170.07" y2="-5061.53" gradientTransform="matrix(-1.39, -0.07, -0.07, 1.39, -12602.46, 32.31)" gradientUnits="userSpaceOnUse"><stop offset="0" stop-color="#9cfffb"/><stop offset="1" stop-color="#9bfffa"/></linearGradient><linearGradient id="linear-gradient-50" x1="-5001.69" y1="-6347.78" x2="-5085.53" y2="-6266.72" gradientTransform="matrix(0.65, -1.23, -1.23, -0.65, 4999.74, -12998.56)" xlink:href="#linear-gradient-49"/><linearGradient id="linear-gradient-51" x1="144.93" y1="509.54" x2="151.19" y2="657.21" gradientTransform="matrix(1, 0, 0, 1, 0, 0)" xlink:href="#linear-gradient-2"/><linearGradient id="linear-gradient-52" x1="187.73" y1="507.72" x2="193.99" y2="655.39" gradientTransform="matrix(1, 0, 0, 1, 0, 0)" xlink:href="#linear-gradient-2"/><linearGradient id="linear-gradient-53" x1="169.12" y1="508.51" x2="175.38" y2="656.18" gradientTransform="matrix(1, 0, 0, 1, 0, 0)" xlink:href="#linear-gradient-2"/><linearGradient id="linear-gradient-54" x1="161.94" y1="365.04" x2="150.4" y2="450.37" gradientTransform="matrix(1, 0, 0, 1, 0, 0)" xlink:href="#linear-gradient-14"/><linearGradient id="linear-gradient-55" x1="323.01" y1="191.48" x2="201.64" y2="276.59" gradientTransform="matrix(1, 0, 0, 1, 0, 0)" xlink:href="#linear-gradient-2"/><linearGradient id="linear-gradient-56" x1="344.79" y1="222.54" x2="223.42" y2="307.65" gradientTransform="matrix(1, 0, 0, 1, 0, 0)" xlink:href="#linear-gradient-2"/><linearGradient id="linear-gradient-57" x1="327.01" y1="197.18" x2="205.64" y2="282.29" gradientTransform="matrix(1, 0, 0, 1, 0, 0)" xlink:href="#linear-gradient-2"/><linearGradient id="linear-gradient-58" x1="345.55" y1="223.62" x2="224.18" y2="308.73" gradientTransform="matrix(1, 0, 0, 1, 0, 0)" xlink:href="#linear-gradient-2"/><linearGradient id="linear-gradient-59" x1="116.85" y1="311.72" x2="-4.52" y2="396.83" gradientTransform="matrix(1, 0, 0, 1, 0, 0)" xlink:href="#linear-gradient-2"/><linearGradient id="linear-gradient-60" x1="138.63" y1="342.78" x2="17.26" y2="427.89" gradientTransform="matrix(1, 0, 0, 1, 0, 0)" xlink:href="#linear-gradient-2"/><linearGradient id="linear-gradient-61" x1="120.85" y1="317.43" x2="-0.52" y2="402.53" gradientTransform="matrix(1, 0, 0, 1, 0, 0)" xlink:href="#linear-gradient-2"/><linearGradient id="linear-gradient-62" x1="139.39" y1="343.86" x2="18.02" y2="428.97" gradientTransform="matrix(1, 0, 0, 1, 0, 0)" xlink:href="#linear-gradient-2"/><linearGradient id="linear-gradient-63" x1="393.51" y1="104.11" x2="387.57" y2="143.37" gradientTransform="matrix(1, 0, 0, 1, 0, 0)" xlink:href="#linear-gradient-14"/><linearGradient id="linear-gradient-64" x1="391.17" y1="121.79" x2="378.48" y2="168.01" gradientTransform="matrix(1, 0, 0, 1, 0, 0)" xlink:href="#linear-gradient-2"/><linearGradient id="linear-gradient-65" x1="390.7" y1="121.66" x2="378.01" y2="167.88" gradientTransform="matrix(1, 0, 0, 1, 0, 0)" xlink:href="#linear-gradient-2"/><linearGradient id="linear-gradient-66" x1="389.52" y1="121.34" x2="376.83" y2="167.56" gradientTransform="matrix(1, 0, 0, 1, 0, 0)" xlink:href="#linear-gradient-2"/><linearGradient id="linear-gradient-67" x1="389.2" y1="121.25" x2="376.51" y2="167.47" gradientTransform="matrix(1, 0, 0, 1, 0, 0)" xlink:href="#linear-gradient-2"/><linearGradient id="linear-gradient-68" x1="393.11" y1="32.75" x2="389.22" y2="138.4" xlink:href="#linear-gradient-12"/><linearGradient id="linear-gradient-69" x1="399.96" y1="69.88" x2="402.81" y2="160.38" xlink:href="#linear-gradient-12"/><linearGradient id="linear-gradient-70" x1="384.27" y1="70.37" x2="387.12" y2="160.87" xlink:href="#linear-gradient-12"/><linearGradient id="linear-gradient-71" x1="229.27" y1="431.51" x2="235.88" y2="431.51" xlink:href="#linear-gradient-13"/><linearGradient id="linear-gradient-72" x1="230.98" y1="429.7" x2="250.56" y2="429.7" gradientTransform="matrix(1, 0, 0, 1, 0, 0)" xlink:href="#linear-gradient-14"/><linearGradient id="linear-gradient-73" x1="303.37" y1="373.2" x2="315.91" y2="373.2" gradientTransform="matrix(1, 0, 0, 1, 0, 0)" xlink:href="#linear-gradient-2"/><linearGradient id="linear-gradient-74" x1="305.25" y1="372.32" x2="329.69" y2="372.32" gradientTransform="matrix(1, 0, 0, 1, 0, 0)" xlink:href="#linear-gradient-14"/><linearGradient id="linear-gradient-75" x1="242.04" y1="409.67" x2="259.78" y2="409.67" xlink:href="#linear-gradient-37"/><linearGradient id="linear-gradient-76" x1="321.2" y1="354.05" x2="339.1" y2="354.05" xlink:href="#linear-gradient-37"/><linearGradient id="linear-gradient-77" x1="419.32" y1="233.78" x2="303.49" y2="345.81" gradientTransform="matrix(1, 0, 0, 1, 0, 0)" xlink:href="#linear-gradient-14"/><linearGradient id="linear-gradient-78" x1="358.61" y1="312.36" x2="339.93" y2="328.5" gradientTransform="matrix(1, 0, 0, 1, 0, 0)" xlink:href="#linear-gradient-14"/><linearGradient id="linear-gradient-79" x1="336.87" y1="313.41" x2="326.85" y2="327.76" gradientTransform="matrix(1, 0, 0, 1, 0, 0)" xlink:href="#linear-gradient-14"/><linearGradient id="linear-gradient-80" x1="363.54" y1="-381.53" x2="362.6" y2="-468.84" gradientTransform="translate(-214.83 602.84) rotate(23.84)" xlink:href="#linear-gradient-13"/><linearGradient id="linear-gradient-81" x1="348.44" y1="-462.17" x2="348.02" y2="-472.36" gradientTransform="translate(-214.83 602.84) rotate(23.84)" xlink:href="#linear-gradient-13"/><linearGradient id="linear-gradient-82" x1="347.91" y1="-477.47" x2="350.01" y2="-448.26" gradientTransform="translate(-214.83 602.84) rotate(23.84)" xlink:href="#linear-gradient-13"/><linearGradient id="linear-gradient-83" x1="376.83" y1="-463.34" x2="376.41" y2="-473.53" gradientTransform="translate(-214.83 602.84) rotate(23.84)" xlink:href="#linear-gradient-13"/><linearGradient id="linear-gradient-84" x1="376.22" y1="-479.51" x2="378.33" y2="-450.3" gradientTransform="translate(-214.83 602.84) rotate(23.84)" xlink:href="#linear-gradient-13"/><linearGradient id="linear-gradient-85" x1="364.56" y1="-493.73" x2="361.73" y2="-472.93" gradientTransform="translate(-214.83 602.84) rotate(23.84)" xlink:href="#linear-gradient-13"/><linearGradient id="linear-gradient-86" x1="365.42" y1="-477.53" x2="355.02" y2="-380.46" gradientTransform="translate(-214.83 602.84) rotate(23.84)" xlink:href="#linear-gradient-13"/><linearGradient id="linear-gradient-87" x1="819.15" y1="-920.06" x2="815.05" y2="-887.6" gradientTransform="translate(-812.88 835.49) rotate(23.84)" xlink:href="#linear-gradient-4"/><filter id="luminosity-noclip-2" x="289.19" y="340.65" width="13.17" height="12.8" filterUnits="userSpaceOnUse" color-interpolation-filters="sRGB"><feFlood flood-color="#fff" result="bg"/><feBlend in="SourceGraphic" in2="bg"/></filter><mask id="mask-2" x="289.19" y="340.65" width="13.17" height="12.8" maskUnits="userSpaceOnUse"><g class="cls-1"><path class="cls-2" d="M296.6,353.29l-6.34-2.8a1.78,1.78,0,0,1-1-2.16l2-6.42a1.79,1.79,0,0,1,2.44-1.11l7.61,3.37a1.78,1.78,0,0,1,.85,2.5l-3.24,5.86A1.78,1.78,0,0,1,296.6,353.29Z"/></g></mask><linearGradient id="linear-gradient-88" x1="810.37" y1="-894.59" x2="822.28" y2="-894.59" gradientTransform="translate(-812.88 835.49) rotate(23.84)" gradientUnits="userSpaceOnUse"><stop offset="0" stop-color="#fff"/><stop offset="1" stop-color="#fff"/></linearGradient><linearGradient id="linear-gradient-89" x1="438.81" y1="143.16" x2="492.94" y2="143.16" xlink:href="#linear-gradient-37"/><linearGradient id="linear-gradient-90" x1="432.32" y1="162.42" x2="370.92" y2="264.64" gradientTransform="matrix(1, 0, 0, 1, 0, 0)" xlink:href="#linear-gradient-2"/><linearGradient id="linear-gradient-91" x1="402.38" y1="214.04" x2="297.61" y2="302.67" gradientTransform="matrix(1, 0, 0, 1, 0, 0)" xlink:href="#linear-gradient-2"/><linearGradient id="linear-gradient-92" x1="300.27" y1="296.79" x2="337.74" y2="296.79" xlink:href="#linear-gradient-37"/><linearGradient id="linear-gradient-93" x1="204.66" y1="285.16" x2="326.22" y2="224.12" xlink:href="#linear-gradient-13"/><linearGradient id="linear-gradient-94" x1="266" y1="259.81" x2="287.63" y2="259.81" xlink:href="#linear-gradient-13"/><linearGradient id="linear-gradient-95" x1="555.53" y1="-1185.3" x2="577.83" y2="-1208.18" gradientTransform="translate(-477.11 1191) rotate(15.65)" xlink:href="#linear-gradient-37"/><linearGradient id="linear-gradient-96" x1="-1559.37" y1="1095.53" x2="-1587.6" y2="1132.88" gradientTransform="translate(668.53 -1723.01) rotate(-46.73)" xlink:href="#linear-gradient-37"/><linearGradient id="linear-gradient-97" x1="-1580.93" y1="1104.5" x2="-1547.21" y2="1104.5" gradientTransform="translate(668.53 -1723.01) rotate(-46.73)" xlink:href="#linear-gradient-14"/><linearGradient id="linear-gradient-98" x1="-1600.72" y1="1125.1" x2="-1578.08" y2="1101.87" gradientTransform="translate(668.53 -1723.01) rotate(-46.73)" xlink:href="#linear-gradient-37"/><linearGradient id="linear-gradient-99" x1="483.96" y1="125.57" x2="490.93" y2="125.57" xlink:href="#linear-gradient-37"/></defs><title>process-launch</title><g class="cls-3"><path class="cls-4" d="M488.65,204a.76.76,0,0,1-.38-.11c-.78-.51-1.56-1-2.33-1.57a.7.7,0,0,1-.17-1,.69.69,0,0,1,1-.17c.75.52,1.52,1,2.29,1.54a.69.69,0,0,1,.2,1A.67.67,0,0,1,488.65,204Z"/><path class="cls-4" d="M479.06,196.55a.71.71,0,0,1-.47-.18c-1.42-1.3-2.8-2.67-4.12-4.08a.7.7,0,1,1,1-1c1.3,1.39,2.66,2.74,4,4a.7.7,0,0,1,.05,1A.71.71,0,0,1,479.06,196.55Zm-10-11.26a.72.72,0,0,1-.57-.28c-1.13-1.57-2.21-3.2-3.22-4.84a.7.7,0,0,1,1.19-.72c1,1.61,2.05,3.2,3.16,4.74a.7.7,0,0,1-.16,1A.66.66,0,0,1,469,185.29Zm-7.55-13a.7.7,0,0,1-.63-.41c-.79-1.76-1.52-3.57-2.17-5.39A.7.7,0,1,1,460,166c.64,1.78,1.35,3.56,2.13,5.29a.7.7,0,0,1-.35.92A.75.75,0,0,1,461.49,172.25Zm-4.71-14.32a.69.69,0,0,1-.68-.55c-.41-1.88-.75-3.8-1-5.71a.69.69,0,0,1,.6-.78.68.68,0,0,1,.78.59c.26,1.88.59,3.76,1,5.61a.71.71,0,0,1-.53.83Zm-1.67-15a.69.69,0,0,1-.7-.69v-.66c0-1.71.06-3.44.17-5.14a.7.7,0,1,1,1.39.09c-.11,1.67-.17,3.37-.17,5.05v.64a.7.7,0,0,1-.69.71Zm1.4-15h-.13a.69.69,0,0,1-.55-.82c.37-1.89.83-3.79,1.35-5.64A.68.68,0,0,1,458,121a.69.69,0,0,1,.49.85c-.51,1.83-1,3.69-1.33,5.54A.69.69,0,0,1,456.51,128Zm4.42-14.4a.66.66,0,0,1-.27-.06.69.69,0,0,1-.37-.91c.75-1.77,1.58-3.54,2.47-5.25a.69.69,0,0,1,.94-.29.68.68,0,0,1,.29.93c-.87,1.68-1.68,3.41-2.42,5.16A.7.7,0,0,1,460.93,113.55Zm7.27-13.2a.72.72,0,0,1-.4-.12.7.7,0,0,1-.17-1c1.09-1.58,2.27-3.14,3.49-4.63a.7.7,0,0,1,1.08.88c-1.2,1.47-2.35,3-3.43,4.55A.7.7,0,0,1,468.2,100.35ZM478,88.93a.68.68,0,0,1-.51-.22.69.69,0,0,1,0-1c1.4-1.32,2.87-2.61,4.37-3.82a.71.71,0,0,1,1,.1.7.7,0,0,1-.11,1c-1.47,1.19-2.91,2.45-4.28,3.75A.7.7,0,0,1,478,88.93ZM490,79.74a.7.7,0,0,1-.37-1.29c1.65-1,3.35-2,5.05-2.86a.7.7,0,0,1,.64,1.24c-1.67.86-3.34,1.81-4.95,2.81A.71.71,0,0,1,490,79.74Zm13.56-6.58a.7.7,0,0,1-.24-1.35c1.81-.65,3.67-1.25,5.53-1.76a.7.7,0,1,1,.37,1.34c-1.82.5-3.65,1.09-5.42,1.73A.67.67,0,0,1,503.52,73.16Z"/><path class="cls-4" d="M518.17,69.5a.7.7,0,0,1-.69-.59.71.71,0,0,1,.6-.79c.92-.13,1.86-.25,2.78-.34a.69.69,0,1,1,.15,1.38c-.91.1-1.83.21-2.74.34Z"/><path class="cls-4" d="M575.74,85.89a.68.68,0,0,1-.44-.16c-.7-.59-1.42-1.17-2.15-1.73a.7.7,0,0,1-.12-1,.71.71,0,0,1,1-.12c.73.57,1.47,1.17,2.18,1.76a.7.7,0,0,1-.45,1.23Z"/><path class="cls-4" d="M544.72,214a.7.7,0,0,1-.16-1.38c1.82-.4,3.64-.89,5.42-1.44a.7.7,0,0,1,.87.47.69.69,0,0,1-.46.86c-1.81.56-3.67,1.06-5.52,1.47Zm14.06-4.7a.7.7,0,0,1-.63-.41.69.69,0,0,1,.34-.92c1.7-.77,3.39-1.61,5-2.51a.7.7,0,0,1,.67,1.22c-1.67.92-3.39,1.77-5.11,2.55A.62.62,0,0,1,558.78,209.25Zm12.83-7.44a.7.7,0,0,1-.41-1.26l.95-.71c1.18-.87,2.34-1.8,3.47-2.75a.69.69,0,1,1,.89,1.06c-1.14,1-2.32,1.91-3.52,2.81l-1,.71A.72.72,0,0,1,571.61,201.81ZM582.7,192a.69.69,0,0,1-.51-1.16c1.26-1.37,2.48-2.81,3.63-4.27a.69.69,0,0,1,1-.11.68.68,0,0,1,.12,1c-1.17,1.49-2.42,3-3.7,4.35A.68.68,0,0,1,582.7,192Zm8.88-11.86a.78.78,0,0,1-.36-.1.7.7,0,0,1-.24-1c1-1.59,1.86-3.24,2.7-4.91a.69.69,0,0,1,1.24.62c-.85,1.7-1.77,3.38-2.75,5A.69.69,0,0,1,591.58,180.1Zm6.3-13.42a.62.62,0,0,1-.23,0,.71.71,0,0,1-.43-.89c.62-1.75,1.18-3.55,1.66-5.35a.69.69,0,0,1,1.34.36c-.49,1.83-1.06,3.67-1.68,5.45A.7.7,0,0,1,597.88,166.68Zm3.49-14.41h-.1a.68.68,0,0,1-.59-.78c.25-1.85.44-3.72.55-5.58a.69.69,0,0,1,.73-.65.7.7,0,0,1,.66.74c-.12,1.89-.31,3.8-.56,5.68A.7.7,0,0,1,601.37,152.27Zm.53-14.82a.69.69,0,0,1-.69-.65c-.12-1.86-.31-3.73-.58-5.57A.7.7,0,0,1,602,131c.27,1.88.47,3.79.59,5.68a.71.71,0,0,1-.65.74Zm-2.44-14.62a.69.69,0,0,1-.67-.52c-.49-1.79-1.06-3.59-1.69-5.34a.7.7,0,0,1,1.31-.47c.64,1.79,1.22,3.62,1.72,5.45a.69.69,0,0,1-.49.85A.57.57,0,0,1,599.46,122.83ZM594.11,109a.7.7,0,0,1-.62-.38c-.84-1.66-1.76-3.31-2.73-4.9a.69.69,0,1,1,1.18-.72c1,1.62,1.93,3.3,2.79,5a.7.7,0,0,1-.31.94A.68.68,0,0,1,594.11,109Zm-8-12.48a.71.71,0,0,1-.55-.26c-1.16-1.46-2.39-2.89-3.65-4.25a.71.71,0,0,1,0-1,.69.69,0,0,1,1,0c1.29,1.39,2.54,2.84,3.72,4.33a.69.69,0,0,1-.54,1.13Z"/><path class="cls-4" d="M532.83,215.61a.7.7,0,0,1,0-1.39c.91-.05,1.83-.12,2.75-.21a.69.69,0,1,1,.13,1.38c-.93.09-1.87.16-2.8.22Z"/><path class="cls-5" d="M524.72,197.87a.9.9,0,0,0,.92-.44l5.22-9.39a46.46,46.46,0,0,0,14.79-3.26l8.67,6.31a.89.89,0,0,0,1,0l10.55-7.37a.89.89,0,0,0,.34-1l-2.94-10.31a46.84,46.84,0,0,0,8.14-12.77L582,158a.87.87,0,0,0,.73-.72L585,144.61a.88.88,0,0,0-.44-.93l-9.38-5.21a46.79,46.79,0,0,0-3.26-14.8l6.31-8.67a.89.89,0,0,0,0-1l-7.38-10.56a.89.89,0,0,0-1-.34L559.6,106a46.78,46.78,0,0,0-12.77-8.14l-1.67-10.6a.88.88,0,0,0-.72-.73L531.76,84.3a.88.88,0,0,0-.92.44l-5.22,9.38a47,47,0,0,0-14.79,3.26l-8.68-6.3a.85.85,0,0,0-1,0l-10.55,7.37a.87.87,0,0,0-.34,1l2.94,10.31A46.69,46.69,0,0,0,485,122.49l-10.61,1.68a.88.88,0,0,0-.73.71l-2.24,12.68a.89.89,0,0,0,.44.93l9.38,5.21a46.68,46.68,0,0,0,3.26,14.79l-6.31,8.68a.89.89,0,0,0,0,1l7.38,10.55a.88.88,0,0,0,1,.35l10.32-3a46.81,46.81,0,0,0,12.77,8.15l1.67,10.6a.89.89,0,0,0,.72.73Z"/><path class="cls-6" d="M528.22,153.56a12.39,12.39,0,1,1,.92,0Zm0-22.86a10.38,10.38,0,1,0,.74,20.74,10.26,10.26,0,0,0,7.1-3.56h0a10.38,10.38,0,0,0-7.84-17.18Z"/><path class="cls-6" d="M540.67,170.43l-.8-1.92a31.12,31.12,0,0,0,5.59-3.09h0A30,30,0,1,0,516,168.21l-.86,1.9a32.1,32.1,0,1,1,31.54-3l-.54.37h0l0,0h0l0,0a32.37,32.37,0,0,1-4.3,2.41l0,0-.06,0-.17.08C541.21,170.2,541,170.32,540.67,170.43Z"/><path class="cls-7" d="M549.74,78l2.5-5.47A26.11,26.11,0,0,0,560.36,70l5.12,3.13a.5.5,0,0,0,.58,0l5.56-4.59a.5.5,0,0,0,.15-.55l-2.1-5.63a26.25,26.25,0,0,0,4-7.49l5.85-1.41a.49.49,0,0,0,.37-.43l.69-7.18a.5.5,0,0,0-.28-.5l-5.47-2.5a26.34,26.34,0,0,0-2.48-8.11l3.14-5.13a.5.5,0,0,0,0-.57l-4.59-5.57a.52.52,0,0,0-.56-.15l-5.63,2.11a25.91,25.91,0,0,0-7.49-4l-1.41-5.84a.49.49,0,0,0-.43-.38l-7.18-.69a.49.49,0,0,0-.5.29l-2.49,5.47A25.78,25.78,0,0,0,537,22.74L531.9,19.6a.48.48,0,0,0-.57,0l-5.56,4.59a.47.47,0,0,0-.15.55l2.1,5.63a26.17,26.17,0,0,0-4,7.5l-5.85,1.4a.5.5,0,0,0-.38.43l-.69,7.18a.51.51,0,0,0,.29.5l5.47,2.5A26.34,26.34,0,0,0,525.06,58l-3.14,5.13a.5.5,0,0,0,0,.57l4.59,5.57a.5.5,0,0,0,.55.15l5.63-2.11a26.09,26.09,0,0,0,7.5,4l1.4,5.84a.5.5,0,0,0,.44.38l7.18.69A.47.47,0,0,0,549.74,78Z"/><path class="cls-6" d="M548.68,53.82a7.45,7.45,0,0,1-6-11.86,7.45,7.45,0,1,1,12,8.82,7.5,7.5,0,0,1-6,3Zm0-12.81A5.36,5.36,0,1,0,553,49.55,5.36,5.36,0,0,0,548.7,41Z"/><path class="cls-4" d="M538,84.23a.68.68,0,0,1-.2,0c-.9-.26-1.81-.56-2.69-.88a.7.7,0,0,1,.48-1.31c.85.31,1.72.6,2.6.85a.69.69,0,0,1,.47.86A.67.67,0,0,1,538,84.23Z"/><path class="cls-4" d="M527.87,79.65a.75.75,0,0,1-.37-.11c-.72-.47-1.44-1-2.13-1.47S524,77,523.28,76.42a.69.69,0,1,1,.89-1.06c.66.55,1.34,1.09,2,1.59s1.36,1,2.06,1.42a.69.69,0,0,1,.21,1A.71.71,0,0,1,527.87,79.65ZM518,70.53a.67.67,0,0,1-.55-.27,38.61,38.61,0,0,1-2.9-4.38.69.69,0,0,1,.26-.95.7.7,0,0,1,1,.26,38,38,0,0,0,2.79,4.22.69.69,0,0,1-.13,1A.71.71,0,0,1,518,70.53Zm-6.18-12a.7.7,0,0,1-.66-.49A40.86,40.86,0,0,1,509.88,53a.7.7,0,0,1,1.38-.23,39.11,39.11,0,0,0,1.17,4.92.69.69,0,0,1-.45.87A.52.52,0,0,1,511.77,58.56Zm-1.7-13.37h0a.7.7,0,0,1-.66-.73,38,38,0,0,1,.6-5.21.7.7,0,0,1,1.37.25,36.71,36.71,0,0,0-.58,5A.7.7,0,0,1,510.07,45.19Zm3-13.14a.63.63,0,0,1-.27-.06.7.7,0,0,1-.38-.91,41,41,0,0,1,2.36-4.68.71.71,0,0,1,1-.25.69.69,0,0,1,.24,1,39,39,0,0,0-2.27,4.52A.69.69,0,0,1,513.05,32.05Zm7.31-11.32a.69.69,0,0,1-.51-1.16A39.42,39.42,0,0,1,523.67,16a.7.7,0,0,1,1,.1.71.71,0,0,1-.09,1,37.78,37.78,0,0,0-3.69,3.47A.67.67,0,0,1,520.36,20.73Z"/><path class="cls-4" d="M531.15,12.59a.71.71,0,0,1-.63-.38.7.7,0,0,1,.31-.93c.84-.43,1.7-.83,2.57-1.19a.69.69,0,0,1,.91.37.7.7,0,0,1-.37.91c-.84.35-1.67.73-2.48,1.15A.7.7,0,0,1,531.15,12.59Z"/><path class="cls-4" d="M565,12a.72.72,0,0,1-.29-.06c-.82-.38-1.67-.74-2.52-1.07a.68.68,0,0,1-.4-.89.71.71,0,0,1,.9-.41c.88.34,1.76.71,2.61,1.11A.69.69,0,0,1,565,12Z"/><path class="cls-4" d="M572.91,77.22a.71.71,0,0,1-.55-.26.7.7,0,0,1,.11-1,36.87,36.87,0,0,0,4.27-4,.69.69,0,0,1,1,0,.69.69,0,0,1,0,1,37.87,37.87,0,0,1-4.43,4.16A.66.66,0,0,1,572.91,77.22Zm9.93-12a.8.8,0,0,1-.33-.08.69.69,0,0,1-.28-.94,37.77,37.77,0,0,0,2.35-5.38.69.69,0,1,1,1.31.46,38.23,38.23,0,0,1-2.44,5.57A.67.67,0,0,1,582.84,65.21Zm4.39-14.95h-.05a.7.7,0,0,1-.64-.75c.08-1,.13-2.08.13-3.12s0-1.83-.1-2.75a.69.69,0,0,1,.64-.74.7.7,0,0,1,.75.64c.06,1,.1,1.91.1,2.85s0,2.16-.13,3.23A.71.71,0,0,1,587.23,50.26Zm-1.87-15.47a.71.71,0,0,1-.66-.48,36.55,36.55,0,0,0-2.28-5.4.71.71,0,0,1,.3-.94.7.7,0,0,1,.94.3,38.8,38.8,0,0,1,2.36,5.6.68.68,0,0,1-.44.88A.54.54,0,0,1,585.36,34.79Zm-7.81-13.48a.67.67,0,0,1-.52-.24A38.65,38.65,0,0,0,572.79,17a.7.7,0,1,1,.88-1.08,38.84,38.84,0,0,1,4.39,4.21.7.7,0,0,1-.51,1.16Z"/><path class="cls-4" d="M562.05,83.35a.7.7,0,0,1-.66-.45.71.71,0,0,1,.42-.9c.85-.31,1.7-.66,2.53-1a.7.7,0,0,1,.92.35.7.7,0,0,1-.35.92c-.86.38-1.74.75-2.62,1.07A.67.67,0,0,1,562.05,83.35Z"/><path class="cls-6" d="M542.5,63.6a18.45,18.45,0,1,1,17.93-3.15h0a17.77,17.77,0,0,1-3.06,2l0,0-.17.09-.95-1.86a16.2,16.2,0,0,0,2.9-1.92h0A16.38,16.38,0,0,0,562,36.72c-.22-.31-.45-.61-.7-.91A16.36,16.36,0,1,0,543.2,61.63Z"/></g><g class="cls-8"><path class="cls-9" d="M24.74,288.3c15.71-23.86,49-36.64,49.86-72.4.33-13.54-9.08-24.42-4.85-37.69,28.4-89.07,162.53-28,220.46-9.21,24.12,7.84,53,16.57,78.91,15.43,29.86-1.32,57.6-16.74,87.16-19.64a69.27,69.27,0,0,1,25.57,2.1c29.82,8.31,56.15,39.53,66.07,74.22,8,28.11-2.23,55.87,10.39,83.4,13.45,29.35,39.94,49.73,46.62,83.61,8,40.67-22.6,76-55.48,77.14-20.93.7-59.72-2.94-77.5-17C450.31,451.16,429,450,403.79,450.69c-48,1.25-96.05,13-143.45,21.38-40.63,7.18-80.67,17.81-121.84,19.15-30.23,1-55.89,1.44-72.25-34.3C46.7,414.21-8.2,338.36,24.74,288.3Z"/><path class="cls-10" d="M46.54,295.55C57.67,279.33,85,277.82,101.7,268.6c30.79-17,2.25-45.56,10.75-71,6.86-20.5,29.63-40,53.46-36.34,16.87,2.61,31,11.95,46.35,18.27,14.82,6.09,30.88,9.8,46.6,13.21,34.62,7.51,70.72,12.07,106.31,10.56,27.62-1.17,53.29-14.86,80.63-17.43a66.7,66.7,0,0,1,23.66,1.86c27.59,7.38,51.95,35.09,61.13,65.88,7.44,25-2.07,49.6,9.61,74,12.45,26.05,37,44.14,43.13,74.22,7.42,36.1-20.9,67.49-51.32,68.48-19.36.62-55.25-2.61-71.7-15.08-20-15.19-39.72-16.19-63.06-15.61-44.44,1.11-88.87,11.55-132.73,19-37.59,6.37-74.63,15.8-112.72,17-28,.88-51.72,1.28-66.85-30.45C66.85,407.32,16.07,340,46.54,295.55Z"/></g><path class="cls-11" d="M148.41,469.07A7.65,7.65,0,0,1,136,466.64c-11.68-27.56-37.66-108.45,10.72-199.73,40.85-77.09,55.68-122.77,61-144a4.79,4.79,0,0,1,9.08-.66C236.17,169.41,286.64,329.36,148.41,469.07Z"/><g class="cls-12"><g class="cls-13"><path class="cls-14" d="M545.66,364.48,463.78,364a4.3,4.3,0,0,0-3.71,6.51l.41.68a4.32,4.32,0,0,0,3.69,2.09h81.46a4.3,4.3,0,0,0,4.3-4.3v-.23A4.3,4.3,0,0,0,545.66,364.48Z"/><path class="cls-15" d="M557.09,368.87V369a4.31,4.31,0,0,0,4.3,4.3h18.18a4.3,4.3,0,0,0,4.15-3.19h0a4.3,4.3,0,0,0-4.12-5.41l-18.18-.13A4.3,4.3,0,0,0,557.09,368.87Z"/></g><g class="cls-13"><path class="cls-16" d="M526,379.91l-62.18-.46a4.3,4.3,0,0,0-3.71,6.51l.41.69a4.31,4.31,0,0,0,3.69,2.08h61.77a4.3,4.3,0,0,0,4.3-4.29v-.23A4.3,4.3,0,0,0,526,379.91Z"/><path class="cls-17" d="M537.4,384.3v.14a4.29,4.29,0,0,0,4.3,4.29h18.17a4.28,4.28,0,0,0,4.15-3.18h0a4.29,4.29,0,0,0-4.12-5.41L541.73,380A4.31,4.31,0,0,0,537.4,384.3Z"/></g></g><path class="cls-18" d="M387,483.6h202.5V443.07H387C391.38,443.07,391.38,483.6,387,483.6Z"/><path class="cls-19" d="M589.54,473.46V454.91c0-6.54-4-11.84-8.94-11.84H387.9a7,7,0,0,1-7-7h0a2.13,2.13,0,0,1,2.13-2.13H593.61c4.83,0,12.5,7.59,12.5,17v25.9c0,8.83-7.44,16-12,16h-210a3.24,3.24,0,0,1-3.24-3.24h0a5.92,5.92,0,0,1,5.92-5.92H581.88C586.11,483.6,589.54,479.06,589.54,473.46Z"/><path class="cls-6" d="M583.92,452.1H394.05a.72.72,0,0,1,0-1.43H583.92a.72.72,0,1,1,0,1.43Z"/><path class="cls-6" d="M583.92,458.12H394.05a.72.72,0,0,1,0-1.44H583.92a.72.72,0,1,1,0,1.44Z"/><path class="cls-6" d="M583.92,464.14H394.05a.72.72,0,0,1,0-1.44H583.92a.72.72,0,0,1,0,1.44Z"/><path class="cls-6" d="M583.92,470.15H394.05a.72.72,0,0,1,0-1.43H583.92a.72.72,0,1,1,0,1.43Z"/><path class="cls-6" d="M583.92,476.17H394.05a.72.72,0,0,1,0-1.44H583.92a.72.72,0,1,1,0,1.44Z"/><rect class="cls-20" x="407.04" y="389.74" width="182.21" height="43.98" rx="20.3"/><rect class="cls-21" x="547.25" y="394.8" width="21.41" height="33.87" rx="9.45" transform="translate(1115.91 823.46) rotate(180)"/><rect class="cls-21" x="536.07" y="394.8" width="8.03" height="33.87" rx="3.54" transform="translate(1080.18 823.46) rotate(-180)"/><path class="cls-22" d="M72.42,169.73c-4.1,32.93-24.58,236,83.44,300.85a5.13,5.13,0,0,0,7.75-4c1.75-24.2,2.84-101.13-41.59-191.92-32-65.51-43.8-95-47.51-105.14A1.08,1.08,0,0,0,72.42,169.73Z"/><path class="cls-6" d="M163.61,468.43a1.86,1.86,0,0,1-1.65-1C107.73,367.76,82.89,244.39,84.2,240.18a1.88,1.88,0,0,1,3.66.84c.06,5.61,23.77,126,77.4,224.64a1.87,1.87,0,0,1-1.65,2.77ZM87.79,241.3Z"/><path class="cls-23" d="M370.15,460.64l85.48-163.76H438.12a3.83,3.83,0,0,1-3-6.25l91.11-111A6.42,6.42,0,0,1,537.65,184l-6.4,108.59a10.86,10.86,0,0,1-12.07,10.14L507,301.37,422.16,485.05a13.51,13.51,0,0,1-12.26,7.84H380.5Z"/><path class="cls-24" d="M299.48,345.79l60.35,134A22.11,22.11,0,0,0,380,492.89h31.11a11.36,11.36,0,0,0,9.93-5.85l1.11-2h0a8.91,8.91,0,0,1-7.93-4.85l-80.4-157.55Z"/><path class="cls-25" d="M342,338.56h0a13.21,13.21,0,0,0-19.17,3.05L234.05,474.92A38.33,38.33,0,0,1,202.15,492H189.66L179.5,462.74S262,336.26,283.25,317.13c0,0,21.17-19.08,42.05-4.66a34.87,34.87,0,0,1,12.26,15.45Z"/><path class="cls-26" d="M83,384s14.86-18.57,43.64-21.46c0,0,13.67,4.66,40.9,53.46s45.31,71.05,66.52,58.9l-1.75,2.91a32,32,0,0,1-27.41,15.49H193.16a40.12,40.12,0,0,1-32.58-16.7C139.38,447.16,96,388.59,83,384Z"/><path class="cls-6" d="M527.37,218.48h-.11a1,1,0,0,1-.83-1.05l.6-5.3a1,1,0,1,1,1.89.21l-.61,5.31A.94.94,0,0,1,527.37,218.48Z"/><path class="cls-6" d="M451.32,285.41a1,1,0,0,1-.58-.2.94.94,0,0,1-.17-1.33l75.23-97.76a3.26,3.26,0,0,1,5.82,2.36l-1.33,11.72a1,1,0,0,1-1.89-.22l1.33-11.72a1.36,1.36,0,0,0-2.43-1L452.07,285A1,1,0,0,1,451.32,285.41Z"/><path class="cls-6" d="M280.65,387.88a.92.92,0,0,1-.53-.16,1,1,0,0,1-.26-1.32l38.91-57.67a7,7,0,0,1,12.06.91,1,1,0,0,1-.45,1.27,1,1,0,0,1-1.27-.45,5.06,5.06,0,0,0-8.77-.67l-38.9,57.67A1,1,0,0,1,280.65,387.88Z"/><path class="cls-6" d="M270.54,402.87a.92.92,0,0,1-.53-.16,1,1,0,0,1-.26-1.32l2.49-3.7a1,1,0,1,1,1.58,1.06l-2.49,3.7A1,1,0,0,1,270.54,402.87Z"/><path class="cls-27" d="M548,162.39c.62,37.76-1,270-131.06,330.16a5.83,5.83,0,0,1-8.26-5.5c1-27.59,9.1-114.75,70.43-212,44.24-70.2,61.13-102.17,66.55-113.15A1.23,1.23,0,0,1,548,162.39Z"/><path class="cls-6" d="M408.68,488.57a1.56,1.56,0,0,1-.87-.27,1.51,1.51,0,0,1-.38-2.11c38.46-55.56,67.43-117.83,85-160.28,19.45-47.1,29.83-81.79,30.07-84.73a1.52,1.52,0,0,1,3-.4c.5,2.54-11.53,40.7-29.63,84.7-17.69,43-47,106.14-85.93,162.44A1.51,1.51,0,0,1,408.68,488.57ZM522.5,241.36h0Z"/><path class="cls-28" d="M437.48,492.14c31.6,4.07,124,2.12,148.57-153a4.34,4.34,0,0,0-7.67-3.4c-13,16.33-36.28,44.16-56.92,53.56-63.93,29.11-85.15,70.9-91.8,90.27A9.56,9.56,0,0,0,437.48,492.14Z"/><path class="cls-6" d="M434.11,488.19a1.51,1.51,0,0,1-.51-2.94c85.69-30.78,125.69-103.82,126.08-104.56a1.52,1.52,0,0,1,2.68,1.44c-.1.19-10.24,18.91-31,41.19C512.3,443.88,480,471.81,434.62,488.1A1.52,1.52,0,0,1,434.11,488.19Z"/><path class="cls-29" d="M59.35,118.15s.06-.42.2-1.18a.6.6,0,0,1,.7-.49.61.61,0,0,1,.46.36c.31-.25.68-.53,1.11-.85a.61.61,0,0,1,.72,1c-1,.74-1.69,1.32-2,1.59l-.19.16-1.19.92Zm1-5.12c.28-1.29.6-2.6.94-3.91a.61.61,0,0,1,.75-.43.6.6,0,0,1,.43.74c-.33,1.29-.65,2.59-.93,3.86a.62.62,0,0,1-.73.47l-.16-.06A.62.62,0,0,1,60.34,113ZM65,114.58a.61.61,0,0,1,.21-.84,38.89,38.89,0,0,1,3.57-1.92.61.61,0,0,1,.81.29.6.6,0,0,1-.29.81,39,39,0,0,0-3.46,1.86.61.61,0,0,1-.61,0A.69.69,0,0,1,65,114.58Zm7.17-3.5a.61.61,0,0,1,.39-.77,26.23,26.23,0,0,1,4-1,.61.61,0,1,1,.2,1.2,25.07,25.07,0,0,0-3.78.93.66.66,0,0,1-.48,0A.63.63,0,0,1,72.15,111.08Zm-9.78-5.82c.39-1.28.8-2.57,1.23-3.82a.61.61,0,0,1,1.15.39c-.42,1.24-.83,2.51-1.21,3.78a.61.61,0,0,1-.76.41l-.12,0A.61.61,0,0,1,62.37,105.26ZM80,109.65a.6.6,0,0,1,.62-.59,18.77,18.77,0,0,1,2.92.31l1.11.19a.61.61,0,0,1,.51.69.59.59,0,0,1-.69.51c-.38-.05-.76-.12-1.15-.19a17.67,17.67,0,0,0-2.73-.29.64.64,0,0,1-.28-.07A.62.62,0,0,1,80,109.65Zm14.37,6.29a.62.62,0,0,1,.61-.38,5.77,5.77,0,0,1,2.13-1.09.62.62,0,0,1,.76.41.6.6,0,0,1-.41.76,3.7,3.7,0,0,0-2.28,1.53l-1.08-.56Zm-6.45-5.48a.61.61,0,0,1,.6-.62,14.69,14.69,0,0,0,3.78-.52.61.61,0,0,1,.34,1.17,15.79,15.79,0,0,1-4.1.57.6.6,0,0,1-.3-.07A.61.61,0,0,1,87.89,110.46ZM65,97.66c.48-1.26,1-2.51,1.52-3.72a.61.61,0,0,1,.8-.32.62.62,0,0,1,.32.81c-.52,1.19-1,2.43-1.51,3.67a.61.61,0,0,1-.78.35l-.08,0A.61.61,0,0,1,65,97.66Zm30.85,14.56c.56-1.43,1-2.69,1.4-3.73a.61.61,0,0,1,1.15.41c-.37,1-.85,2.32-1.41,3.77a.6.6,0,0,1-.79.34l-.07,0A.61.61,0,0,1,95.82,112.22Zm4.75,2.19a.61.61,0,0,1,.5-.7c1.16-.18,2.43-.41,3.86-.76a.61.61,0,0,1,.3,1.18c-1.48.37-2.78.6-4,.79a.64.64,0,0,1-.39-.07A.6.6,0,0,1,100.57,114.41ZM95.5,108.5a.62.62,0,0,1,.09-.86,9.71,9.71,0,0,0,2-2.26c.17-.23.3-.42.41-.54l.15-.16a.59.59,0,0,1,.84.08.65.65,0,0,1-.07.89c-.09.1-.2.25-.33.43a11.25,11.25,0,0,1-2.28,2.52.61.61,0,0,1-.67.06A.55.55,0,0,1,95.5,108.5ZM68.17,90.29c.53-1.08,1.08-2.14,1.64-3.17l.22-.4a.61.61,0,0,1,.82-.24h0a.6.6,0,0,1,.24.83l-.21.4c-.55,1-1.09,2.05-1.61,3.12a.63.63,0,0,1-.82.28l0,0A.61.61,0,0,1,68.17,90.29Zm40.15,22.29a.61.61,0,0,1,.36-.78,37.35,37.35,0,0,0,3.61-1.55.61.61,0,0,1,.53,1.09,36.24,36.24,0,0,1-3.72,1.6.58.58,0,0,1-.5,0A.57.57,0,0,1,108.32,112.58Zm7.21-3.38a.61.61,0,0,1,.2-.84l.73-.45a24.81,24.81,0,0,0,2.49-1.77.61.61,0,0,1,.86.1.6.6,0,0,1-.1.85,28.47,28.47,0,0,1-2.6,1.86l-.74.45a.61.61,0,0,1-.61,0A.69.69,0,0,1,115.53,109.2ZM72.26,84.1a.61.61,0,0,1-.19-.84c.72-1.16,1.48-2.28,2.24-3.35a.61.61,0,0,1,.86-.14.62.62,0,0,1,.14.85c-.76,1-1.5,2.15-2.21,3.28a.61.61,0,0,1-.81.22Zm49.58,20.25a.6.6,0,0,1,0-.86,24.57,24.57,0,0,0,2.41-3.06.62.62,0,0,1,.85-.16.61.61,0,0,1,.17.84,27.16,27.16,0,0,1-2.53,3.2.61.61,0,0,1-.74.13Zm-45-26.77a.61.61,0,0,1-.08-.86c.87-1,1.77-2.06,2.69-3a.61.61,0,0,1,.86,0,.6.6,0,0,1,0,.86c-.9.92-1.78,1.91-2.63,2.94a.6.6,0,0,1-.76.14Zm49.29,19.47a28,28,0,0,0,1.44-3.63.61.61,0,1,1,1.16.37,29.57,29.57,0,0,1-1.5,3.79.61.61,0,0,1-.81.28h0A.61.61,0,0,1,126.15,97.05ZM82.34,71.79a.61.61,0,0,1,.06-.86c1-.89,2.1-1.73,3.18-2.5a.61.61,0,0,1,.71,1c-1.05.75-2.09,1.57-3.09,2.43a.61.61,0,0,1-.69.08A.75.75,0,0,1,82.34,71.79Zm46.18,17.84a17.55,17.55,0,0,0,.31-3.66l-.45-1.73a.61.61,0,0,1,.44-.74.6.6,0,0,1,.74.44l.43,1.67h0a15.86,15.86,0,0,1-.26,4.22.61.61,0,0,1-.7.5.53.53,0,0,1-.19-.06A.6.6,0,0,1,128.52,89.63ZM88.76,67.08a.62.62,0,0,1,.23-.83,37.18,37.18,0,0,1,3.63-1.81.61.61,0,0,1,.48,1.12,35.69,35.69,0,0,0-3.5,1.75.61.61,0,0,1-.6,0A.66.66,0,0,1,88.76,67.08ZM96,63.8a.61.61,0,0,1,.4-.76,37,37,0,0,1,3.93-1,.61.61,0,1,1,.23,1.2,35.13,35.13,0,0,0-3.8.94.59.59,0,0,1-.47,0A.57.57,0,0,1,96,63.8Zm31.36,16.58-1-3.86a.61.61,0,1,1,1.18-.31l1,3.86a.61.61,0,0,1-.43.75.63.63,0,0,1-.45-.06A.64.64,0,0,1,127.38,80.38ZM103.81,62.17a.61.61,0,0,1,.55-.66c1.32-.11,2.68-.16,4-.15A.62.62,0,0,1,109,62a.61.61,0,0,1-.62.6c-1.33,0-2.65,0-3.92.14a.53.53,0,0,1-.35-.07A.6.6,0,0,1,103.81,62.17Zm21.58,10.48-1-3.86a.6.6,0,0,1,.44-.74.61.61,0,0,1,.74.43l1,3.87a.61.61,0,0,1-.44.74.62.62,0,0,1-.74-.44ZM111.77,62.14a.61.61,0,0,1,.67-.55c1.3.13,2.64.32,4,.56a.61.61,0,1,1-.22,1.2c-1.31-.23-2.62-.42-3.9-.54a.63.63,0,0,1-.23-.08A.59.59,0,0,1,111.77,62.14Zm7.86,1.31a.61.61,0,0,1,.74-.44c1.23.32,2.5.68,3.77,1.09l.32.1.11.42a.6.6,0,0,1-.44.74.61.61,0,0,1-.6-.18c-1.17-.37-2.33-.7-3.46-1l-.15,0A.62.62,0,0,1,119.63,63.45Z"/><path class="cls-30" d="M126.26,77.48S124.8,95.1,111.74,95.42s-26.3-2.59-30.56,1.84c0,0,9.35-33.29,42.86-25.61Z"/><path class="cls-31" d="M163.15,82.57s4.71,16.71.48,20.8c-4,3.89-41.48,15.78-45.13,16.93a.32.32,0,0,1-.4-.19h0a4.46,4.46,0,0,1,.34-4c3.63-5.83,14.6-23.17,19.6-27.34C144.08,83.7,163.15,82.57,163.15,82.57Z"/><path class="cls-6" d="M131.06,113.85a.39.39,0,0,0,.32,0c.2-.07,20.61-6.94,29.28-10.23a4.18,4.18,0,0,0,2.68-3.68,60.32,60.32,0,0,0-.56-12.59.4.4,0,0,0-.79.12,60.54,60.54,0,0,1,.55,12.43,3.36,3.36,0,0,1-2.17,3c-8.65,3.29-29,10.15-29.25,10.22a.4.4,0,0,0-.25.51A.35.35,0,0,0,131.06,113.85Z"/><path class="cls-32" d="M148,45.17s-8.22-15.29-14.11-15.3c-5.59,0-40.8,17.47-44.22,19.18a.32.32,0,0,0-.16.41h0a4.45,4.45,0,0,0,3,2.65c6.66,1.68,26.6,6.53,33.09,6.06C133.53,57.6,148,45.17,148,45.17Z"/><path class="cls-6" d="M103.41,45.43a.38.38,0,0,0,.36,0c.2-.09,19.63-9.32,28.14-13a3.37,3.37,0,0,1,3.63.63,61.26,61.26,0,0,1,8.23,9.32.4.4,0,0,0,.56.1.39.39,0,0,0,.1-.55,62.14,62.14,0,0,0-8.35-9.45,4.15,4.15,0,0,0-4.48-.78c-8.53,3.65-28,12.89-28.17,13a.39.39,0,0,0-.19.53A.42.42,0,0,0,103.41,45.43Z"/><path class="cls-33" d="M217.13,60.51a89.45,89.45,0,0,1-24,14.49c-29.74,12.12-53.69,15.88-60.53,16.77a3.4,3.4,0,0,1-3.19-1.39,60,60,0,0,1-10.94-26.47,5,5,0,0,1,2-4.75c6.47-4.72,25.87-18,54.4-29.41A90.1,90.1,0,0,1,202,23.54C212.08,36.63,215.62,51.8,217.13,60.51Z"/><path class="cls-34" d="M202,23.54a93.13,93.13,0,0,1,37.64,5,1.68,1.68,0,0,1,.92,2.3,92.92,92.92,0,0,1-23.42,29.64C215.62,51.8,212.08,36.63,202,23.54Z"/><ellipse class="cls-35" cx="186" cy="51.61" rx="15.06" ry="16.16" transform="translate(-5.79 73.44) rotate(-22)"/><path class="cls-36" d="M181.39,39.09c-6.14,2.49-9,9.85-6.3,16.44s9.81,9.93,16,7.45,9-9.85,6.3-16.44S187.54,36.61,181.39,39.09Z"/><path class="cls-6" d="M191.67,58.56a.38.38,0,0,0,.44,0A10.08,10.08,0,0,0,194.91,47a10.48,10.48,0,0,0-1.71-2.84.4.4,0,0,0-.61.51,9.74,9.74,0,0,1,1.58,2.63,9.27,9.27,0,0,1-2.56,10.63.4.4,0,0,0-.06.56A.23.23,0,0,0,191.67,58.56Z"/><path class="cls-37" d="M153.93,53.05c-5.09,2.06-7.43,8.16-5.22,13.63s8.13,8.23,13.23,6.17,7.43-8.16,5.22-13.62S159,51,153.93,53.05Z"/><path class="cls-38" d="M154.89,54.68c-4.06,1.64-5.92,6.51-4.16,10.86s6.48,6.56,10.54,4.92,5.92-6.5,4.16-10.86S159,53,154.89,54.68Z"/><path class="cls-6" d="M161.62,67.66a.38.38,0,0,0,.44,0A6.8,6.8,0,0,0,164,59.83a7.25,7.25,0,0,0-1.15-1.91.4.4,0,0,0-.57,0,.41.41,0,0,0,0,.56,6.3,6.3,0,0,1,1,1.69A6,6,0,0,1,161.56,67a.39.39,0,0,0-.06.56A.23.23,0,0,0,161.62,67.66Z"/><path class="cls-39" d="M187.59,384.37a.94.94,0,0,1-.59-.22l-1.74-1.5a.92.92,0,0,1,1.2-1.39l1.73,1.5a.92.92,0,0,1-.6,1.61ZM181,378.65a.92.92,0,0,1-.6-.23l-2.06-1.83a.92.92,0,0,1,1.22-1.37l2,1.83a.91.91,0,0,1,.08,1.29A.89.89,0,0,1,181,378.65Zm-6.8-6.13a.93.93,0,0,1-.62-.24l-2-1.87a.91.91,0,0,1,1.24-1.34l2,1.86a.91.91,0,0,1,.05,1.29A.89.89,0,0,1,174.23,372.52Zm-6.69-6.25a.91.91,0,0,1-.63-.26l-2-1.9a.92.92,0,0,1,1.27-1.32l2,1.9a.92.92,0,0,1-.63,1.58ZM161,359.89a.91.91,0,0,1-.65-.27l-1.94-1.95a.91.91,0,0,1,0-1.29.93.93,0,0,1,1.3,0c.64.65,1.28,1.3,1.93,1.94a.93.93,0,0,1,0,1.3A1,1,0,0,1,161,359.89Zm-6.42-6.52a.94.94,0,0,1-.66-.28c-.64-.66-1.27-1.33-1.9-2a.92.92,0,0,1,0-1.3.93.93,0,0,1,1.3,0q.93,1,1.89,2a.91.91,0,0,1,0,1.29A.93.93,0,0,1,154.56,353.37Zm-6.27-6.67a.91.91,0,0,1-.67-.3c-.62-.67-1.24-1.35-1.85-2a.92.92,0,0,1,1.36-1.23l1.84,2a.92.92,0,0,1-.68,1.53Zm-6.08-6.82a.92.92,0,0,1-.7-.32c-.6-.69-1.2-1.38-1.79-2.08a.91.91,0,1,1,1.39-1.19l1.79,2.07a.91.91,0,0,1-.1,1.29A.89.89,0,0,1,142.21,339.88Zm-5.9-7a1,1,0,0,1-.71-.34l-1.72-2.13a.91.91,0,1,1,1.42-1.15c.57.71,1.14,1.42,1.72,2.12a.92.92,0,0,1-.13,1.29A.9.9,0,0,1,136.31,332.89Zm-5.67-7.17a.89.89,0,0,1-.72-.36l-1.66-2.19a.91.91,0,1,1,1.46-1.1l1.65,2.18a.92.92,0,0,1-.73,1.47Zm-5.42-7.36a.9.9,0,0,1-.74-.38c-.54-.75-1.06-1.51-1.59-2.26a.92.92,0,0,1,1.51-1l1.57,2.24a.91.91,0,0,1-.75,1.44Zm-5.14-7.56a.93.93,0,0,1-.77-.42l-1.49-2.32a.92.92,0,0,1,1.55-1c.48.77,1,1.54,1.47,2.3a.92.92,0,0,1-.26,1.27A.94.94,0,0,1,120.08,310.8ZM115.26,303a.91.91,0,0,1-.79-.45c-.47-.79-.93-1.59-1.39-2.39a.92.92,0,0,1,.35-1.25.91.91,0,0,1,1.24.35c.45.79.91,1.57,1.37,2.36a.92.92,0,0,1-.78,1.38Zm-4.46-8a.92.92,0,0,1-.81-.49q-.64-1.23-1.26-2.46a.91.91,0,1,1,1.63-.82c.41.81.83,1.62,1.25,2.43a.9.9,0,0,1-.38,1.23A1,1,0,0,1,110.8,295Zm-4-8.22a.91.91,0,0,1-.83-.53c-.38-.84-.76-1.68-1.13-2.52a.92.92,0,1,1,1.68-.74c.36.84.74,1.67,1.11,2.5a.91.91,0,0,1-.45,1.21A.84.84,0,0,1,106.77,286.81Zm-3.56-8.42a.94.94,0,0,1-.86-.59c-.33-.86-.65-1.72-1-2.59a.91.91,0,0,1,1.72-.62q.47,1.28,1,2.55a.91.91,0,0,1-.52,1.18A1,1,0,0,1,103.21,278.39Zm-3-8.64a.91.91,0,0,1-.87-.65q-.31-1-.6-2l-1.72.13a.93.93,0,0,1-1-.85.91.91,0,0,1,.86-1c.9-.06,1.8-.14,2.7-.23a.9.9,0,0,1,1,.81.86.86,0,0,1-.12.55c.2.67.4,1.34.61,2a.92.92,0,0,1-.61,1.15A1.26,1.26,0,0,1,100.19,269.75Zm-9.65-2.37h0c-.93,0-1.85-.07-2.78-.13a.92.92,0,0,1,.13-1.83c.9.07,1.8.11,2.7.13a.92.92,0,0,1,.89.94A.91.91,0,0,1,90.54,267.38Zm-9.1-.89h-.16c-.92-.16-1.84-.34-2.73-.53a.92.92,0,1,1,.39-1.79c.88.19,1.76.36,2.65.52a.91.91,0,0,1,.75,1.05A.92.92,0,0,1,81.44,266.49Zm24.56-.4a.92.92,0,0,1-.17-1.82c.89-.17,1.78-.35,2.66-.55a.91.91,0,0,1,1.09.69.9.9,0,0,1-.69,1.09c-.9.21-1.81.4-2.71.57Zm-33.43-1.81a.93.93,0,0,1-.29,0l-.6-.2c-.68-.24-1.36-.49-2-.75a.91.91,0,0,1,.66-1.7c.65.25,1.31.49,2,.72l.58.19a.92.92,0,0,1-.29,1.79Zm42.31-.41a.91.91,0,0,1-.27-1.79l2.58-.84a.9.9,0,0,1,1.16.56.92.92,0,0,1-.57,1.17c-.87.3-1.75.58-2.63.86A.84.84,0,0,1,114.88,263.87Zm-17-3a.93.93,0,0,1-.9-.72c-.2-.9-.39-1.8-.57-2.71a.92.92,0,0,1,1.8-.35c.17.89.36,1.78.56,2.67a.91.91,0,0,1-.69,1.09Zm25.63-.2a.92.92,0,0,1-.36-1.76c.83-.36,1.66-.73,2.48-1.11a.93.93,0,0,1,1.22.45.91.91,0,0,1-.45,1.21c-.84.39-1.68.77-2.53,1.13A.94.94,0,0,1,123.46,260.71Zm-59.3,0a1,1,0,0,1-.43-.11c-.81-.43-1.63-.88-2.43-1.34a.91.91,0,1,1,.92-1.58c.77.45,1.57.88,2.36,1.3a.91.91,0,0,1,.39,1.23A.9.9,0,0,1,64.16,260.71Zm67.52-4a.92.92,0,0,1-.44-1.72c.79-.43,1.58-.88,2.36-1.34a.91.91,0,0,1,.93,1.57c-.8.47-1.6.93-2.41,1.38A1,1,0,0,1,131.68,256.69Zm-75.27-.82a.9.9,0,0,1-.54-.18c-.74-.54-1.49-1.12-2.21-1.7a.91.91,0,1,1,1.15-1.42c.7.56,1.42,1.11,2.14,1.65a.91.91,0,0,1-.54,1.65Zm39.82-4a.92.92,0,0,1-.91-.8c-.11-.91-.22-1.83-.31-2.75a.92.92,0,0,1,.82-1,.91.91,0,0,1,1,.82c.09.9.19,1.8.31,2.7a.93.93,0,0,1-.79,1Zm43.24,0a.91.91,0,0,1-.52-1.67c.75-.51,1.49-1,2.22-1.57a.92.92,0,0,1,1.08,1.48c-.75.54-1.5,1.08-2.27,1.6A.9.9,0,0,1,139.47,251.89Zm-90-1.95a.93.93,0,0,1-.64-.26c-.66-.65-1.31-1.32-1.94-2a.92.92,0,1,1,1.33-1.26c.62.66,1.25,1.31,1.9,1.94a.91.91,0,0,1,0,1.29A.9.9,0,0,1,49.45,249.94Zm97.3-3.58a.93.93,0,0,1-.7-.33.91.91,0,0,1,.11-1.29c.69-.58,1.37-1.18,2.05-1.78a.91.91,0,1,1,1.22,1.36c-.69.62-1.38,1.22-2.09,1.82A.94.94,0,0,1,146.75,246.36ZM43.37,243.11a.92.92,0,0,1-.72-.36c-.57-.73-1.13-1.47-1.67-2.22a.92.92,0,0,1,1.49-1.07c.53.73,1.07,1.46,1.62,2.17a.91.91,0,0,1-.16,1.28A.89.89,0,0,1,43.37,243.11Zm52.16-.33a.91.91,0,0,1-.91-.89c0-.63,0-1.26,0-1.88v-.9a.92.92,0,0,1,.92-.9h0a.91.91,0,0,1,.9.92V240c0,.62,0,1.23,0,1.85a.91.91,0,0,1-.89.93Zm57.86-2.72a.91.91,0,0,1-.67-1.53c.61-.67,1.22-1.34,1.8-2a.91.91,0,0,1,1.39,1.19c-.6.71-1.22,1.4-1.85,2.08A.9.9,0,0,1,153.39,240.06ZM38.21,235.55a.93.93,0,0,1-.79-.44c-.48-.8-.94-1.6-1.38-2.41a.92.92,0,1,1,1.6-.89c.44.8.89,1.58,1.35,2.36a.91.91,0,0,1-.78,1.38Zm57.65-1.91h-.09a.93.93,0,0,1-.83-1q.14-1.38.33-2.76a.91.91,0,1,1,1.81.24c-.12.9-.23,1.8-.31,2.7A.92.92,0,0,1,95.86,233.64Zm63.24-.72a.91.91,0,0,1-.76-1.42c.51-.75,1-1.52,1.45-2.28a.91.91,0,0,1,1.57.94c-.47.79-1,1.58-1.5,2.36A.93.93,0,0,1,159.1,232.92ZM34,227.44a.93.93,0,0,1-.84-.54c-.38-.85-.74-1.7-1.09-2.56a.91.91,0,1,1,1.69-.69c.34.84.7,1.67,1.07,2.5a.92.92,0,0,1-.46,1.21A1,1,0,0,1,34,227.44Zm129.48-2.54a.87.87,0,0,1-.35-.07.91.91,0,0,1-.49-1.2c.34-.83.66-1.67.95-2.51a.91.91,0,0,1,1.73.59c-.3.88-.63,1.76-1,2.63A.92.92,0,0,1,163.46,224.9Zm-66.13-.28a.76.76,0,0,1-.21,0,.9.9,0,0,1-.68-1.09c.21-.91.43-1.81.68-2.7a.91.91,0,0,1,1.76.48c-.23.87-.46,1.75-.66,2.63A.92.92,0,0,1,97.33,224.62ZM30.7,218.9a.91.91,0,0,1-.87-.64c-.28-.88-.55-1.77-.81-2.66a.93.93,0,0,1,.63-1.13.92.92,0,0,1,1.14.63c.24.87.51,1.74.78,2.6a.91.91,0,0,1-.59,1.15A.92.92,0,0,1,30.7,218.9ZM166,216.12h-.14a.92.92,0,0,1-.77-1c.13-.87.23-1.76.29-2.65a.91.91,0,1,1,1.82.12c-.06.93-.16,1.88-.3,2.8A.9.9,0,0,1,166,216.12Zm-66-.25a.87.87,0,0,1-.32-.06.92.92,0,0,1-.54-1.18q.5-1.31,1-2.58a.92.92,0,0,1,1.2-.49.93.93,0,0,1,.48,1.21c-.36.82-.69,1.66-1,2.51A.93.93,0,0,1,100,215.87ZM28.39,210a.91.91,0,0,1-.89-.73c-.19-.91-.35-1.82-.51-2.73a.92.92,0,1,1,1.81-.3c.15.89.31,1.78.49,2.67a.91.91,0,0,1-.71,1.07A.65.65,0,0,1,28.39,210Zm75.43-2.47a1,1,0,0,1-.44-.11.93.93,0,0,1-.36-1.25c.46-.81.93-1.62,1.42-2.4a.91.91,0,1,1,1.55,1c-.47.76-.93,1.54-1.37,2.33A.91.91,0,0,1,103.82,207.57Zm62.26-.57a.92.92,0,0,1-.91-.81c-.1-.88-.25-1.77-.42-2.63a.9.9,0,0,1,.71-1.08.91.91,0,0,1,1.08.71c.19.91.34,1.85.45,2.78a.91.91,0,0,1-.8,1Zm-139-6a.91.91,0,0,1-.91-.84c-.08-.92-.15-1.84-.2-2.77a.93.93,0,0,1,.87-1,.92.92,0,0,1,1,.87c.05.9.11,1.8.19,2.7a.93.93,0,0,1-.83,1Zm81.79-1a.84.84,0,0,1-.56-.2.91.91,0,0,1-.16-1.28c.58-.73,1.18-1.45,1.79-2.15a.92.92,0,0,1,1.29-.09.93.93,0,0,1,.09,1.3c-.6.67-1.18,1.37-1.73,2.07A.91.91,0,0,1,108.88,200Zm54.86-1.78a.93.93,0,0,1-.84-.55c-.35-.82-.74-1.63-1.16-2.4a.92.92,0,0,1,1.61-.87c.44.82.86,1.67,1.23,2.55a.91.91,0,0,1-.48,1.2A.89.89,0,0,1,163.74,198.18Zm-48.6-4.88a.91.91,0,0,1-.6-1.6c.69-.61,1.41-1.22,2.14-1.79a.91.91,0,1,1,1.13,1.43c-.7.56-1.39,1.14-2.06,1.73A.88.88,0,0,1,115.14,193.3Zm-88.31-1.45h0a.92.92,0,0,1-.89-.94c0-.93.07-1.85.14-2.78a.91.91,0,1,1,1.82.12c-.06.9-.1,1.81-.13,2.71A.91.91,0,0,1,26.83,191.85Zm132-1.34a.89.89,0,0,1-.67-.3,23.39,23.39,0,0,0-1.9-1.83.92.92,0,0,1,1.2-1.39,25.4,25.4,0,0,1,2,2,.92.92,0,0,1,0,1.3A.93.93,0,0,1,158.84,190.51Zm-36.3-2.57a.9.9,0,0,1-.79-.46.92.92,0,0,1,.34-1.25c.81-.46,1.64-.9,2.48-1.31a.92.92,0,0,1,.8,1.65c-.8.39-1.6.81-2.38,1.25A.92.92,0,0,1,122.54,187.94Zm29-2.79a.85.85,0,0,1-.38-.09,23.64,23.64,0,0,0-2.46-1,.92.92,0,0,1-.58-1.16.91.91,0,0,1,1.15-.58,23.51,23.51,0,0,1,2.65,1,.92.92,0,0,1,.45,1.22A.91.91,0,0,1,151.5,185.15Zm-20.57-.82a.91.91,0,0,1-.26-1.79c.9-.27,1.81-.51,2.72-.71a.92.92,0,1,1,.39,1.79c-.86.19-1.73.42-2.59.67A.78.78,0,0,1,130.93,184.33Zm11.75-1.4h-.07c-.86-.07-1.76-.08-2.66-.07a.92.92,0,0,1,0-1.83c1,0,1.91,0,2.83.07a.92.92,0,0,1-.06,1.83Zm-115.06-.19h-.13a.91.91,0,0,1-.78-1c.13-.92.27-1.83.43-2.74a.91.91,0,1,1,1.8.31c-.15.89-.29,1.78-.41,2.68A.92.92,0,0,1,27.62,182.74Zm1.71-9a.76.76,0,0,1-.21,0,.91.91,0,0,1-.68-1.1c.22-.9.45-1.8.69-2.69a.92.92,0,0,1,1.12-.64.9.9,0,0,1,.64,1.12c-.23.88-.46,1.76-.67,2.64A.92.92,0,0,1,29.33,173.76ZM31.89,165a1,1,0,0,1-.3,0,.92.92,0,0,1-.57-1.16q.45-1.32.93-2.61a.92.92,0,0,1,1.72.63c-.32.85-.63,1.71-.92,2.57A.91.91,0,0,1,31.89,165Zm3.33-8.53a.94.94,0,0,1-.37-.07.92.92,0,0,1-.47-1.21c.37-.84.75-1.68,1.15-2.52a.91.91,0,1,1,1.65.78c-.38.82-.76,1.65-1.13,2.48A.9.9,0,0,1,35.22,156.45Zm4-8.21a.92.92,0,0,1-.81-1.35c.44-.81.89-1.62,1.35-2.42a.91.91,0,1,1,1.59.9c-.45.79-.89,1.59-1.32,2.39A.93.93,0,0,1,39.24,148.24Zm4.64-7.89a.92.92,0,0,1-.49-.14.93.93,0,0,1-.28-1.27c.5-.77,1-1.54,1.52-2.31a.92.92,0,1,1,1.52,1c-.51.75-1,1.51-1.49,2.28A.93.93,0,0,1,43.88,140.35Zm5.2-7.53a.92.92,0,0,1-.73-1.46c.54-.74,1.1-1.48,1.66-2.21A.92.92,0,0,1,51.3,129a.91.91,0,0,1,.16,1.28c-.55.72-1.1,1.45-1.64,2.18A.93.93,0,0,1,49.08,132.82Zm5.68-7.17a1,1,0,0,1-.59-.22.92.92,0,0,1-.1-1.29c.59-.7,1.19-1.4,1.8-2.09a.92.92,0,0,1,1.29-.09.93.93,0,0,1,.09,1.3c-.61.68-1.2,1.37-1.79,2.06A.9.9,0,0,1,54.76,125.65Z"/><path class="cls-40" d="M16.48,417.24c-1.72,2.55-8.57,60.33-9.65,81.66a2.52,2.52,0,0,0,2.53,2.65h0a2.53,2.53,0,0,0,2.5-2.14l12.53-80.33Z"/><path class="cls-41" d="M71.59,417.24c1.72,2.55,8.58,60.33,9.65,81.66a2.52,2.52,0,0,1-2.53,2.65h0a2.54,2.54,0,0,1-2.5-2.14L63.68,419.08Z"/><path class="cls-42" d="M6.12,412.73v.63c0,4.53,3.86,8.25,8.75,8.33l58,1c4.81.08,8.83-3.4,9.07-7.86l0-.58c.24-4.65-3.71-8.57-8.74-8.66l-58-1C10.24,404.45,6.16,408.13,6.12,412.73Z"/><path class="cls-43" d="M118.84,496.8c-10.3,0-14.86-.88-16.9-1.68a3.91,3.91,0,0,0,3.81,3h36.44a1.77,1.77,0,0,0,1.71-2.24C139.74,496.24,130.92,496.8,118.84,496.8Z"/><path class="cls-44" d="M143.9,495.9a1.87,1.87,0,0,0-.3-.62c-2.78-3.54-8.35-9.11-15.94-9-11.11.16-15,1.36-23.62.07l-2,6.75a3.87,3.87,0,0,0-.07,2c2,.8,6.6,1.68,16.9,1.68C130.92,496.8,139.74,496.24,143.9,495.9Z"/><path class="cls-45" d="M106.54,479.07l-2.5,8.51s5.54,2.52,10.41.49l1-7.36Z"/><path class="cls-46" d="M182.07,491.45c-8,6.45-12.13,8.62-14.23,9.27a3.91,3.91,0,0,0,4.86,0l28.4-22.83a1.77,1.77,0,0,0-.06-2.81C198,477.92,191.49,483.88,182.07,491.45Z"/><path class="cls-47" d="M201,475.05a2,2,0,0,0-.62-.29c-4.37-1-12.19-1.84-18,3-8.57,7.08-10.84,10.44-18.37,14.85l2.62,6.51a3.81,3.81,0,0,0,1.2,1.6c2.1-.65,6.2-2.82,14.23-9.27C191.49,483.88,198,477.92,201,475.05Z"/><path class="cls-48" d="M53.05,382.18s61.67,5,74.32,11-10.32,89.43-10.32,89.43-3.44,1.65-11.11-.73c0,0,7.86-61.59,2-74.95L41.18,396Z"/><path class="cls-49" d="M157.89,480.88c.57.52,6.13,11.73,6.13,11.73s6.18-1.34,7.44-5.26l-5.56-10.11Z"/><path class="cls-50" d="M15.91,381.67A31.21,31.21,0,0,0,14,392.93a16.91,16.91,0,0,0,16.14,16.54L103,412.8a3.5,3.5,0,0,1,3.23,2.62c1.71,6.63,10.09,27,51,67.58a3.3,3.3,0,0,0,4.08.45l5.83-3.68a1.36,1.36,0,0,0,.44-1.82l-42.45-72.48a16.39,16.39,0,0,0-10-7.4L53.05,382.18Z"/><path class="cls-51" d="M100.49,270.07S80,282.25,72,288.94l16.46,9.18s8.9-10.27,17.37-14.55Z"/><path class="cls-52" d="M14.59,382.18s19.68,4.8,38.46,0c0,0,26.29-35.33,36.46-44.95,0,0,16.22,25.6,52.33,29.22l2-4.5s-28.74-13.25-37.59-33.6S93.85,299.3,85.8,294c-5-3.31-8-5.57-9.56-6.8a2.58,2.58,0,0,0-2.95-.19C64.75,292.21,24.54,319.74,14.59,382.18Z"/><path class="cls-53" d="M88.44,336.31a.81.81,0,0,1-.66-.33,80,80,0,0,1-9.85-17.45.84.84,0,1,1,1.57-.6,77.64,77.64,0,0,0,9.61,17,.84.84,0,0,1-.16,1.18A.87.87,0,0,1,88.44,336.31Z"/><path class="cls-54" d="M139.67,359.6l4.06-1.08,12.34-2.86a5.72,5.72,0,0,1,4.34.74L171,363.07l-29.3-.05Z"/><path class="cls-55" d="M120.53,261.13c.06.4-5.26,26.46-5.26,26.46l-14.81-3.35,1.37-25.45S119.57,254.47,120.53,261.13Z"/><path class="cls-56" d="M105.16,264.46l-1.77,13.34a2.17,2.17,0,0,0,0,.51c.15,1.05.93,4.6,4.52,3.59,3.26-.93,6.25-1.72,8.32-1.09a1.88,1.88,0,0,1,1.29,2.17,80.33,80.33,0,0,1-3.41,12.14,1.87,1.87,0,0,1-2.28,1.11,60.74,60.74,0,0,1-13-5.34,1.89,1.89,0,0,1-.92-1.69c.14-3.37.54-13.6.21-16.47-.32-2.7-3.62-4.31-5.06-4.89a1.81,1.81,0,0,1-1-1c-.67-1.67-1.59-5.52,3.27-7.1a1.89,1.89,0,0,0,1.2-2.44c-.72-2-1-5.06,2.73-6.74s6.68.32,8.22,2a1.87,1.87,0,0,0,2.39.28,1.48,1.48,0,0,1,1.69.06,1.86,1.86,0,0,0,2.63-.8,5.61,5.61,0,0,1,6.52-3.25c6.63,1.14,7.39,8.5,5.63,12.81s-8.87,2.67-12.45.49c-2.72-1.65-6.24.08-7.78,1A1.88,1.88,0,0,0,105.16,264.46Z"/><path class="cls-57" d="M97.47,277.59s2.73-7.64-.08-9.51-7-.9-6,4.63C92.49,279.6,97.47,277.59,97.47,277.59Z"/><path class="cls-58" d="M128.35,368.82h.14l62.59-.06a2.8,2.8,0,1,0,0-5.59l-62.6.06a2.8,2.8,0,0,0-.13,5.59Z"/><path class="cls-59" d="M215.32,307.52l-.06.13-26.34,56.78a2.8,2.8,0,1,0,5.08,2.35L220.33,310a2.8,2.8,0,0,0-5-2.48Z"/><path class="cls-60" d="M156.22,372c-.28,1.13-26.39,99.08-33,123.92a4.49,4.49,0,0,0,4.3,5.67h0a4.47,4.47,0,0,0,4.32-3.41l29-117.55Z"/><path class="cls-61" d="M170.52,372c.27,1.13,26.39,99.08,33,123.92a4.49,4.49,0,0,1-4.3,5.67h0a4.45,4.45,0,0,1-4.31-3.41l-29-117.55Z"/><path class="cls-62" d="M171.61,368.76H155.34v13.06a3.38,3.38,0,0,0,3.36,3.4h2.23v29.34a2.56,2.56,0,0,0,2.54,2.57h0a2.56,2.56,0,0,0,2.55-2.57V385.22h1.13a4.49,4.49,0,0,0,4.46-4.51Z"/><path class="cls-63" d="M115.35,365.62h90.82a2.8,2.8,0,0,1,2.7,2.11l1.26,5a2.81,2.81,0,0,1-2.71,3.53l-93.19-.55a2.81,2.81,0,0,1-2.69-3.5l1.11-4.43A2.79,2.79,0,0,1,115.35,365.62Z"/><g class="cls-12"><g class="cls-13"><path class="cls-64" d="M296.21,234.77l-81.73-.45a4.28,4.28,0,0,0-3.7,6.49l.41.69a4.28,4.28,0,0,0,3.68,2.08h81.32a4.29,4.29,0,0,0,4.29-4.29v-.23A4.29,4.29,0,0,0,296.21,234.77Z"/><path class="cls-65" d="M307.63,239.16v.13a4.29,4.29,0,0,0,4.29,4.29h18.15a4.29,4.29,0,0,0,4.14-3.18h0a4.29,4.29,0,0,0-4.11-5.4L312,234.87A4.28,4.28,0,0,0,307.63,239.16Z"/></g><g class="cls-13"><path class="cls-66" d="M276.55,250.17l-62.07-.45a4.28,4.28,0,0,0-3.7,6.49l.41.69a4.28,4.28,0,0,0,3.68,2.08h61.66a4.29,4.29,0,0,0,4.29-4.29v-.23A4.29,4.29,0,0,0,276.55,250.17Z"/><path class="cls-67" d="M288,254.56v.13a4.29,4.29,0,0,0,4.29,4.29H310.4a4.29,4.29,0,0,0,4.15-3.18h0a4.3,4.3,0,0,0-4.11-5.4l-18.15-.13A4.29,4.29,0,0,0,288,254.56Z"/></g></g><g class="cls-68"><g class="cls-13"><path class="cls-69" d="M90.06,355l-81.73-.45a4.29,4.29,0,0,0-3.71,6.5l.41.68a4.31,4.31,0,0,0,3.68,2.08H90a4.29,4.29,0,0,0,4.29-4.29v-.23A4.3,4.3,0,0,0,90.06,355Z"/><path class="cls-70" d="M101.48,359.4v.13a4.29,4.29,0,0,0,4.29,4.29h18.14a4.29,4.29,0,0,0,4.15-3.18h0a4.3,4.3,0,0,0-4.12-5.4l-18.14-.13A4.29,4.29,0,0,0,101.48,359.4Z"/></g><g class="cls-13"><path class="cls-71" d="M70.4,370.41,8.33,370a4.29,4.29,0,0,0-3.71,6.5l.41.68a4.31,4.31,0,0,0,3.68,2.08H70.37a4.3,4.3,0,0,0,4.3-4.29v-.23A4.3,4.3,0,0,0,70.4,370.41Z"/><path class="cls-72" d="M81.82,374.8v.13a4.29,4.29,0,0,0,4.29,4.29h18.14A4.3,4.3,0,0,0,108.4,376h0a4.3,4.3,0,0,0-4.12-5.4l-18.14-.13A4.29,4.29,0,0,0,81.82,374.8Z"/></g></g><path class="cls-73" d="M407.24,107.12c-.05-.64-.71-1.2-1.82-1.64,1.21-.67,1.88-1.38,1.82-2.08-.17-2.11-6.86-3.3-14.95-2.65s-14.5,2.9-14.33,5c.05.64.7,1.2,1.81,1.64-1.2.67-1.87,1.38-1.81,2.08s.7,1.19,1.81,1.64c-1.2.66-1.87,1.38-1.81,2.07s.7,1.2,1.81,1.64c-1.2.67-1.87,1.38-1.81,2.08.07.93,1.42,1.69,3.61,2.18a19.92,19.92,0,0,0,.05,2.28c.32,3.9,4.7,6.95,10.5,6.95s10.8-4.16,10.86-8.07a19.88,19.88,0,0,0-.11-2.55c2.77-.92,4.46-2,4.37-3.15-.05-.64-.71-1.2-1.82-1.64,1.21-.67,1.88-1.38,1.82-2.08s-.71-1.19-1.82-1.64C406.63,108.53,407.3,107.82,407.24,107.12Z"/><path class="cls-74" d="M388.55,119.93a35.78,35.78,0,0,1-6.42-.52.2.2,0,0,1-.15-.23.19.19,0,0,1,.23-.15,41.84,41.84,0,0,0,10.68.33,45.76,45.76,0,0,0,9-1.54.19.19,0,0,1,.24.13.2.2,0,0,1-.13.24,46.42,46.42,0,0,1-9,1.56C391.42,119.87,390,119.93,388.55,119.93Z"/><path class="cls-75" d="M388.59,116.21a30.59,30.59,0,0,1-7.88-.85.19.19,0,1,1,.11-.37,44.88,44.88,0,0,0,23.81-1.9.2.2,0,0,1,.16.36A38.46,38.46,0,0,1,392.92,116C391.44,116.15,390,116.21,388.59,116.21Z"/><path class="cls-76" d="M388.55,112.5a28.47,28.47,0,0,1-8.3-1,.19.19,0,0,1-.13-.25.21.21,0,0,1,.25-.12c2.76.91,7.44,1.21,12.52.8a38,38,0,0,0,11.74-2.55.19.19,0,0,1,.26.09.2.2,0,0,1-.1.26,38.14,38.14,0,0,1-11.87,2.59C391.42,112.44,390,112.5,388.55,112.5Z"/><path class="cls-77" d="M388.57,108.78a33.51,33.51,0,0,1-7-.63.21.21,0,0,1-.15-.24.2.2,0,0,1,.24-.14,40.75,40.75,0,0,0,11.22.45,38.55,38.55,0,0,0,11.68-2.53.19.19,0,1,1,.16.35,38.44,38.44,0,0,1-11.81,2.56C391.44,108.72,390,108.78,388.57,108.78Z"/><path class="cls-78" d="M372.53,88.36a27.23,27.23,0,0,0-4.9-9.56A63.3,63.3,0,0,1,354,43.55c-1.41-24.49,20.32-36.76,40.14-35.09s39.38,16.42,37.24,39.21c-1.32,14-9.16,24.66-15,30.77a32.43,32.43,0,0,0-7.79,13.8c-1.75,6.33-5.92,14.22-15.84,14.7C379.9,107.56,374.57,95.6,372.53,88.36Z"/><path class="cls-79" d="M396,102.05,403,56.94c.15-.93.61-1.56,1-1.4s.65,1.05.5,2c0,0,0,.06,0,.08l-7.9,44.69c-.06.34-.23.55-.38.48S396,102.38,396,102.05Z"/><path class="cls-80" d="M388.82,102.41,381.88,57.3c-.14-.93-.6-1.56-1-1.4s-.65,1.05-.51,2c0,0,0,0,0,.08l7.9,44.69c.06.34.23.55.39.48S388.87,102.74,388.82,102.41Z"/><path class="cls-6" d="M402.9,53.07a.72.72,0,0,0-.91-.24l-3.86,1.81-1.34-3.82a.85.85,0,0,0-.47-.48,1,1,0,0,0-1.19.37h0L392,56.51,389,48.27h0a.93.93,0,0,0-.45-.51,1.16,1.16,0,0,0-1.46.29l-4.44,6.11a.53.53,0,0,0,.16.77.73.73,0,0,0,.94-.1l3.91-4.36,3.52,7.84h0a.61.61,0,0,0,.31.3.73.73,0,0,0,.92-.24l3.39-5.45,1.28,2.76v0l0,.06a.72.72,0,0,0,.91.24l4.58-2.14A.54.54,0,0,0,402.9,53.07Z"/><path class="cls-6" d="M416.52,73.07A1.33,1.33,0,0,1,415.46,71a51.85,51.85,0,0,0,3.19-4.85,1.33,1.33,0,0,1,2.3,1.33,54,54,0,0,1-3.36,5.1A1.33,1.33,0,0,1,416.52,73.07Z"/><path class="cls-6" d="M422.23,63.27a1.23,1.23,0,0,1-.53-.11,1.32,1.32,0,0,1-.69-1.74A40.55,40.55,0,0,0,422,30.59a1.32,1.32,0,1,1,2.41-1.1c.28.61,6.8,15.21-.92,33A1.34,1.34,0,0,1,422.23,63.27Z"/><path class="cls-81" d="M233.26,418.42a14.59,14.59,0,0,1,2.62-7.65c-2.61.85-3.59,2.79-4.2,8-.72,6.17-2,22.89-2.36,26.58a7.68,7.68,0,0,0,2.36,6.72c.39.39,1,.21,1.71-.35a12.09,12.09,0,0,1-2.34-5.36C230.59,443.85,232.65,426.59,233.26,418.42Z"/><path class="cls-82" d="M250.33,413.58l-4.54-5.88a36.06,36.06,0,0,1-8.25,2.69,10.17,10.17,0,0,0-1.66.38,14.59,14.59,0,0,0-2.62,7.65c-.61,8.17-2.67,25.43-2.21,27.92a12.09,12.09,0,0,0,2.34,5.36c1.47-1.15,3.39-3.9,4.85-6.71,2.17-4.19,9.52-16.72,11.25-21.4A22.47,22.47,0,0,0,250.33,413.58Z"/><path class="cls-83" d="M312.05,360.15a14.57,14.57,0,0,1,3.86-7.11c-2.72.41-4,2.16-5.47,7.18-1.73,6-5.78,22.23-6.72,25.82a7.64,7.64,0,0,0,1.21,7c.32.46.95.38,1.75-.06a12,12,0,0,1-1.43-5.67C305.21,384.79,310.1,368.11,312.05,360.15Z"/><path class="cls-84" d="M329.69,358.2l-3.5-6.55a36.3,36.3,0,0,1-8.58,1.29,10,10,0,0,0-1.7.1,14.57,14.57,0,0,0-3.86,7.11c-1.95,8-6.84,24.64-6.8,27.17a12,12,0,0,0,1.43,5.67c1.63-.89,4-3.28,5.88-5.81,2.84-3.77,12.17-14.92,14.64-19.24A22.39,22.39,0,0,0,329.69,358.2Z"/><path class="cls-85" d="M250.33,399.27c-.8,1-6.59,11.58-7.85,13.87a3.36,3.36,0,0,0-.4,1.23,5.2,5.2,0,0,0,2.47,5.12,3.48,3.48,0,0,0,4.69-.8l10.54-13.87Z"/><path class="cls-86" d="M332.06,344.09c-1,.89-8.42,10.33-10,12.38a3.51,3.51,0,0,0-.6,1.15,5.17,5.17,0,0,0,1.6,5.45,3.47,3.47,0,0,0,4.75,0L339.1,350Z"/><path class="cls-87" d="M346.25,294.37c0-2.92,16.79-1.88,31.51-3.58a8.28,8.28,0,0,1,6.9,14l-44.58,46a3.49,3.49,0,0,1-3.61.91,21.48,21.48,0,0,1-6.54-3.39,3.19,3.19,0,0,1-.59-4.32l20.5-29.17-18.7,5.39L260.2,407.94a3.68,3.68,0,0,1-4.82.8,29.82,29.82,0,0,1-6.7-5.47,3.42,3.42,0,0,1-.21-4.07c7.83-12,50.36-77.1,52.37-83.87,2.22-7.45,10.39-21.1,18-21.59S346.25,294.37,346.25,294.37Z"/><path class="cls-88" d="M351,314.41a.46.46,0,0,1-.45-.35.47.47,0,0,1,.33-.58L367.65,309a.48.48,0,1,1,.24.92l-16.81,4.46Z"/><path class="cls-89" d="M332.81,319a.5.5,0,0,1-.32-.13.48.48,0,0,1,0-.67l4.2-4.55a.47.47,0,0,1,.7.64l-4.2,4.55A.48.48,0,0,1,332.81,319Z"/><path class="cls-90" d="M265.58,323.57l-8.95,22.17a7.77,7.77,0,0,0,4,10l52.2,23.44a5.59,5.59,0,0,0,7-2.11c3.26-5.15,8.67-14.57,11.59-24.35Z"/><path class="cls-6" d="M314.39,378a5.76,5.76,0,0,1-2.34-.5l-.1-.05a.33.33,0,1,1,.27-.61l.11.05a5,5,0,0,0,2.31.44.32.32,0,0,1,.35.31.33.33,0,0,1-.31.35Zm-7.95-3.06a.35.35,0,0,1-.14,0l-2.42-1.08a.34.34,0,0,1,.28-.61l2.42,1.09a.33.33,0,0,1,.16.44A.32.32,0,0,1,306.44,374.94Zm13-.35a.41.41,0,0,1-.18,0,.35.35,0,0,1-.11-.46c.43-.69.89-1.45,1.37-2.26a.34.34,0,0,1,.46-.12.33.33,0,0,1,.11.45c-.48.82-.94,1.59-1.37,2.28A.33.33,0,0,1,319.48,374.59Zm-21.11-3.27a.31.31,0,0,1-.13,0l-2.42-1.09a.32.32,0,0,1-.17-.43.33.33,0,0,1,.44-.17l2.42,1.09a.33.33,0,0,1,.17.43A.34.34,0,0,1,298.37,371.32Zm-8.06-3.62a.32.32,0,0,1-.14,0l-2.42-1.09a.33.33,0,1,1,.27-.6l2.42,1.08a.34.34,0,0,1,.17.44A.35.35,0,0,1,290.31,367.7Zm33.54-.8-.15,0a.33.33,0,0,1-.14-.45c.4-.77.8-1.55,1.19-2.36a.33.33,0,0,1,.44-.16.34.34,0,0,1,.16.45q-.6,1.22-1.2,2.37A.33.33,0,0,1,323.85,366.9Zm-41.61-2.82a.35.35,0,0,1-.14,0L279.68,363a.33.33,0,0,1-.16-.44.33.33,0,0,1,.43-.17l2.42,1.09a.33.33,0,0,1-.13.64Zm-8.07-3.63a.31.31,0,0,1-.13,0l-2.42-1.08a.33.33,0,0,1-.17-.44.33.33,0,0,1,.44-.17l2.42,1.09a.33.33,0,0,1,.16.44A.32.32,0,0,1,274.17,360.45Zm53.42-1.56-.13,0a.34.34,0,0,1-.18-.44q.5-1.21,1-2.46a.33.33,0,0,1,.43-.19.32.32,0,0,1,.19.42c-.31.84-.63,1.67-1,2.48A.35.35,0,0,1,327.59,358.89Zm-61.49-2.06a.31.31,0,0,1-.13,0l-2.42-1.08a.33.33,0,0,1,.27-.61l2.42,1.09a.33.33,0,0,1,.17.43A.34.34,0,0,1,266.1,356.83Zm-7.1-4.9a.35.35,0,0,1-.3-.18,7.81,7.81,0,0,1-.84-2.62.35.35,0,0,1,.29-.38.34.34,0,0,1,.37.29,7,7,0,0,0,.77,2.4.34.34,0,0,1-.14.45A.28.28,0,0,1,259,351.93Zm69.19-.35a.31.31,0,0,1-.13,0l-2.43-1.07a.33.33,0,0,1-.16-.44.33.33,0,0,1,.43-.17l2.43,1.07a.34.34,0,0,1,.17.44A.35.35,0,0,1,328.19,351.58ZM320.11,348a.35.35,0,0,1-.14,0l-2.42-1.07a.33.33,0,0,1-.17-.44.32.32,0,0,1,.43-.16l2.43,1.07a.33.33,0,0,1,.17.43A.32.32,0,0,1,320.11,348ZM312,344.43a.35.35,0,0,1-.14,0l-2.42-1.07a.33.33,0,1,1,.27-.61l2.42,1.07a.33.33,0,0,1-.13.64Zm-52.45-1-.12,0a.33.33,0,0,1-.19-.43l1-2.46a.33.33,0,1,1,.61.25l-1,2.45A.34.34,0,0,1,259.57,343.47Zm44.36-2.62a.31.31,0,0,1-.13,0l-2.43-1.07a.33.33,0,1,1,.27-.6l2.42,1.07a.33.33,0,0,1,.17.44A.32.32,0,0,1,303.93,340.85Zm-8.09-3.57a.31.31,0,0,1-.13,0l-2.43-1.07a.33.33,0,1,1,.27-.61l2.43,1.07a.35.35,0,0,1,.17.44A.35.35,0,0,1,295.84,337.28Zm-33-2a.25.25,0,0,1-.12,0,.33.33,0,0,1-.18-.43l1-2.46a.33.33,0,1,1,.61.25l-1,2.46A.32.32,0,0,1,262.88,335.27Zm24.87-1.57-.13,0-2.43-1.08a.33.33,0,1,1,.27-.6l2.43,1.07a.33.33,0,0,1,.17.44A.34.34,0,0,1,287.75,333.7Zm-8.08-3.57a.35.35,0,0,1-.14,0L277.11,329a.33.33,0,0,1,.26-.61l2.43,1.07a.34.34,0,0,1,.17.44A.32.32,0,0,1,279.67,330.13Zm-13.47-3.05a.28.28,0,0,1-.13,0,.33.33,0,0,1-.18-.43l1-2.46a.33.33,0,0,1,.62.25l-1,2.46A.32.32,0,0,1,266.2,327.08Zm5.38-.53a.34.34,0,0,1-.14,0L269,325.45a.32.32,0,0,1-.17-.43.33.33,0,0,1,.44-.17l2.42,1.07a.33.33,0,0,1,.17.44A.32.32,0,0,1,271.58,326.55Z"/><path class="cls-91" d="M287.93,314.49l.91-1.62a1.42,1.42,0,0,1,1.31-.32c1.75.46,6,1.79,7.3,4.11l-.58,2.08Z"/><path class="cls-92" d="M293.74,315.12a2.67,2.67,0,0,1-1.13-.5,1.14,1.14,0,0,1-.34-1.33l2.34-5.28,2.68,1.19L295,314.47A1.12,1.12,0,0,1,293.74,315.12Z"/><path class="cls-93" d="M314,326l.9-1.61a1.38,1.38,0,0,1,1.32-.32c1.74.46,6,1.79,7.29,4.1l-.58,2.09Z"/><path class="cls-94" d="M319.76,326.61a2.46,2.46,0,0,1-1.13-.5,1.1,1.1,0,0,1-.34-1.33l2.58-5.83,2.68,1.19L321,326A1.1,1.1,0,0,1,319.76,326.61Z"/><path class="cls-95" d="M293.76,309.18,323.07,321a1.52,1.52,0,0,0,1.83-.55,12.82,12.82,0,0,0,1.71-3.63,3.63,3.63,0,0,0-2-4.24c-5.33-2.51-19.05-8.57-27.93-8.92a2.87,2.87,0,0,0-2.41,1.13,6.93,6.93,0,0,0-1.36,2.9A1.35,1.35,0,0,0,293.76,309.18Z"/><path class="cls-6" d="M294,308.22a.86.86,0,0,1-.27-.05.88.88,0,0,1-.57-1.11,8.22,8.22,0,0,1,1.26-2.34,3.4,3.4,0,0,1,3.06-1.21,35.28,35.28,0,0,1,8,1.88.89.89,0,1,1-.67,1.64,34.82,34.82,0,0,0-7.53-1.77,1.59,1.59,0,0,0-1.45.57,6.48,6.48,0,0,0-1,1.78A.89.89,0,0,1,294,308.22Z"/><path class="cls-96" d="M274.82,307.91c9.39,4,49.94,21.42,61,28a2.61,2.61,0,0,1,1.24,2.75,86.9,86.9,0,0,1-5.87,18.47,2.29,2.29,0,0,1-2.59,1.24l-29-6.77-9.5-4.2-26-18.27a2.44,2.44,0,0,1-.88-2.87c1.42-3.71,4.89-12.35,8.29-17.4A2.71,2.71,0,0,1,274.82,307.91Z"/><path class="cls-6" d="M329.3,355.65a.35.35,0,0,1-.14,0,.33.33,0,0,1-.16-.44c.35-.77.69-1.59,1-2.43a.35.35,0,0,1,.44-.19.34.34,0,0,1,.18.44c-.34.84-.69,1.67-1,2.45A.32.32,0,0,1,329.3,355.65Zm-5.68-.69h-.07l-2.58-.6a.33.33,0,0,1-.25-.4.32.32,0,0,1,.4-.24l2.58.6a.33.33,0,0,1-.08.65ZM315,353h-.07l-2.59-.61a.33.33,0,0,1-.24-.4.32.32,0,0,1,.39-.24l2.59.6a.33.33,0,0,1,.25.4A.34.34,0,0,1,315,353Zm-8.61-2h-.07l-2.59-.61a.33.33,0,0,1-.25-.39.34.34,0,0,1,.4-.25l2.59.6a.33.33,0,0,1,.24.4A.32.32,0,0,1,306.4,350.94ZM298,348.45a.3.3,0,0,1-.13,0l-2.43-1.08a.33.33,0,1,1,.27-.6l2.42,1.07a.33.33,0,0,1,.17.44A.32.32,0,0,1,298,348.45Zm34.43-1.09h-.1a.33.33,0,0,1-.22-.42c.27-.88.51-1.73.74-2.54a.33.33,0,0,1,.64.18c-.23.82-.48,1.67-.75,2.56A.32.32,0,0,1,332.38,347.36Zm-41-1.81a.35.35,0,0,1-.19-.06L289,344a.33.33,0,1,1,.38-.54l2.17,1.52a.34.34,0,0,1,.08.47A.32.32,0,0,1,291.37,345.55Zm-7.23-5.09a.26.26,0,0,1-.19-.06l-2.18-1.52a.33.33,0,1,1,.39-.54l2.17,1.52a.33.33,0,0,1,.08.46A.32.32,0,0,1,284.14,340.46Zm50.43-1.67h-.07a.35.35,0,0,1-.26-.4l0-.09c-.52-.31-1.13-.66-1.81-1a.33.33,0,0,1-.14-.45.33.33,0,0,1,.45-.13c.75.41,1.41.78,2,1.12a.42.42,0,0,1,.22.37l-.07.35A.33.33,0,0,1,334.57,338.79Zm-.17-.41h0Zm-57.5-3a.33.33,0,0,1-.19-.06l-2.17-1.52a.33.33,0,0,1-.08-.46.34.34,0,0,1,.46-.09l2.17,1.53a.32.32,0,0,1,.08.46A.33.33,0,0,1,276.9,335.38Zm50.2-.91a.32.32,0,0,1-.14,0l-2.38-1.17a.33.33,0,0,1-.16-.44.34.34,0,0,1,.45-.16l2.38,1.17a.34.34,0,0,1,.15.45A.35.35,0,0,1,327.1,334.47Zm-8-3.83-.14,0-2.4-1.12a.33.33,0,1,1,.28-.6c.82.38,1.63.75,2.4,1.12a.33.33,0,0,1,.16.44A.32.32,0,0,1,319.13,330.64Zm-49.47-.34a.35.35,0,0,1-.19-.06l-2.17-1.53a.33.33,0,1,1,.38-.54l2.17,1.53a.34.34,0,0,1,.09.46A.35.35,0,0,1,269.66,330.3Zm41.44-3.37a.31.31,0,0,1-.13,0l-2.42-1.09a.32.32,0,0,1-.16-.44.33.33,0,0,1,.44-.17l2.41,1.1a.34.34,0,0,1,.17.44A.34.34,0,0,1,311.1,326.93ZM267,323.83a.25.25,0,0,1-.12,0,.33.33,0,0,1-.18-.43c.32-.78.66-1.6,1-2.46a.34.34,0,0,1,.44-.17.33.33,0,0,1,.17.44c-.37.85-.71,1.67-1,2.44A.32.32,0,0,1,267,323.83Zm36-.53a.31.31,0,0,1-.13,0l-2.43-1.08a.33.33,0,0,1-.16-.44.33.33,0,0,1,.43-.17l2.43,1.08a.35.35,0,0,1,.17.44A.34.34,0,0,1,303,323.3ZM295,319.72a.35.35,0,0,1-.14,0l-2.43-1.07a.34.34,0,0,1-.17-.44.35.35,0,0,1,.44-.17l2.43,1.07a.33.33,0,0,1,.17.44A.34.34,0,0,1,295,319.72Zm-8.11-3.55a.31.31,0,0,1-.13,0l-2.43-1.05a.34.34,0,0,1-.18-.44.34.34,0,0,1,.44-.17l2.44,1.06a.33.33,0,0,1,.17.43A.34.34,0,0,1,286.85,316.17Zm-16.17-.4a.28.28,0,0,1-.15,0,.32.32,0,0,1-.14-.44c.4-.81.82-1.61,1.24-2.36a.33.33,0,1,1,.58.32q-.63,1.13-1.23,2.34A.35.35,0,0,1,270.68,315.77Zm8.05-3.11-.13,0-2.44-1a.35.35,0,0,1-.17-.44.33.33,0,0,1,.44-.17l2.43,1a.34.34,0,0,1,.18.44A.35.35,0,0,1,278.73,312.66Z"/><path class="cls-97" d="M297,355.22l-8.33-3.68a2.35,2.35,0,0,1-1.3-2.84l2.58-8.44a2.35,2.35,0,0,1,3.2-1.45l10,4.42a2.35,2.35,0,0,1,1.11,3.28l-4.25,7.7A2.36,2.36,0,0,1,297,355.22Z"/><g class="cls-98"><path class="cls-99" d="M296.6,353.29l-6.34-2.8a1.78,1.78,0,0,1-1-2.16l2-6.42a1.79,1.79,0,0,1,2.44-1.11l7.61,3.37a1.78,1.78,0,0,1,.85,2.5l-3.24,5.86A1.78,1.78,0,0,1,296.6,353.29Z"/></g><path class="cls-100" d="M439.34,159.87l35.93-28.05a1.3,1.3,0,0,0,.47-.68l3.8-12.41a1.41,1.41,0,0,1,.63-.79l2.47-1.4a1.36,1.36,0,0,1,.81-.17l7.67.75a1.37,1.37,0,0,1,1.22,1.14l.58,3.59a1.36,1.36,0,0,1-.22,1l-1,1.49a1.36,1.36,0,0,0-.08,1.44h0a1.38,1.38,0,0,1-.17,1.57,27.87,27.87,0,0,1-9.59,6.73,1.5,1.5,0,0,0-.46.33l-32.31,35.11a1.37,1.37,0,0,1-2,.06l-7.87-7.65A1.36,1.36,0,0,1,439.34,159.87Z"/><path class="cls-101" d="M386.57,202.75l51.14-42.86a2.64,2.64,0,0,1,3.45.05c2.16,1.91,5.76,5.37,7.43,8.45a2.92,2.92,0,0,1-.56,3.49l-52.9,50.66Z"/><path class="cls-102" d="M395.13,201.91s8.89,9.07,7.36,24.72a24.55,24.55,0,0,1-5.09,12.64l-44.86,57.88a6.34,6.34,0,0,1-4.23,2.41c-6.6.81-24.14,2.39-36.56-1.72a1.66,1.66,0,0,1-.9-2.4l40.78-71.75L376.33,195S388.1,190.91,395.13,201.91Z"/><path class="cls-53" d="M339.1,277.6a.89.89,0,0,1-.71-1.42c.39-.52,39-52.58,41.66-58.92,2.39-5.8-3.24-10.27-3.48-10.45a.89.89,0,0,1,1.09-1.4c.07.05,6.93,5.47,4,12.53-2.7,6.54-40.27,57.15-41.87,59.3A.89.89,0,0,1,339.1,277.6Z"/><path class="cls-103" d="M337.74,278.12l-18.88,23.43s-2.77,15.15-5.18,17.2-9.26,3.42-11.05,0a26.36,26.36,0,0,1-2.36-6.93l6.13,2.6s-.14-.91-.31-2.06a.09.09,0,0,0,0-.05c0-.14-.06-.31-.1-.49a28.92,28.92,0,0,1-.5-4c-.14-2.86.24-6.12,2.31-7.74a40.79,40.79,0,0,1,5.2-3.73l10.93-23.64S331.48,277.48,337.74,278.12Z"/><path class="cls-104" d="M254.12,270.41a1.6,1.6,0,0,0-1.13,2.3c2.17,4.39,8.58,14.06,21.78,11,16.9-3.91,68.47-42.88,80.14-53.53s27.14-23.92,34.7-22.07,3-2.53-2.24-6-7.18-8.68-3.28-7.72c0,0-9.41-3.05-23.78,4.87-14,7.73-82.61,34.19-105.56,26.53a1.46,1.46,0,0,0-1.9,1.15c-.92,5.22-2.3,21.59,11.12,40A44.93,44.93,0,0,1,254.12,270.41Z"/><path class="cls-105" d="M266.42,266.45l-.42-.78c.17-.09,17.4-9.47,21.06-12.5l.57.68C283.89,256.94,267.13,266.06,266.42,266.45Z"/><path class="cls-106" d="M397.29,174.92l-13.41,18.93a3.17,3.17,0,0,0,.28,4c1.81,1.93,4.85,4.64,8.13,5.26a2.55,2.55,0,0,0,2.63-1.1l7.13-10.94S403.41,173.88,397.29,174.92Z"/><path class="cls-107" d="M401.07,159.1c.27.26,11.44,22.19,11.44,22.19l-12.66,6.11-13.67-19.22S396.53,154.83,401.07,159.1Z"/><path class="cls-108" d="M391.93,170.49,398.24,181a1.83,1.83,0,0,0,.35.43c.75.7,3.32,2.74,5.31,0,1.69-2.36,3.28-4.51,5-5.4a2,2,0,0,1,2.72.9,75.6,75.6,0,0,1,4.32,10.25,2,2,0,0,1-1.17,2.46,55.86,55.86,0,0,1-12.12,3.54,2,2,0,0,1-1.91-.81c-1.93-2.65-7.38-10-9.24-11.91s-4.92-1.07-6.36-.66a2,2,0,0,1-1.61-.21c-1.46-.88-4-3.06-1.68-6.77a2,2,0,0,0-.62-2.74c-1.63-1.07-3.39-3.08-1.71-6.34a6.28,6.28,0,0,1,6.82-3.33,2.11,2.11,0,0,0,2.2-1.23,1.32,1.32,0,0,1,1-.82,2,2,0,0,0,1.58-2.3,5.17,5.17,0,0,1,2.89-5.92c5.46-3,10.24,1.89,11.46,6s-4.89,7-8.73,7.53c-2.82.36-4.37,3.44-5,5.05A2,2,0,0,0,391.93,170.49Z"/><path class="cls-109" d="M393.86,184.31s-2.43-7.11-5.54-6.85-5.55,3.36-1.7,6.84C391.41,188.63,393.86,184.31,393.86,184.31Z"/><path class="cls-110" d="M484.28,127.2a.42.42,0,0,1-.16,0,.31.31,0,0,1-.12-.43c.07-.14,1.89-3.38,4.17-2.68,1.78.54,2.28.34,2.28.34a.31.31,0,0,1,.43.09.33.33,0,0,1-.1.45c-.14.09-.76.35-2.8-.28-1.79-.55-3.41,2.35-3.43,2.38A.29.29,0,0,1,484.28,127.2Z"/></svg>