<svg id="Layer_1" data-name="Layer 1" xmlns="http://www.w3.org/2000/svg" xmlns:xlink="http://www.w3.org/1999/xlink" viewBox="0 0 610.22 504.62"><defs><style>.cls-1{fill:none;}.cls-13,.cls-17,.cls-2,.cls-22{fill:#fff;}.cls-3{fill:url(#linear-gradient);}.cls-4{fill:url(#linear-gradient-2);}.cls-5{fill:url(#linear-gradient-3);}.cls-6{fill:url(#linear-gradient-4);}.cls-7{fill:#ce41a4;}.cls-15,.cls-23,.cls-24,.cls-8{opacity:0.4;}.cls-8{fill:url(#linear-gradient-5);}.cls-17,.cls-215,.cls-221,.cls-9{opacity:0.5;}.cls-9{fill:url(#linear-gradient-6);}.cls-10{opacity:0.7;}.cls-11{opacity:0.6;}.cls-12{fill:url(#linear-gradient-7);}.cls-13{opacity:0.71;}.cls-14{fill:url(#linear-gradient-8);}.cls-16{fill:url(#linear-gradient-9);}.cls-18{fill:url(#linear-gradient-10);}.cls-19{fill:url(#linear-gradient-11);}.cls-20{fill:url(#linear-gradient-12);}.cls-21{fill:url(#linear-gradient-13);}.cls-22{opacity:0.69;}.cls-23{fill:url(#linear-gradient-14);}.cls-24{fill:url(#linear-gradient-15);}.cls-25{fill:url(#linear-gradient-16);}.cls-26{fill:url(#linear-gradient-17);}.cls-27{fill:url(#linear-gradient-18);}.cls-28{fill:url(#linear-gradient-19);}.cls-29{fill:url(#linear-gradient-20);}.cls-30{fill:url(#linear-gradient-21);}.cls-31{fill:url(#linear-gradient-22);}.cls-32{fill:url(#linear-gradient-23);}.cls-33{fill:url(#linear-gradient-24);}.cls-34{fill:url(#linear-gradient-25);}.cls-35{fill:url(#linear-gradient-26);}.cls-36{fill:url(#linear-gradient-27);}.cls-37{fill:url(#linear-gradient-28);}.cls-38{fill:url(#linear-gradient-29);}.cls-39{fill:url(#linear-gradient-30);}.cls-40{fill:url(#linear-gradient-31);}.cls-41{fill:url(#linear-gradient-32);}.cls-42{fill:url(#linear-gradient-33);}.cls-43{fill:url(#linear-gradient-34);}.cls-44{fill:url(#linear-gradient-35);}.cls-45{clip-path:url(#clip-path);}.cls-46{fill:#53d8ff;}.cls-47{fill:#53d7ff;}.cls-48{fill:#53d6ff;}.cls-49{fill:#52d5ff;}.cls-50{fill:#52d4ff;}.cls-51{fill:#52d3ff;}.cls-52{fill:#52d2ff;}.cls-53{fill:#52d1ff;}.cls-54{fill:#52d0ff;}.cls-55{fill:#51cfff;}.cls-56{fill:#51cefe;}.cls-57{fill:#51cdfe;}.cls-58{fill:#51ccfe;}.cls-59{fill:#51cbfe;}.cls-60{fill:#50cafe;}.cls-61{fill:#50c9fe;}.cls-62{fill:#50c8fe;}.cls-63{fill:#50c7fe;}.cls-64{fill:#50c6fe;}.cls-65{fill:#50c5fe;}.cls-66{fill:#4fc4fe;}.cls-67{fill:#4fc3fe;}.cls-68{fill:#4fc2fe;}.cls-69{fill:#4fc1fe;}.cls-70{fill:#4fc0fe;}.cls-71{fill:#4fbffe;}.cls-72{fill:#4ebefe;}.cls-73{fill:#4ebdfe;}.cls-74{fill:#4ebcfe;}.cls-75{fill:#4ebbfd;}.cls-76{fill:#4ebafd;}.cls-77{fill:#4db9fd;}.cls-78{fill:#4db8fd;}.cls-79{fill:#4db7fd;}.cls-80{fill:#4db6fd;}.cls-81{fill:#4db5fd;}.cls-82{fill:#4db4fd;}.cls-83{fill:#4cb3fd;}.cls-84{fill:#4cb2fd;}.cls-85{fill:#4cb1fd;}.cls-86{fill:#4cb0fd;}.cls-87{fill:#4caffd;}.cls-88{fill:#4baefd;}.cls-89{fill:#4badfd;}.cls-90{fill:#4bacfd;}.cls-91{fill:#4babfd;}.cls-92{fill:#4baafd;}.cls-93{fill:#4ba9fd;}.cls-94{fill:#4aa8fc;}.cls-95{fill:#4aa7fc;}.cls-96{fill:#4aa6fc;}.cls-97{fill:#4aa5fc;}.cls-98{fill:#4aa4fc;}.cls-99{fill:#4aa3fc;}.cls-100{fill:#49a2fc;}.cls-101{fill:#49a1fc;}.cls-102{fill:#49a0fc;}.cls-103{fill:#499ffc;}.cls-104{fill:#499efc;}.cls-105{fill:#489dfc;}.cls-106{fill:#489cfc;}.cls-107{fill:#489bfc;}.cls-108{fill:#489afc;}.cls-109{fill:#4899fc;}.cls-110{fill:#4898fc;}.cls-111{fill:#4797fc;}.cls-112{fill:#4796fc;}.cls-113{fill:#4795fb;}.cls-114{fill:#4794fb;}.cls-115{fill:#4793fb;}.cls-116{fill:#4692fb;}.cls-117{fill:#4691fb;}.cls-118{fill:#4690fb;}.cls-119{fill:#468ffb;}.cls-120{fill:#468efb;}.cls-121{fill:#468dfb;}.cls-122{fill:#458bfb;}.cls-123{fill:#458afb;}.cls-124{fill:#4589fb;}.cls-125{fill:#4588fb;}.cls-126{fill:#4587fb;}.cls-127{fill:#4586fb;}.cls-128{fill:#4485fb;}.cls-129{fill:#4484fb;}.cls-130{fill:#4483fb;}.cls-131{fill:#4482fa;}.cls-132{fill:#4481fa;}.cls-133{fill:#4380fa;}.cls-134{fill:#437ffa;}.cls-135{fill:#437efa;}.cls-136{fill:#437dfa;}.cls-137{fill:#437cfa;}.cls-138{fill:#437bfa;}.cls-139{fill:#427afa;}.cls-140{fill:#4279fa;}.cls-141{fill:#4278fa;}.cls-142{fill:#4277fa;}.cls-143{fill:#4276fa;}.cls-144{fill:#4175fa;}.cls-145{fill:#4174fa;}.cls-146{fill:#4173fa;}.cls-147{fill:#4172fa;}.cls-148{fill:#4171fa;}.cls-149{fill:#4170fa;}.cls-150{fill:#406ff9;}.cls-151{fill:#406ef9;}.cls-152{fill:#406df9;}.cls-153{fill:#406cf9;}.cls-154{fill:#406bf9;}.cls-155{fill:#406af9;}.cls-156{fill:#3f69f9;}.cls-157{fill:#3f68f9;}.cls-158{fill:#3f67f9;}.cls-159{fill:#3f66f9;}.cls-160{fill:#3f65f9;}.cls-161{fill:#3e64f9;}.cls-162{fill:#3e63f9;}.cls-163{fill:#3e62f9;}.cls-164{fill:#3e61f9;}.cls-165{fill:#3e60f9;}.cls-166{fill:#3e5ff9;}.cls-167{fill:#3d5ef9;}.cls-168{fill:#3d5df9;}.cls-169{fill:#3d5cf8;}.cls-170{fill:#3d5bf8;}.cls-171{fill:#3d5af8;}.cls-172{fill:#3c59f8;}.cls-173{fill:#3c58f8;}.cls-174{fill:#3c57f8;}.cls-175{fill:#3c56f8;}.cls-176{fill:#3c55f8;}.cls-177{fill:#3c54f8;}.cls-178{fill:#3b53f8;}.cls-179{fill:#3b52f8;}.cls-180{fill:#3b51f8;}.cls-181{fill:#3b50f8;}.cls-182{fill:#3b4ff8;}.cls-183{fill:#3b4ef8;}.cls-184{fill:#3a4df8;}.cls-185{fill:#3a4cf8;}.cls-186{fill:#3a4bf8;}.cls-187{fill:#3a4af8;}.cls-188{fill:#3a49f7;}.cls-189{fill:#3948f7;}.cls-190{fill:#3947f7;}.cls-191{fill:#3946f7;}.cls-192{fill:#3945f7;}.cls-193{fill:#3944f7;}.cls-194{fill:#3943f7;}.cls-195{fill:#3842f7;}.cls-196{fill:#3841f7;}.cls-197{fill:#3840f7;}.cls-198{fill:url(#linear-gradient-36);}.cls-199{fill:url(#linear-gradient-37);}.cls-200{fill:url(#linear-gradient-38);}.cls-201{fill:url(#linear-gradient-39);}.cls-202{fill:url(#linear-gradient-40);}.cls-203{fill:url(#linear-gradient-41);}.cls-204{fill:url(#linear-gradient-42);}.cls-205{fill:url(#linear-gradient-43);}.cls-206{fill:url(#linear-gradient-44);}.cls-207{fill:url(#linear-gradient-45);}.cls-208{fill:url(#linear-gradient-46);}.cls-209{fill:url(#linear-gradient-47);}.cls-210{fill:url(#linear-gradient-48);}.cls-211{fill:url(#linear-gradient-49);}.cls-212{fill:url(#linear-gradient-50);}.cls-213{fill:url(#linear-gradient-51);}.cls-214{fill:url(#linear-gradient-52);}.cls-216{clip-path:url(#clip-path-2);}.cls-217{fill:url(#linear-gradient-53);}.cls-218{fill:url(#linear-gradient-54);}.cls-219{fill:url(#linear-gradient-55);}.cls-220{fill:url(#linear-gradient-56);}.cls-221{fill:url(#linear-gradient-57);}.cls-222{fill:url(#linear-gradient-58);}.cls-223{fill:url(#linear-gradient-59);}.cls-224{clip-path:url(#clip-path-3);}.cls-225{fill:url(#linear-gradient-60);}.cls-226{fill:url(#linear-gradient-61);}.cls-227{fill:url(#linear-gradient-62);}.cls-228{fill:url(#linear-gradient-63);}.cls-229{fill:url(#linear-gradient-64);}.cls-230{fill:url(#linear-gradient-65);}.cls-231{fill:url(#linear-gradient-66);}.cls-232{fill:url(#linear-gradient-67);}.cls-233{fill:url(#linear-gradient-68);}.cls-234{fill:url(#linear-gradient-69);}.cls-235{fill:url(#linear-gradient-70);}.cls-236{fill:url(#linear-gradient-71);}.cls-237{fill:url(#linear-gradient-72);}.cls-238{fill:url(#linear-gradient-73);}.cls-239{fill:url(#linear-gradient-74);}.cls-240{fill:#666694;}.cls-241{fill:url(#linear-gradient-75);}.cls-242{fill:url(#linear-gradient-76);}.cls-243{fill:url(#linear-gradient-77);}.cls-244{fill:url(#linear-gradient-78);}.cls-245{fill:url(#linear-gradient-79);}.cls-246{fill:url(#linear-gradient-80);}.cls-247{fill:url(#linear-gradient-81);}.cls-248{fill:url(#linear-gradient-82);}.cls-249{fill:url(#linear-gradient-83);}.cls-250{fill:url(#linear-gradient-84);}.cls-251{fill:url(#linear-gradient-85);}.cls-252{fill:url(#linear-gradient-86);}.cls-253{fill:url(#linear-gradient-87);}.cls-254{fill:url(#linear-gradient-88);}.cls-255{fill:url(#linear-gradient-89);}.cls-256{fill:url(#linear-gradient-90);}.cls-257{fill:url(#linear-gradient-91);}.cls-258{fill:url(#linear-gradient-92);}.cls-259{fill:url(#linear-gradient-93);}.cls-260{fill:url(#linear-gradient-94);}.cls-261{fill:url(#linear-gradient-95);}.cls-262{fill:url(#linear-gradient-96);}.cls-263{fill:url(#linear-gradient-97);}.cls-264{fill:url(#linear-gradient-98);}.cls-265{fill:url(#linear-gradient-99);}.cls-266{fill:url(#linear-gradient-100);}.cls-267{fill:url(#linear-gradient-101);}.cls-268{fill:url(#linear-gradient-102);}.cls-269{fill:url(#linear-gradient-103);}</style><linearGradient id="linear-gradient" x1="-3975.15" y1="-1569.79" x2="-4029.95" y2="-1603" gradientTransform="matrix(0.9, 0.44, -0.56, 0.74, 2794.51, 2998.56)" gradientUnits="userSpaceOnUse"><stop offset="0" stop-color="#53d8ff"/><stop offset="1" stop-color="#3840f7"/></linearGradient><linearGradient id="linear-gradient-2" x1="-4005.57" y1="-1582.06" x2="-4068.27" y2="-1648.37" xlink:href="#linear-gradient"/><linearGradient id="linear-gradient-3" x1="-3979.15" y1="-1570.34" x2="-4030.34" y2="-1601.36" xlink:href="#linear-gradient"/><linearGradient id="linear-gradient-4" x1="-1256.5" y1="-1419.88" x2="-1233.1" y2="-1426.65" gradientTransform="matrix(-0.9, -0.44, -0.44, 0.9, -1659.82, 777.39)" xlink:href="#linear-gradient"/><linearGradient id="linear-gradient-5" x1="4.97" y1="320.61" x2="604.85" y2="320.61" gradientUnits="userSpaceOnUse"><stop offset="0" stop-color="#b37cff"/><stop offset="1" stop-color="#f895e7"/></linearGradient><linearGradient id="linear-gradient-6" x1="20.13" y1="323.31" x2="591.16" y2="323.31" xlink:href="#linear-gradient-5"/><linearGradient id="linear-gradient-7" x1="-4891.46" y1="404.83" x2="-4599.84" y2="404.83" gradientTransform="matrix(-1, 0, 0, 1, -4287.81, 0)" gradientUnits="userSpaceOnUse"><stop offset="0" stop-color="#a737d5"/><stop offset="1" stop-color="#ef497a"/></linearGradient><linearGradient id="linear-gradient-8" x1="299.11" y1="289.81" x2="516.1" y2="289.81" gradientTransform="matrix(1, 0, 0, 1, 0, 0)" xlink:href="#linear-gradient-7"/><linearGradient id="linear-gradient-9" x1="370.78" y1="337.18" x2="606.22" y2="337.18" gradientTransform="matrix(1, 0, 0, 1, 0, 0)" xlink:href="#linear-gradient-7"/><linearGradient id="linear-gradient-10" x1="-4898.46" y1="405.83" x2="-4606.84" y2="405.83" gradientTransform="translate(4905.13)" xlink:href="#linear-gradient-7"/><linearGradient id="linear-gradient-11" x1="306.11" y1="290.81" x2="523.1" y2="290.81" gradientTransform="matrix(-1, 0, 0, 1, 617.33, 0)" xlink:href="#linear-gradient-7"/><linearGradient id="linear-gradient-12" x1="377.78" y1="338.18" x2="613.22" y2="338.18" gradientTransform="matrix(-1, 0, 0, 1, 617.33, 0)" xlink:href="#linear-gradient-7"/><linearGradient id="linear-gradient-13" x1="729.82" y1="347.07" x2="810.12" y2="238.61" gradientTransform="matrix(-1, 0, 0, 1, 1259.06, 0)" gradientUnits="userSpaceOnUse"><stop offset="0" stop-color="#cb236d"/><stop offset="1" stop-color="#4c246d"/></linearGradient><linearGradient id="linear-gradient-14" x1="136.14" y1="576.98" x2="207.81" y2="591.59" gradientTransform="matrix(0.94, 0.01, -0.01, 0.81, -40.1, -260.66)" xlink:href="#linear-gradient"/><linearGradient id="linear-gradient-15" x1="209.68" y1="564.22" x2="264.31" y2="575.36" gradientTransform="matrix(0.94, 0.01, -0.01, 0.81, -40.1, -260.66)" xlink:href="#linear-gradient"/><linearGradient id="linear-gradient-16" x1="118.16" y1="316.82" x2="192.9" y2="316.82" gradientTransform="translate(-194.35 115.12) rotate(-32.01)" xlink:href="#linear-gradient-7"/><linearGradient id="linear-gradient-17" x1="-2217.42" y1="387.61" x2="-2543.33" y2="99.34" gradientTransform="matrix(-1, 0, 0, 1, -1954.55, 0)" gradientUnits="userSpaceOnUse"><stop offset="0" stop-color="#da342d"/><stop offset="1" stop-color="#f3a84a"/></linearGradient><linearGradient id="linear-gradient-18" x1="-2486.77" y1="214.74" x2="-2002.76" y2="206.67" xlink:href="#linear-gradient-17"/><linearGradient id="linear-gradient-19" x1="-2336.8" y1="175.96" x2="-2432.03" y2="91.73" xlink:href="#linear-gradient-17"/><linearGradient id="linear-gradient-20" x1="-2367.42" y1="197.72" x2="-2424.83" y2="146.94" xlink:href="#linear-gradient-17"/><linearGradient id="linear-gradient-21" x1="-2323.98" y1="198.9" x2="-2397.14" y2="134.19" xlink:href="#linear-gradient-17"/><linearGradient id="linear-gradient-22" x1="-2672.85" y1="422.55" x2="-2652.24" y2="422.55" gradientTransform="matrix(-1, -0.06, -0.06, 1, -2344.64, -88.92)" gradientUnits="userSpaceOnUse"><stop offset="0" stop-color="#f9b776"/><stop offset="1" stop-color="#f47960"/></linearGradient><linearGradient id="linear-gradient-23" x1="-2701.37" y1="368.01" x2="-2613.78" y2="245.25" gradientTransform="matrix(-1, -0.06, -0.06, 1, -2344.64, -88.92)" gradientUnits="userSpaceOnUse"><stop offset="0" stop-color="#2b3582"/><stop offset="0.23" stop-color="#252a70"/><stop offset="0.73" stop-color="#19164f"/><stop offset="1" stop-color="#150e42"/></linearGradient><linearGradient id="linear-gradient-24" x1="-2733.07" y1="420.75" x2="-2728.47" y2="264.28" gradientTransform="matrix(-1, -0.06, -0.06, 1, -2344.64, -88.92)" gradientUnits="userSpaceOnUse"><stop offset="0" stop-color="#2b3582"/><stop offset="1" stop-color="#150e42"/></linearGradient><linearGradient id="linear-gradient-25" x1="-2613.27" y1="269.55" x2="-2660.86" y2="195.06" gradientTransform="matrix(-1, -0.06, -0.06, 1, -2344.64, -88.92)" gradientUnits="userSpaceOnUse"><stop offset="0" stop-color="#fdf53f"/><stop offset="1" stop-color="#d93c65"/></linearGradient><linearGradient id="linear-gradient-26" x1="-2628.64" y1="218.5" x2="-2561.16" y2="218.5" xlink:href="#linear-gradient-22"/><linearGradient id="linear-gradient-27" x1="-2659.76" y1="137.68" x2="-2811.5" y2="248.03" xlink:href="#linear-gradient-25"/><linearGradient id="linear-gradient-28" x1="-2693.02" y1="118.91" x2="-2648.25" y2="118.91" xlink:href="#linear-gradient-22"/><linearGradient id="linear-gradient-29" x1="-2681.52" y1="107.76" x2="-2833.26" y2="218.11" xlink:href="#linear-gradient-25"/><linearGradient id="linear-gradient-30" x1="-2790.35" y1="176.42" x2="-2657.92" y2="168.83" xlink:href="#linear-gradient-25"/><linearGradient id="linear-gradient-31" x1="-2723.56" y1="219.31" x2="-2894.97" y2="517.17" xlink:href="#linear-gradient-22"/><linearGradient id="linear-gradient-32" x1="-2380.18" y1="-1677.35" x2="-2436.16" y2="-1603.29" gradientTransform="matrix(-0.95, -0.3, -0.3, 0.95, -2485.11, 1002.85)" xlink:href="#linear-gradient-22"/><linearGradient id="linear-gradient-33" x1="-2422.93" y1="-1659.48" x2="-2356.07" y2="-1659.48" gradientTransform="matrix(-0.95, -0.3, -0.3, 0.95, -2485.11, 1002.85)" xlink:href="#linear-gradient-24"/><linearGradient id="linear-gradient-34" x1="-2462.16" y1="-1618.7" x2="-2417.27" y2="-1664.76" gradientTransform="matrix(-0.95, -0.3, -0.3, 0.95, -2485.11, 1002.85)" xlink:href="#linear-gradient-22"/><linearGradient id="linear-gradient-35" x1="-2713.28" y1="43.75" x2="-2687.64" y2="26.37" gradientTransform="matrix(-0.99, -0.12, -0.12, 0.99, -2364.17, -195.68)" xlink:href="#linear-gradient"/><clipPath id="clip-path"><path class="cls-1" d="M289.78,171.31a1.64,1.64,0,0,0,1.44,1.83l4.34.53a1.64,1.64,0,0,0,1.83-1.43h0a1.64,1.64,0,0,0-1.43-1.83l-4.35-.54a1.65,1.65,0,0,0-1.83,1.44Z"/></clipPath><linearGradient id="linear-gradient-36" x1="-2632.88" y1="-18.55" x2="-2814.35" y2="11.43" gradientTransform="matrix(-0.99, -0.12, -0.12, 0.99, -2364.17, -195.68)" xlink:href="#linear-gradient"/><linearGradient id="linear-gradient-37" x1="-2675.62" y1="10.53" x2="-2775.58" y2="27.04" gradientTransform="matrix(-0.99, -0.12, -0.12, 0.99, -2364.17, -195.68)" xlink:href="#linear-gradient"/><linearGradient id="linear-gradient-38" x1="-2722.62" y1="16.29" x2="-2670.47" y2="15.42" gradientTransform="matrix(-0.99, -0.12, -0.12, 0.99, -2364.17, -195.68)" xlink:href="#linear-gradient"/><linearGradient id="linear-gradient-39" x1="-3786.17" y1="300.61" x2="-4415.37" y2="307.69" gradientTransform="matrix(-1, 0, 0, 1, -3654.55, 0)" xlink:href="#linear-gradient"/><linearGradient id="linear-gradient-40" x1="-4139.86" y1="458.43" x2="-3337.47" y2="161.63" gradientTransform="matrix(-1, 0, 0, 1, -3654.55, 0)" xlink:href="#linear-gradient"/><linearGradient id="linear-gradient-41" x1="-4234.25" y1="529.72" x2="-4023.04" y2="324.06" gradientTransform="matrix(-1, 0, 0, 1, -3654.55, 0)" xlink:href="#linear-gradient"/><linearGradient id="linear-gradient-42" x1="-4056.4" y1="301.97" x2="-4249.82" y2="304.14" gradientTransform="matrix(-1, 0, 0, 1, -3654.55, 0)" xlink:href="#linear-gradient"/><linearGradient id="linear-gradient-43" x1="-3946.85" y1="325.68" x2="-3862.15" y2="283.9" gradientTransform="matrix(-1, 0, 0, 1, -3654.55, 0)" xlink:href="#linear-gradient-24"/><linearGradient id="linear-gradient-44" x1="-3932.9" y1="225.7" x2="-3797.15" y2="225.7" gradientTransform="matrix(-1, 0, 0, 1, -3654.55, 0)" xlink:href="#linear-gradient-24"/><linearGradient id="linear-gradient-45" x1="-3917" y1="318.6" x2="-3919.07" y2="182.48" gradientTransform="matrix(-1, 0, 0, 1, -3654.55, 0)" xlink:href="#linear-gradient-24"/><linearGradient id="linear-gradient-46" x1="-3735.55" y1="272.82" x2="-3718.26" y2="272.82" gradientTransform="matrix(-1, 0.03, 0.03, 1, -3574.26, 36.38)" xlink:href="#linear-gradient"/><linearGradient id="linear-gradient-47" x1="-3915.66" y1="258.87" x2="-3894.93" y2="258.87" gradientTransform="matrix(-1, 0, 0, 1, -3654.55, 0)" xlink:href="#linear-gradient"/><linearGradient id="linear-gradient-48" x1="-3833.06" y1="295.45" x2="-3933.77" y2="296.58" gradientTransform="matrix(-1, 0, 0, 1, -3654.55, 0)" xlink:href="#linear-gradient-24"/><linearGradient id="linear-gradient-49" x1="-3858.13" y1="302.66" x2="-3813.58" y2="243.27" gradientTransform="matrix(-1, 0, 0, 1, -3654.55, 0)" xlink:href="#linear-gradient-24"/><linearGradient id="linear-gradient-50" x1="-3897.87" y1="305.75" x2="-3846.49" y2="241.08" gradientTransform="matrix(-1, 0, 0, 1, -3654.55, 0)" xlink:href="#linear-gradient-24"/><linearGradient id="linear-gradient-51" x1="-3856.28" y1="248.24" x2="-3842.72" y2="306.5" gradientTransform="matrix(-1, 0, 0, 1, -3654.55, 0)" xlink:href="#linear-gradient-24"/><linearGradient id="linear-gradient-52" x1="-3992.81" y1="291.36" x2="-3963.39" y2="291.36" gradientTransform="matrix(-1, 0, 0, 1, -3654.55, 0)" xlink:href="#linear-gradient-24"/><clipPath id="clip-path-2"><path class="cls-2" d="M227.61,403.12l-2.13-18.79h0c-.46-6.47-5.85-12-12.44-12-3.95,0-7.47-.76-9.76,4.25H191.84c-2.28-5-5.8-4.25-9.76-4.25a12.68,12.68,0,0,0-12.44,11.8v.11l-2.13,18.85a5,5,0,0,0,3,5.19l2.11.92a5,5,0,0,0,5.7-1.28l10.08-11.28h18.3l10.08,11.28a5,5,0,0,0,5.7,1.28l2.11-.9A5,5,0,0,0,227.61,403.12Z"/></clipPath><linearGradient id="linear-gradient-53" x1="279.75" y1="-150.5" x2="315.29" y2="-143.25" gradientTransform="translate(103.17 170.44) rotate(5.93)" xlink:href="#linear-gradient-25"/><linearGradient id="linear-gradient-54" x1="7880.3" y1="-1311.35" x2="7915.77" y2="-1304.12" gradientTransform="matrix(-1.05, 0.22, 0.21, 1.01, 8895.32, -329.88)" xlink:href="#linear-gradient-25"/><linearGradient id="linear-gradient-55" x1="252.82" y1="-143.52" x2="223.67" y2="0.66" gradientTransform="translate(103.17 170.44) rotate(5.93)" xlink:href="#linear-gradient-25"/><linearGradient id="linear-gradient-56" x1="239.76" y1="-65.08" x2="287.6" y2="-55.33" gradientTransform="translate(103.17 170.44) rotate(5.93)" xlink:href="#linear-gradient-25"/><linearGradient id="linear-gradient-57" x1="235.84" y1="-179.05" x2="233.86" y2="-94.37" gradientTransform="translate(103.17 170.44) rotate(5.93)" xlink:href="#linear-gradient-25"/><linearGradient id="linear-gradient-58" x1="-3452.14" y1="218.99" x2="-3472.85" y2="282.48" gradientTransform="matrix(-1, 0, 0, 1, -3397.77, 0)" xlink:href="#linear-gradient-22"/><linearGradient id="linear-gradient-59" x1="-3452.6" y1="111.99" x2="-3599.17" y2="411.1" gradientTransform="matrix(-1, 0, 0, 1, -3397.77, 0)" gradientUnits="userSpaceOnUse"><stop offset="0" stop-color="#7c27dd"/><stop offset="1" stop-color="#2b41d9"/></linearGradient><clipPath id="clip-path-3"><path class="cls-2" d="M111.57,191.46,110,177.34h0c-.35-5.91-4.32-9-9.19-9-2.92,0-5.51.1-7.2,3.05H85.17c-1.69-3-4.29-2.8-7.21-2.8a9.5,9.5,0,0,0-9.18,8.88v.16l-1.57,14a3.73,3.73,0,0,0,2.21,3.85l1.56.69a3.85,3.85,0,0,0,4.21-1.3l7.44-8.67H96.14l7.45,8.68a3.75,3.75,0,0,0,4.2,1.12l1.56-.69A3.75,3.75,0,0,0,111.57,191.46Z"/></clipPath><linearGradient id="linear-gradient-60" x1="-3456.52" y1="444.59" x2="-3412.88" y2="444.59" gradientTransform="matrix(-1, 0, 0, 1, -3397.77, 0)" xlink:href="#linear-gradient-22"/><linearGradient id="linear-gradient-61" x1="-3396.53" y1="347" x2="-3418.15" y2="487.48" gradientTransform="matrix(-1, 0, 0, 1, -3397.77, 0)" xlink:href="#linear-gradient"/><linearGradient id="linear-gradient-62" x1="-3442.26" y1="339.96" x2="-3463.88" y2="480.44" gradientTransform="matrix(-1, 0, 0, 1, -3397.77, 0)" xlink:href="#linear-gradient"/><linearGradient id="linear-gradient-63" x1="-3483" y1="447.84" x2="-3457.73" y2="447.84" gradientTransform="matrix(-1, 0, 0, 1, -3397.77, 0)" xlink:href="#linear-gradient-22"/><linearGradient id="linear-gradient-64" x1="-3537.44" y1="258.23" x2="-3487.97" y2="258.23" gradientTransform="matrix(-1, 0, 0, 1, -3397.77, 0)" xlink:href="#linear-gradient-22"/><linearGradient id="linear-gradient-65" x1="-3483.23" y1="285.13" x2="-3390.47" y2="468.83" gradientTransform="matrix(-1, 0, 0, 1, -3397.77, 0)" xlink:href="#linear-gradient-13"/><linearGradient id="linear-gradient-66" x1="-3505.31" y1="333.67" x2="-3424.27" y2="425.07" gradientTransform="matrix(-1, 0, 0, 1, -3397.77, 0)" xlink:href="#linear-gradient-13"/><linearGradient id="linear-gradient-67" x1="-3475.34" y1="282.52" x2="-3459.88" y2="282.52" gradientTransform="matrix(-1, 0, 0, 1, -3397.77, 0)" xlink:href="#linear-gradient-22"/><linearGradient id="linear-gradient-68" x1="-3450.76" y1="262.54" x2="-3338.2" y2="270.19" gradientTransform="matrix(-1, 0, 0, 1, -3397.77, 0)" xlink:href="#linear-gradient-22"/><linearGradient id="linear-gradient-69" x1="-3432.26" y1="255.75" x2="-3471.88" y2="335" gradientTransform="matrix(-1, 0, 0, 1, -3397.77, 0)" xlink:href="#linear-gradient-24"/><linearGradient id="linear-gradient-70" x1="-9769.21" y1="258.44" x2="-9753.72" y2="258.44" gradientTransform="matrix(-1, 0.05, 0.05, 1, -9296.93, 725.71)" xlink:href="#linear-gradient-24"/><linearGradient id="linear-gradient-71" x1="-9705.9" y1="-324.35" x2="-9699.62" y2="-324.35" gradientTransform="matrix(-0.99, -0.11, -0.11, 0.99, -9209.38, -282.32)" xlink:href="#linear-gradient-22"/><linearGradient id="linear-gradient-72" x1="-9688.51" y1="3.44" x2="-9664.2" y2="3.44" gradientTransform="matrix(-1, 0.03, 0.03, 1, -9240.55, 824.15)" xlink:href="#linear-gradient-24"/><linearGradient id="linear-gradient-73" x1="-9682.47" y1="367.47" x2="-9676.22" y2="367.47" gradientTransform="matrix(-0.99, 0.14, 0.14, 0.99, -9201.99, 1434.7)" xlink:href="#linear-gradient-22"/><linearGradient id="linear-gradient-74" x1="-9710.22" y1="-378.93" x2="-9667.61" y2="-378.93" gradientTransform="matrix(-0.99, -0.11, -0.11, 0.99, -9209.38, -282.32)" xlink:href="#linear-gradient-24"/><linearGradient id="linear-gradient-75" x1="-9639.64" y1="-554.53" x2="-9652.36" y2="-484.23" gradientTransform="matrix(-0.99, -0.11, -0.11, 0.99, -9209.38, -282.32)" xlink:href="#linear-gradient-25"/><linearGradient id="linear-gradient-76" x1="-9632.76" y1="-506.49" x2="-9609.53" y2="-506.49" gradientTransform="matrix(-0.99, -0.11, -0.11, 0.99, -9209.38, -282.32)" xlink:href="#linear-gradient-22"/><linearGradient id="linear-gradient-77" x1="-9654.12" y1="-512.73" x2="-9666.84" y2="-392.32" gradientTransform="matrix(-0.99, -0.11, -0.11, 0.99, -9209.38, -282.32)" xlink:href="#linear-gradient-25"/><linearGradient id="linear-gradient-78" x1="-9580.16" y1="-501.43" x2="-9630.35" y2="-438.99" gradientTransform="matrix(-0.99, -0.11, -0.11, 0.99, -9209.38, -282.32)" xlink:href="#linear-gradient-22"/><linearGradient id="linear-gradient-79" x1="-9570.65" y1="-493.78" x2="-9620.84" y2="-431.34" gradientTransform="matrix(-0.99, -0.11, -0.11, 0.99, -9209.38, -282.32)" xlink:href="#linear-gradient-22"/><linearGradient id="linear-gradient-80" x1="-9636.62" y1="-539.16" x2="-9685.23" y2="-449.85" gradientTransform="matrix(-0.99, -0.11, -0.11, 0.99, -9209.38, -282.32)" xlink:href="#linear-gradient-22"/><linearGradient id="linear-gradient-81" x1="-3715.64" y1="239.51" x2="-3823.99" y2="460.62" gradientTransform="matrix(-1, 0, 0, 1, -3397.77, 0)" xlink:href="#linear-gradient-25"/><linearGradient id="linear-gradient-82" x1="-8502.56" y1="-3049.37" x2="-8509.57" y2="-3072.49" gradientTransform="matrix(-0.75, -0.67, -0.67, 0.75, -7942.96, -3091.33)" xlink:href="#linear-gradient-22"/><linearGradient id="linear-gradient-83" x1="-8508.88" y1="-3089.66" x2="-8503.02" y2="-3056.21" gradientTransform="matrix(-0.75, -0.67, -0.67, 0.75, -7942.96, -3091.33)" xlink:href="#linear-gradient-24"/><linearGradient id="linear-gradient-84" x1="-8509.72" y1="-3049.48" x2="-8516.03" y2="-3070.28" gradientTransform="matrix(-0.75, -0.67, -0.67, 0.75, -7942.96, -3091.33)" xlink:href="#linear-gradient-22"/><linearGradient id="linear-gradient-85" x1="-3718.26" y1="210.94" x2="-3700.73" y2="254.91" gradientTransform="translate(4240.36)" xlink:href="#linear-gradient-24"/><linearGradient id="linear-gradient-86" x1="-4015.68" y1="114.37" x2="-3983.3" y2="188.06" gradientTransform="translate(4382.52 -713.06) rotate(-12.16)" xlink:href="#linear-gradient-22"/><linearGradient id="linear-gradient-87" x1="-3654.17" y1="492.47" x2="-3639.31" y2="492.47" gradientTransform="translate(4240.36)" xlink:href="#linear-gradient-7"/><linearGradient id="linear-gradient-88" x1="-3716.99" y1="551.1" x2="-3695.59" y2="301.07" gradientTransform="translate(4240.36)" xlink:href="#linear-gradient-22"/><linearGradient id="linear-gradient-89" x1="-3723.24" y1="489.76" x2="-3699.18" y2="489.76" gradientTransform="translate(4240.36)" xlink:href="#linear-gradient-7"/><linearGradient id="linear-gradient-90" x1="-3673.96" y1="554.82" x2="-3652.56" y2="304.72" gradientTransform="translate(4240.36)" xlink:href="#linear-gradient-22"/><linearGradient id="linear-gradient-91" x1="-3716.46" y1="298.96" x2="-3705.76" y2="398.2" gradientTransform="translate(4240.36)" xlink:href="#linear-gradient-25"/><linearGradient id="linear-gradient-92" x1="-3657.54" y1="303.83" x2="-3711.02" y2="389.41" gradientTransform="translate(4240.36)" xlink:href="#linear-gradient-25"/><linearGradient id="linear-gradient-93" x1="-3719.33" y1="304.65" x2="-3715.31" y2="275.25" gradientTransform="translate(4240.36)" xlink:href="#linear-gradient-22"/><linearGradient id="linear-gradient-94" x1="-3968.65" y1="150.01" x2="-3933.59" y2="87.61" gradientTransform="translate(4377.57 -649.02) rotate(-11.2)" xlink:href="#linear-gradient-22"/><linearGradient id="linear-gradient-95" x1="-3961.11" y1="95.67" x2="-3943.58" y2="139.65" gradientTransform="translate(4377.57 -649.02) rotate(-11.2)" xlink:href="#linear-gradient-24"/><linearGradient id="linear-gradient-96" x1="-3961.19" y1="154.21" x2="-3926.13" y2="91.81" gradientTransform="translate(4377.57 -649.02) rotate(-11.2)" xlink:href="#linear-gradient-22"/><linearGradient id="linear-gradient-97" x1="-4024.16" y1="111.62" x2="-4002.2" y2="161.58" gradientTransform="translate(4382.52 -713.06) rotate(-12.16)" xlink:href="#linear-gradient-22"/><linearGradient id="linear-gradient-98" x1="-2625.31" y1="224.73" x2="-2616.89" y2="224.73" gradientTransform="matrix(-1, 0, 0, 1, -2162.86, 0)" xlink:href="#linear-gradient-22"/><linearGradient id="linear-gradient-99" x1="-2768.19" y1="327.36" x2="-2696.83" y2="327.36" gradientTransform="matrix(-1, 0, 0, 1, -2162.86, 0)" xlink:href="#linear-gradient-22"/><linearGradient id="linear-gradient-100" x1="394.8" y1="-601.9" x2="492.56" y2="-669.14" gradientTransform="translate(1181.77)" xlink:href="#linear-gradient-25"/><linearGradient id="linear-gradient-101" x1="-2129.22" y1="1289.61" x2="-2020.34" y2="1204.15" gradientTransform="translate(1181.77)" xlink:href="#linear-gradient-13"/><linearGradient id="linear-gradient-102" x1="462.97" y1="235.47" x2="484.72" y2="265.54" gradientTransform="matrix(1, 0, 0, 1, 0, 0)" xlink:href="#linear-gradient-22"/><linearGradient id="linear-gradient-103" x1="467.25" y1="233.03" x2="484.87" y2="257.39" gradientTransform="matrix(1, 0, 0, 1, 0, 0)" xlink:href="#linear-gradient-22"/></defs><title>process-finalize</title><polygon class="cls-3" points="93.98 45.46 86.78 55.55 83.05 46.34 93.98 45.46"/><path class="cls-4" d="M52.77,7.31,63,50.63a3.14,3.14,0,0,0,3.89,2.31L110,41.08a1.26,1.26,0,0,0,.27-2.32Z"/><polygon class="cls-5" points="93.98 45.46 52.77 7.31 87.03 47.4 85.15 50.28 93.98 45.46"/><polygon class="cls-6" points="82.89 48.51 86.78 55.55 87.03 47.4 82.89 48.51"/><path class="cls-7" d="M90.42,60.75c.6.87,1.25,1.75,1.9,2.61a.5.5,0,0,1-.09.7.51.51,0,0,1-.7-.1c-.66-.87-1.31-1.74-1.94-2.66a.5.5,0,0,1,.13-.7.51.51,0,0,1,.7.14h0Z"/><path class="cls-7" d="M94.35,65.89l2.13,2.46v0a.5.5,0,0,1,0,.7.49.49,0,0,1-.7-.06l-2.15-2.48a.5.5,0,1,1,.75-.65h0Z"/><path class="cls-7" d="M98.68,70.74,101,73.06h0a.49.49,0,0,1-.7.69L98,71.43a.49.49,0,0,1,.7-.7h0Z"/><path class="cls-7" d="M103.33,75.29l2.43,2.15h0a.49.49,0,0,1,0,.69.48.48,0,0,1-.69,0L102.66,76a.5.5,0,0,1,0-.7.49.49,0,0,1,.69,0h0Z"/><path class="cls-7" d="M108.28,79.5l2.58,2,0,0a.49.49,0,0,1,.09.68.48.48,0,0,1-.68.09l-2.62-2a.49.49,0,1,1,.59-.78h0Z"/><path class="cls-7" d="M113.52,83.33l2.74,1.75h0a.48.48,0,0,1,.14.67.49.49,0,0,1-.67.15L113,84.14a.49.49,0,1,1,.53-.83h0Z"/><path class="cls-7" d="M119.07,86.7l2.87,1.5h0a.5.5,0,0,1,.21.66.48.48,0,0,1-.65.2l-2.92-1.52a.48.48,0,0,1-.21-.65.5.5,0,0,1,.66-.21h0Z"/><path class="cls-7" d="M124.89,89.56c1,.43,2,.84,3,1.21a.49.49,0,0,1-.34.91c-1-.39-2-.79-3-1.23a.48.48,0,0,1-.26-.63.49.49,0,0,1,.64-.26Z"/><path class="cls-7" d="M131,91.83c1,.32,2.07.61,3.12.88a.48.48,0,1,1-.23.93c-1.07-.27-2.13-.57-3.17-.9a.47.47,0,0,1-.32-.6.48.48,0,0,1,.6-.31Z"/><path class="cls-7" d="M137.24,93.42l1.6.26c.53.09,1.06.19,1.6.26a.47.47,0,0,1,.41.53.48.48,0,0,1-.53.42h0c-.54-.06-1.08-.17-1.62-.25l-1.63-.27a.48.48,0,0,1,.16-1h0Z"/><path class="cls-7" d="M143.67,94.3l3.24.24h0a.48.48,0,0,1-.07.95l-3.27-.25a.48.48,0,1,1,.07-.95h0Z"/><path class="cls-7" d="M150.16,94.69l3.26.07h0a.46.46,0,0,1,.46.48.47.47,0,0,1-.48.46l-3.28-.06a.48.48,0,0,1,0-1h0Z"/><path class="cls-7" d="M156.67,94.74l3.25-.11h0a.46.46,0,0,1,.48.45.47.47,0,0,1-.45.49l-3.28.11a.47.47,0,0,1-.49-.45.48.48,0,0,1,.46-.49h0Z"/><path class="cls-7" d="M163.17,94.42l3.23-.31h0a.46.46,0,0,1,.51.42.47.47,0,0,1-.42.51l-3.27.32a.48.48,0,0,1-.51-.42.47.47,0,0,1,.42-.51h0Z"/><path class="cls-7" d="M169.62,93.67c1.07-.17,2.14-.37,3.19-.59a.47.47,0,0,1,.55.36A.45.45,0,0,1,173,94c-1.08.23-2.16.42-3.24.6a.47.47,0,0,1-.15-.92Z"/><path class="cls-7" d="M176,92.32c1-.29,2.07-.61,3.08-1a.46.46,0,0,1,.32.87c-1,.38-2.09.71-3.15,1a.46.46,0,0,1-.57-.32.45.45,0,0,1,.32-.57Z"/><path class="cls-7" d="M182,90.09a22.37,22.37,0,0,0,2.78-1.58.46.46,0,1,1,.51.76,21.76,21.76,0,0,1-2.89,1.65.46.46,0,1,1-.4-.83Z"/><path class="cls-7" d="M187.25,86.51A12.48,12.48,0,0,0,189.2,84a.46.46,0,1,1,.79.47,13.41,13.41,0,0,1-2.09,2.65.46.46,0,1,1-.65-.65Z"/><path class="cls-7" d="M190.41,81.15a11.31,11.31,0,0,0,.29-1.54,5,5,0,0,0,0-1.49.46.46,0,0,1,.37-.53.45.45,0,0,1,.53.36,5.85,5.85,0,0,1,.06,1.77,11.59,11.59,0,0,1-.32,1.66.45.45,0,0,1-.55.33.46.46,0,0,1-.33-.56Z"/><path class="cls-7" d="M189.45,75.3a14.15,14.15,0,0,0-2-2.4.45.45,0,1,1,.62-.66,14.89,14.89,0,0,1,2.19,2.56.46.46,0,0,1-.13.63.45.45,0,0,1-.63-.13Z"/><path class="cls-7" d="M184.89,71a15,15,0,0,0-2.83-1.43.45.45,0,0,1-.26-.58.46.46,0,0,1,.58-.27,16.57,16.57,0,0,1,3,1.52.45.45,0,0,1,.14.62.47.47,0,0,1-.63.14Z"/><path class="cls-7" d="M179,68.88a5.18,5.18,0,0,0-1.48.18,8.12,8.12,0,0,0-1.43.59.45.45,0,0,1-.42-.8h0a8.94,8.94,0,0,1,1.6-.65A5.74,5.74,0,0,1,179,68a.46.46,0,0,1,.45.46.45.45,0,0,1-.46.44Z"/><path class="cls-7" d="M173.8,71.63a9.89,9.89,0,0,0-1.42,2.76.43.43,0,0,1-.56.28.44.44,0,0,1-.28-.56,10.23,10.23,0,0,1,1.55-3,.45.45,0,1,1,.71.55Z"/><path class="cls-7" d="M171.71,77.49c0,.54-.11,1.07-.14,1.6s0,1.07,0,1.61a.44.44,0,1,1-.88,0c0-.55,0-1.11,0-1.66s.1-1.1.15-1.66a.45.45,0,0,1,.48-.4.44.44,0,0,1,.4.48Z"/><path class="cls-7" d="M171.7,83.91a31,31,0,0,0,.53,3.18.44.44,0,0,1-.34.52.42.42,0,0,1-.52-.33,32.81,32.81,0,0,1-.55-3.27.45.45,0,0,1,.39-.49.44.44,0,0,1,.49.39Z"/><path class="cls-7" d="M173.08,90.2c.33,1,.71,2,1.13,3a.45.45,0,0,1-.24.58.44.44,0,0,1-.57-.23c-.43-1-.82-2-1.16-3.1a.44.44,0,1,1,.83-.27Z"/><path class="cls-7" d="M175.59,96.15c.49.95,1,1.89,1.59,2.81a.43.43,0,0,1-.15.6.44.44,0,0,1-.6-.14c-.57-.94-1.11-1.89-1.62-2.87A.43.43,0,0,1,175,96a.44.44,0,0,1,.59.18Z"/><path class="cls-7" d="M179,101.67c.62.89,1.27,1.76,1.93,2.61a.43.43,0,0,1-.68.54c-.68-.87-1.33-1.75-2-2.65a.42.42,0,0,1,.11-.6.43.43,0,0,1,.6.1Z"/><path class="cls-7" d="M182.94,106.79l2.18,2.42h0a.43.43,0,0,1,0,.61.44.44,0,0,1-.61,0l-2.2-2.44a.44.44,0,0,1,0-.62.43.43,0,0,1,.61,0h0Z"/><path class="cls-7" d="M187.39,111.53l2.36,2.23h0a.43.43,0,1,1-.59.63l-2.39-2.25a.42.42,0,0,1,0-.61.43.43,0,0,1,.61,0h0Z"/><path class="cls-7" d="M192.21,115.89l2.54,2h0a.43.43,0,1,1-.53.67l-2.57-2a.45.45,0,0,1-.07-.61.44.44,0,0,1,.61-.06h0Z"/><path class="cls-7" d="M197.37,119.84l2.69,1.83h0a.42.42,0,1,1-.48.7l-2.71-1.84a.44.44,0,0,1-.12-.6.44.44,0,0,1,.6-.11h0Z"/><path class="cls-7" d="M202.81,123.4l2.81,1.65h0a.42.42,0,1,1-.43.73l-2.83-1.65a.42.42,0,1,1,.43-.73h0Z"/><path class="cls-7" d="M208.48,126.6l2.9,1.48h0a.42.42,0,1,1-.38.75l-2.92-1.48a.43.43,0,0,1-.19-.57.42.42,0,0,1,.57-.18h0Z"/><path class="cls-7" d="M214.32,129.47l3,1.33h0a.42.42,0,0,1-.34.77l-3-1.34a.42.42,0,1,1,.34-.76h0Z"/><path class="cls-7" d="M220.3,132.06l3,1.2h0a.41.41,0,0,1,.23.54.42.42,0,0,1-.54.23l-3-1.21a.41.41,0,0,1-.24-.54.42.42,0,0,1,.55-.23Z"/><path class="cls-7" d="M226.38,134.41l3.07,1.11h0a.42.42,0,0,1,.25.53.43.43,0,0,1-.53.25l-3.08-1.11a.41.41,0,0,1-.25-.53.42.42,0,0,1,.53-.25Z"/><path class="cls-7" d="M232.54,136.58l3.09,1h0a.41.41,0,0,1,.26.52.42.42,0,0,1-.52.26l-3.11-1a.41.41,0,1,1,.26-.78h0Z"/><path class="cls-7" d="M238.74,138.61l3.12,1a.41.41,0,0,1,.27.51.43.43,0,0,1-.52.27l-3.12-1a.41.41,0,0,1-.26-.51.4.4,0,0,1,.51-.27Z"/><path class="cls-7" d="M245,140.55l3.12.95a.4.4,0,0,1-.23.77l-3.13-.94a.41.41,0,0,1-.27-.51.4.4,0,0,1,.51-.27Z"/><path class="cls-7" d="M251.23,142.44l3.13.95a.41.41,0,0,1,.27.5.41.41,0,0,1-.5.27l-3.13-.94a.4.4,0,0,1-.27-.51.41.41,0,0,1,.5-.27Z"/><path class="cls-7" d="M257.49,144.34l3.12,1a.41.41,0,0,1,.27.5.42.42,0,0,1-.51.27l-3.12-1a.41.41,0,0,1-.27-.5.39.39,0,0,1,.5-.27Z"/><path class="cls-7" d="M263.73,146.28l3.11,1a.39.39,0,0,1,.26.5.41.41,0,0,1-.5.26h0l-3.1-1a.4.4,0,0,1,.24-.76Z"/><path class="cls-7" d="M270,148.32l3.09,1.07a.38.38,0,0,1,.24.5.39.39,0,0,1-.5.25h0l-3.09-1.07h0a.4.4,0,0,1-.25-.5.4.4,0,0,1,.51-.25Z"/><path class="cls-7" d="M276.12,150.5l3.06,1.16a.4.4,0,0,1,.23.51.4.4,0,0,1-.51.23h0l-3.06-1.15h0a.39.39,0,0,1-.23-.51.4.4,0,0,1,.51-.23Z"/><path class="cls-7" d="M282.22,152.87l3,1.27a.4.4,0,0,1,.21.52.39.39,0,0,1-.51.2h0l-3-1.26h0a.38.38,0,0,1-.21-.51.39.39,0,0,1,.51-.21Z"/><path class="cls-7" d="M288.23,155.48l3,1.41a.39.39,0,1,1-.33.7h0l-2.94-1.4h0a.4.4,0,0,1-.19-.53.4.4,0,0,1,.52-.18Z"/><path class="cls-7" d="M294.11,158.38,297,160a.38.38,0,0,1,.16.52.4.4,0,0,1-.53.16h0l-2.86-1.56h0a.38.38,0,0,1-.15-.53.37.37,0,0,1,.52-.15Z"/><path class="cls-7" d="M299.82,161.6l2.78,1.73a.38.38,0,0,1,.13.52.39.39,0,0,1-.53.13h0l-2.78-1.71h0a.38.38,0,0,1-.13-.53.39.39,0,0,1,.53-.13Z"/><path class="cls-7" d="M305.34,165.13,308,167a.37.37,0,1,1-.42.6h0l-2.67-1.86h0a.37.37,0,1,1,.42-.61Z"/><path class="cls-7" d="M310.66,169l2.55,2.06a.35.35,0,0,1,.06.5.36.36,0,0,1-.5.06h0l-2.54-2h0a.36.36,0,0,1-.06-.51.36.36,0,0,1,.51-.06Z"/><path class="cls-7" d="M315.69,173.19l2.38,2.26a.36.36,0,0,1,0,.49.34.34,0,0,1-.49,0h0l-2.36-2.23h0a.36.36,0,0,1,0-.5.35.35,0,0,1,.5,0Z"/><path class="cls-7" d="M320.33,177.83c.74.81,1.45,1.64,2.14,2.49a.34.34,0,1,1-.52.43c-.68-.84-1.39-1.66-2.12-2.46a.34.34,0,0,1,.5-.46Z"/><path class="cls-7" d="M324.47,182.94l1,1.51a.32.32,0,0,1-.08.45.33.33,0,0,1-.46-.08h0l-1-1.49h0a.34.34,0,0,1,.09-.46.32.32,0,0,1,.45.09Z"/><path class="cls-8" d="M158.53,489.71s-53.25-6.39-78.53-1.4-87.92-22.09-67.17-64.6,44.27-68.85,17.11-92.09-35.7-67.51-7.7-92.39S58.67,240,81,230.79s-6-57,57-70.46S250,187.63,278.62,183s72.71-32.86,103.63-31.67,27.08,42.78,68.11,40.36,73.24-6.62,99.82,28.79,20.19,80.32-5.15,98.06-20.4,41.62,26.33,43,41.46,50.87,3.33,87.41-70.84,37-108.92,39.35S158.53,489.71,158.53,489.71Z"/><path class="cls-9" d="M165.93,487.51s-50.56-6.21-74.57-1.36S7.89,464.7,27.6,423.42s42-66.85,16.24-89.42S10,268.44,36.53,244.29s34.59.7,55.77-8.2-5.72-55.3,54.12-68.42,106.32,26.51,133.53,22S349,157.8,378.34,159,404.05,200.5,443,198.14s69.54-6.42,94.77,28,19.17,78-4.89,95.22-16.53,51.44,27.83,52.77,36.53,38.37.33,73.85-67.25,35.88-103.41,38.21S165.93,487.51,165.93,487.51Z"/><g class="cls-10"><g class="cls-11"><path class="cls-12" d="M599.83,365a2.81,2.81,0,0,0,3.41-4.08c-7.85-13.33-26-37.89-53.24-37.17-37.27,1-64.68,17.94-100.4,78.38C414.89,460.85,335.5,481.25,314,481.78a2.06,2.06,0,0,0-2,1.77h0a2.08,2.08,0,0,0,2.12,2.42c15.08-.75,94.27-5.61,134.25-26.82C490.41,436.89,552.06,345.61,599.83,365Z"/></g><path class="cls-13" d="M577.52,347.6a53.08,53.08,0,0,0-9.1-2.73,66.8,66.8,0,0,0-9.44-1.32c-1.59-.14-3.18-.14-4.77-.18s-3.17,0-4.75.17a72.8,72.8,0,0,0-27.41,7.24,95,95,0,0,0-16.16,10c-10.12,7.7-18.7,17.31-26.21,27.62-1.83,2.62-3.6,5.25-5.42,7.92s-3.58,5.39-5.47,8l-2.81,4-2.89,3.91c-1.9,2.62-3.95,5.13-5.94,7.69-4.1,5-8.32,10-12.83,14.64a175.73,175.73,0,0,1-14.26,13.29,131.32,131.32,0,0,1-33.3,20.14,186.75,186.75,0,0,1-37.28,10.8c-12.7,2.44-25.48,4.19-38.26,5.93a.38.38,0,0,1-.42-.32.38.38,0,0,1,.31-.42c12.71-2.17,25.45-4.15,38-6.89s25-6.14,36.69-11.29a134.25,134.25,0,0,0,32.41-20.15,176.52,176.52,0,0,0,13.94-13.14c4.41-4.63,8.54-9.54,12.56-14.52,1.95-2.54,4-5,5.83-7.65l2.84-3.88,2.75-3.94c1.86-2.61,3.59-5.32,5.38-8s3.66-5.37,5.53-8c7.71-10.47,16.53-20.26,27-28.15a84.4,84.4,0,0,1,35.53-16,71.16,71.16,0,0,1,9.76-1c1.64-.1,3.27,0,4.91,0s3.27.14,4.89.34a59.92,59.92,0,0,1,18.92,4.85.61.61,0,0,1,.3.82.62.62,0,0,1-.8.31Z"/><path class="cls-14" d="M510.21,124.34c-4.06-11-9.72-21.3-15.79-31.36a3.9,3.9,0,0,0-7.18,1.37c-2.58,14.9-12.53,28.61-24.05,39-14.66,13.21-32.24,23-46.27,36.86-28.88,28.55-39.3,70.95-42.13,111.46s.59,81.55-6.3,121.57c-3.28,19.08-9.11,38.17-20.65,53.72C336.5,472.21,319,483.67,300,484.35a.91.91,0,0,0-.87,1h0a.92.92,0,0,0,.59.7c22.46,8.08,48.45-5.06,61.72-25s16.43-45.16,17-69.25-1-48.55,4.66-72a121.42,121.42,0,0,1,36.24-61.19c16.23-14.71,36.1-24.7,54.09-37.19S508.34,192.76,514,171.6C518.16,156.09,515.76,139.4,510.21,124.34Z"/><g class="cls-15"><path class="cls-16" d="M599.64,187.4c-14.46,15.23-35.18,24.85-55.35,32.1-26.38,9.47-54.54,17-75.62,35.49-22,19.3-33.32,48.13-39.58,76.73s-8.29,58.07-15.81,86.37c-7.16,26.91-20.26,53.6-42.5,70.08,18.93-2,34.87-17.41,43-34.91,8.7-18.67,10.51-39.67,13.49-60.05s7.68-41.46,20.79-57.34c25.73-31.17,73.63-31.8,106.51-55.3,17-12.15,29.26-30,37.79-49.13,5.81-13,10-26.63,13.7-40.41A3.81,3.81,0,0,0,599.64,187.4Z"/></g><path class="cls-17" d="M476.7,158a40.73,40.73,0,0,1-1.79,5.61c-.71,1.82-1.49,3.62-2.35,5.38a80.28,80.28,0,0,1-5.87,10.21c-1.05,1.67-2.25,3.23-3.4,4.83-.57.81-1.21,1.57-1.82,2.34l-1.86,2.31c-1.3,1.5-2.64,3-4,4.43l-4.19,4.23c-1.46,1.36-2.95,2.67-4.43,4-.72.68-1.52,1.28-2.29,1.91l-2.32,1.89c-1.53,1.28-3.12,2.44-4.68,3.64s-3.14,2.39-4.69,3.6a219.55,219.55,0,0,0-18,15.1,110,110,0,0,0-14.93,17.67c-2.25,3.14-4.07,6.52-6,9.85-1.66,3.45-3.48,6.85-4.84,10.44a175.82,175.82,0,0,0-7.27,21.84c-.93,3.73-1.77,7.48-2.64,11.22l-2.16,11.33h0a.57.57,0,0,1-1.13-.17c2.08-15.27,5.3-30.52,11.06-45a107.19,107.19,0,0,1,25.91-39.07,222.67,222.67,0,0,1,18.11-15.39c3.09-2.46,6.29-4.82,9.33-7.26l2.28-1.83c.75-.62,1.54-1.2,2.25-1.87,1.45-1.29,2.92-2.57,4.35-3.89l4.16-4.06c1.31-1.42,2.65-2.83,3.95-4.26s2.55-2.92,3.73-4.44,2.41-3,3.49-4.61a98.34,98.34,0,0,0,6.16-9.77c.93-1.68,1.8-3.39,2.59-5.14a50.82,50.82,0,0,0,2.11-5.3v0a.58.58,0,0,1,.72-.37A.55.55,0,0,1,476.7,158Z"/><g class="cls-10"><g class="cls-11"><path class="cls-18" d="M10.5,366a2.81,2.81,0,0,1-3.42-4.08c7.86-13.33,26.06-37.89,53.25-37.17,37.27,1,64.68,17.94,100.39,78.38,34.72,58.76,114.11,79.16,135.56,79.69a2.07,2.07,0,0,1,2,1.77h0a2.09,2.09,0,0,1-2.13,2.42c-15.07-.75-94.27-5.61-134.25-26.82C119.92,437.89,58.27,346.61,10.5,366Z"/></g><path class="cls-13" d="M32.8,348.6a53.19,53.19,0,0,1,9.11-2.73,66.8,66.8,0,0,1,9.44-1.32c1.58-.14,3.18-.14,4.76-.18s3.18,0,4.76.17a76.7,76.7,0,0,1,9.43,1.21,77,77,0,0,1,18,6,94.64,94.64,0,0,1,16.17,10c10.12,7.7,18.69,17.31,26.2,27.62,1.84,2.62,3.61,5.25,5.42,7.92s3.58,5.39,5.48,8l2.8,4,2.9,3.91c1.9,2.62,3.95,5.13,5.94,7.69,4.1,5,8.31,10,12.82,14.64a177.54,177.54,0,0,0,14.27,13.29,131.27,131.27,0,0,0,33.29,20.14,186.65,186.65,0,0,0,37.29,10.8c12.7,2.44,25.48,4.19,38.25,5.93a.37.37,0,0,0,.42-.32.38.38,0,0,0-.3-.42c-12.71-2.17-25.45-4.15-38-6.89s-25-6.14-36.7-11.29a134.19,134.19,0,0,1-32.4-20.15,176.52,176.52,0,0,1-13.94-13.14c-4.41-4.63-8.54-9.54-12.56-14.52-1.95-2.54-4-5-5.83-7.65l-2.84-3.88-2.75-3.94c-1.87-2.61-3.59-5.32-5.39-8s-3.66-5.37-5.53-8c-7.7-10.47-16.52-20.26-27-28.15a84.29,84.29,0,0,0-35.53-16,71,71,0,0,0-9.76-1c-1.63-.1-3.27,0-4.9,0s-3.27.14-4.89.34a59.78,59.78,0,0,0-18.92,4.85.62.62,0,0,0,.49,1.13Z"/><path class="cls-19" d="M100.12,125.34c4.06-11,9.72-21.3,15.79-31.36a3.89,3.89,0,0,1,7.17,1.37c2.58,14.9,12.54,28.61,24,39,14.67,13.21,32.24,23,46.28,36.86,28.87,28.55,39.29,70.95,42.13,111.46s-.6,81.55,6.29,121.57c3.29,19.08,9.11,38.17,20.66,53.72,11.33,15.27,28.89,26.73,47.85,27.41a.89.89,0,0,1,.86,1h0a.9.9,0,0,1-.58.7c-22.46,8.08-48.46-5.06-61.72-25s-16.44-45.16-17-69.25,1-48.55-4.66-72A121.37,121.37,0,0,0,191,259.72C174.76,245,154.9,235,136.91,222.53S102,193.76,96.32,172.6C92.17,157.09,94.56,140.4,100.12,125.34Z"/><g class="cls-15"><path class="cls-20" d="M10.69,188.4C25.14,203.63,45.86,213.25,66,220.5c26.38,9.47,54.53,17,75.61,35.49,22,19.3,33.32,48.13,39.59,76.73s8.28,58.07,15.81,86.37c7.16,26.91,20.25,53.6,42.5,70.08-18.93-2-34.87-17.41-43-34.91-8.69-18.67-10.5-39.67-13.49-60.05s-7.68-41.46-20.79-57.34c-25.72-31.17-73.62-31.8-106.51-55.3-17-12.15-29.26-30-37.78-49.13-5.81-13-10-26.63-13.71-40.41A3.81,3.81,0,0,1,10.69,188.4Z"/></g><path class="cls-17" d="M133.62,159a42.17,42.17,0,0,0,1.8,5.61c.7,1.82,1.49,3.62,2.34,5.38a81.5,81.5,0,0,0,5.87,10.21c1.05,1.67,2.26,3.23,3.41,4.83.56.81,1.21,1.57,1.82,2.34l1.86,2.31c1.29,1.5,2.64,3,4,4.43l4.19,4.23c1.45,1.36,2.95,2.67,4.42,4,.73.68,1.52,1.28,2.29,1.91l2.32,1.89c1.54,1.28,3.12,2.44,4.69,3.64s3.13,2.39,4.69,3.6a221.25,221.25,0,0,1,18,15.1,110.56,110.56,0,0,1,14.93,17.67c2.25,3.14,4.07,6.52,6,9.85,1.66,3.45,3.49,6.85,4.85,10.44a175.82,175.82,0,0,1,7.27,21.84c.92,3.73,1.77,7.48,2.64,11.22l2.16,11.33h0a.57.57,0,0,0,.67.44.55.55,0,0,0,.46-.61c-2.07-15.27-5.29-30.52-11.05-45a107.32,107.32,0,0,0-25.91-39.07,226.13,226.13,0,0,0-18.11-15.39c-3.09-2.46-6.29-4.82-9.33-7.26l-2.28-1.83c-.76-.62-1.54-1.2-2.25-1.87-1.45-1.29-2.92-2.57-4.35-3.89l-4.17-4.06c-1.31-1.42-2.65-2.83-3.94-4.26s-2.55-2.92-3.74-4.44-2.41-3-3.49-4.61a98.24,98.24,0,0,1-6.15-9.77q-1.41-2.52-2.59-5.14a46.76,46.76,0,0,1-2.11-5.3v0a.59.59,0,0,0-.72-.37A.56.56,0,0,0,133.62,159Z"/></g></g><path class="cls-21" d="M434.48,395.75s-8.25-96.33,45.16-126c51.24-28.45,65.54-3.26,89.07-41a2.16,2.16,0,0,1,4,.85c2.82,21.61,7.59,94.8-54.26,109.38C447,355.79,434.48,395.75,434.48,395.75Z"/><path class="cls-22" d="M563.17,250.73s0,.19-.16.52-.27.82-.54,1.46a45.15,45.15,0,0,1-2.6,5.37c-.32.56-.69,1.14-1.06,1.75s-.73,1.26-1.2,1.88c-.91,1.26-1.81,2.69-3,4.07L552.9,268c-.62.73-1.3,1.44-2,2.19l-1,1.13c-.35.39-.7.78-1.09,1.14l-2.35,2.25-1.21,1.16c-.41.39-.86.74-1.3,1.12l-2.69,2.26c-.47.38-.9.8-1.4,1.15l-1.48,1.08-3,2.23-.77.57c-.26.18-.54.34-.81.52-.54.35-1.09.69-1.63,1.05l-3.34,2.13-.84.53-.89.49-1.78,1-3.6,2c-1.2.71-2.49,1.25-3.76,1.87l-3.84,1.83c-.64.3-1.28.62-1.94.91l-2,.81-4,1.64c-1.36.54-2.67,1.09-4.09,1.64l-4.14,1.62L493.73,304l-4.09,1.9a121.42,121.42,0,0,0-15.59,8.92A94.25,94.25,0,0,0,460.56,326c-2,2-3.88,4.09-5.64,6.19s-3.35,4.27-4.79,6.45a90.91,90.91,0,0,0-7.19,12.81c-1.91,4.13-3.4,8-4.62,11.48s-2.17,6.51-2.93,9c-1.49,5-2.35,7.86-2.35,7.86a2.09,2.09,0,1,0,4,1.19v0h0l2.2-7.88c.72-2.49,1.61-5.5,2.73-8.91s2.52-7.2,4.29-11.21A88.28,88.28,0,0,1,453,340.48c1.34-2.12,2.88-4.19,4.49-6.27s3.4-4.1,5.33-6a91.29,91.29,0,0,1,12.87-11,120.09,120.09,0,0,1,15.09-9l4-1.92,4-1.8,4.11-1.69c1.33-.54,2.72-1.15,4.07-1.71l4.06-1.73,2-.85c.66-.31,1.3-.64,2-1l3.86-1.92c1.27-.65,2.57-1.22,3.77-2l3.63-2.08,1.78-1,.89-.51.85-.56,3.35-2.22,1.64-1.09c.27-.19.55-.36.81-.55l.77-.59,3-2.31,1.48-1.13c.5-.36.94-.79,1.4-1.18l2.7-2.35c.44-.39.89-.75,1.3-1.16l1.21-1.2,2.35-2.33c.39-.37.73-.77,1.08-1.17l1-1.17c.68-.77,1.36-1.51,2-2.26l1.74-2.24c1.16-1.42,2-2.89,3-4.19.47-.64.81-1.32,1.19-1.94s.73-1.22,1-1.8a47.78,47.78,0,0,0,2.57-5.55c.26-.65.42-1.19.54-1.54s.15-.53.15-.53v0a.46.46,0,0,0-.36-.56A.46.46,0,0,0,563.17,250.73Z"/><path class="cls-23" d="M87.88,210.74c-.66-5.62,5.74-13.55,17.31-6.55.32-2.66,14.83-10.93,21.56,6.48,1.15-4.22,11.68-2.1,13.58,5,4-1.76,13.49,7.09.88,8.62-16.1,2-53,1.38-59.6-8.28S87.88,210.74,87.88,210.74Z"/><path class="cls-24" d="M155.23,200.43c-.5-4.28,4.37-10.32,13.19-5,.25-2,11.31-8.34,16.43,4.93.88-3.22,8.91-1.6,10.36,3.84,3-1.35,10.27,5.4.67,6.56-12.27,1.49-40.39,1.06-45.43-6.31S155.23,200.43,155.23,200.43Z"/><path class="cls-2" d="M398.79,262.3a.57.57,0,0,1-.41-.17l-9.86-10.43a.56.56,0,0,1-.15-.43l.94-13.83a.58.58,0,0,1,.43-.51l16.68-4.36a.56.56,0,0,1,.6.21l8.53,11.56a.6.6,0,0,1,.1.45L413,258.24a.57.57,0,0,1-.41.45l-13.65,3.6Zm-9.27-11.2,9.45,10,13-3.43,2.54-12.85-8.15-11-15.91,4.16Z"/><path class="cls-2" d="M388.93,251.88a.57.57,0,0,1-.16-1.11l12.79-3.8L406,233a.57.57,0,0,1,1.08.34l-4.55,14.31a.54.54,0,0,1-.38.37l-13.07,3.89Z"/><path class="cls-2" d="M412.43,258.7a.54.54,0,0,1-.4-.17L401.6,247.82a.57.57,0,0,1,.82-.79l10.42,10.71a.56.56,0,0,1,0,.8A.55.55,0,0,1,412.43,258.7Z"/><path class="cls-2" d="M179.56,272.23a.52.52,0,0,1-.41-.18l-8.38-8.86a.58.58,0,0,1-.16-.43l.81-11.76a.56.56,0,0,1,.42-.52l14.18-3.7a.55.55,0,0,1,.6.21l7.26,9.83a.6.6,0,0,1,.1.45l-2.26,11.44a.57.57,0,0,1-.41.44l-11.61,3.06Zm-7.79-9.64,8,8.43,10.93-2.88,2.14-10.85L185.94,248l-13.41,3.5Z"/><path class="cls-2" d="M171.18,263.37a.57.57,0,0,1-.16-1.12L181.85,259l3.77-11.87a.57.57,0,0,1,.72-.37.57.57,0,0,1,.37.71l-3.87,12.17a.56.56,0,0,1-.38.37l-11.12,3.3A.45.45,0,0,1,171.18,263.37Z"/><path class="cls-2" d="M191.16,269.17a.58.58,0,0,1-.41-.17l-8.86-9.11a.57.57,0,0,1,.82-.79l8.86,9.1a.58.58,0,0,1,0,.81A.61.61,0,0,1,191.16,269.17Z"/><path class="cls-2" d="M345.26,296.31a.69.69,0,0,1-.2,0l-9.82-3.77a.57.57,0,0,1-.12-1l8.34-5.83a.6.6,0,0,1,.55-.06.57.57,0,0,1,.34.44l1.48,9.6a.56.56,0,0,1-.57.65Zm-8.61-4.48,7.9,3-1.19-7.72Z"/><path class="cls-2" d="M226.93,234.92a.55.55,0,0,1-.3-.09.61.61,0,0,1-.27-.51L227,220.1a.58.58,0,0,1,.33-.49.55.55,0,0,1,.58,0l11.08,8.2a.56.56,0,0,1-.08,1l-11.68,6A.68.68,0,0,1,226.93,234.92Zm1.13-13.7-.51,12.17,10-5.16Z"/><path class="cls-2" d="M325.47,226.75a3.5,3.5,0,1,1,3.5-3.5A3.5,3.5,0,0,1,325.47,226.75Zm0-5.86a2.36,2.36,0,1,0,2.36,2.36A2.36,2.36,0,0,0,325.47,220.89Z"/><path class="cls-2" d="M254.1,299.34a5.28,5.28,0,1,1,5.28-5.28A5.29,5.29,0,0,1,254.1,299.34Zm0-9.42a4.14,4.14,0,1,0,4.14,4.14A4.15,4.15,0,0,0,254.1,289.92Z"/><path class="cls-25" d="M185,361.25l-4.55.11C166,334.48,131.65,290,97.76,293.19c-23,2.18-35.56-3.52-47.29-25.19C42.64,253.55,32,246.82,25.81,243.94a1.37,1.37,0,0,1,.43-2.6c14-1.41,51.43-3.21,79.59,13.57C141.08,275.92,185,361.25,185,361.25Z"/><path class="cls-22" d="M53.52,248.35h.12l.37,0h.62l.83,0c.64,0,1.4.07,2.31.13.45,0,.93.1,1.45.15s1.06.11,1.64.21l1.81.3c.32.05.65.09,1,.16l1,.22,2.14.45,2.27.6A98.7,98.7,0,0,1,79.36,254c.47.17.93.37,1.39.57l1.42.6,2.9,1.25L88,257.82c1,.49,2,1,3,1.49l3,1.67,1.55.84c.52.29,1,.56,1.55.88l3.09,1.89,1.56,1c.53.32,1.07.63,1.57,1l6.26,4.23,6.22,4.61c4.12,3.17,8.18,6.6,12.09,10.16s7.68,7.28,11.27,11,7,7.6,10.21,11.38c6.42,7.55,12,14.94,16.6,21.41s8.18,12,10.61,16c1.22,2,2.15,3.53,2.78,4.61q.47.81.72,1.23l.24.43a1.16,1.16,0,1,1-2,1.14h0v0l-.92-1.62c-.62-1.07-1.53-2.62-2.72-4.58-2.39-3.92-5.92-9.47-10.43-15.93s-10-13.84-16.33-21.39c-3.16-3.77-6.52-7.59-10.06-11.36s-7.25-7.49-11.1-11.05-7.83-7-11.91-10.16L108.74,272l-6.18-4.24c-.5-.36-1-.66-1.54-1l-1.55-1-3-1.89c-.5-.33-1-.6-1.53-.89l-1.52-.85-3-1.66c-1-.54-2-1-3-1.5l-2.89-1.44-2.86-1.25-1.39-.61c-.46-.2-.91-.41-1.38-.57a95.17,95.17,0,0,0-10.14-3.44l-2.23-.61-2.1-.46-1-.22c-.32-.07-.64-.11-1-.17L60.69,250c-.56-.1-1.1-.14-1.6-.21s-1-.13-1.42-.16c-.88-.06-1.63-.14-2.24-.14l-.8,0H53.58a.55.55,0,0,1-.06-1.1Z"/><polygon class="cls-26" points="451.85 129.32 466.64 128.27 485.1 182.31 460.9 303.6 437.94 300.21 451.85 129.32"/><polygon class="cls-27" points="363.56 295.15 392.8 184.28 410.25 124.26 451.85 129.33 470.99 185.21 444.71 300.37 363.49 300.37 363.56 295.15"/><polygon class="cls-28" points="466.64 128.27 429.4 122.88 410.25 124.24 451.85 129.32 466.64 128.27"/><polygon class="cls-29" points="458.37 182.36 438.09 175.97 438.09 150.52 448.23 151.42 458.37 182.36"/><polygon class="cls-30" points="421.09 147.37 411.78 145.04 403.32 173.16 417.07 173.16 421.09 147.37"/><path class="cls-31" d="M295.76,468.14l4.59,16.1a5.49,5.49,0,0,1-2.49,6.33,14.11,14.11,0,0,1-4.61,1.5,6.39,6.39,0,0,1-6.9-3.6l-5.86-12.67Z"/><path class="cls-32" d="M356.8,328.89s-69.3,8.1-100.25,33.68S277.28,478,277.28,478s9.25.45,21-8.54c0,0-29.88-67.1,0-84.54,33.62-19.6,71.28-22.36,71.28-22.36L357.35,331Z"/><path class="cls-33" d="M424,311.94s13,41.6-2.94,53.15-53.06,23.5-62.55,47.75-18.74,59.86-38.12,75.84c0,0-19.22,5.43-23.79,0,0,0,13.6-66.86,21.55-84.86,6.88-15.59,17-38.07,34.64-50,5.06-3.41,4.53-9.27,2.6-15l-3.53-10.53Z"/><path class="cls-34" d="M266.78,271.2c25.48,3,19.77-38.32,19.4-40l37.28,29.55s-3.26,21.72-36.15,31.39a40,40,0,0,1-22.3.38A35.27,35.27,0,0,0,266.78,271.2Z"/><path class="cls-35" d="M218,256.18c9.89-6.1,20.32,1.12,20.32,1.12,12.27,9,21.5,13.1,28.42,13.9A35.27,35.27,0,0,1,265,292.55c-14.1-3.85-23.73-14.74-27.87-20.28a4.61,4.61,0,0,0-6.34-1c-2.07,1.45-4.12,3.49-3.89,5.77.44,4.49-4.8,5.62-5.1,4s2.38-11.09,2.38-11.09-10.9,9.82-15.16,13.59-9.1-.5-9.1-.5S208.15,262.28,218,256.18Z"/><path class="cls-36" d="M391.72,173.81S355.35,156.86,283,210.17c0,0-6.44,11.65-.72,22.65s62.93,66.21,69.6,95.44c0,0,35.16,13.61,73.7-11.93C425.57,316.33,426.73,236.06,391.72,173.81Z"/><path class="cls-37" d="M318.94,156.46,336,179.66a7.31,7.31,0,0,1,.52,7.89c-2.82,5-9.27,12.25-22.58,10.47a11.27,11.27,0,0,1-8.89-6.81L293.73,164Z"/><path class="cls-38" d="M415.25,270.44C420.54,253.1,379,211.49,379,211.49l12.74-37.68s90.94,68.07,64.09,117.28a36.83,36.83,0,0,1-14.21,15C435.12,285.19,423.53,275.13,415.25,270.44Z"/><path class="cls-39" d="M415.43,267.88a1,1,0,0,0,1-.73c5.41-17.73-34.81-58.27-36.53-60a1,1,0,0,0-1.46,1.47c.41.41,41.06,41.36,36,57.92a1,1,0,0,0,.69,1.29A1,1,0,0,0,415.43,267.88Z"/><path class="cls-40" d="M349.11,265.27s50.73,23,64.22,8.55a8.4,8.4,0,0,0,1.92-3.38c8.28,4.69,19.87,14.75,26.35,35.63-28.23,15.92-73.34-13.77-85.5-22.46a9.39,9.39,0,0,0-6.89-1.66c-4.92.74-13.4,1.75-17.89.81-6.57-1.39-17.37,21.45-27.71,13.65C303.61,296.41,315.05,256.3,349.11,265.27Z"/><path class="cls-41" d="M280.91,121.66c-.23.7,1.57,49.46,1.57,49.46l27.82-1.62L315.46,123S284.65,109.89,280.91,121.66Z"/><path class="cls-42" d="M307.73,132.3,306.92,157a3.62,3.62,0,0,1-.15.93c-.59,1.84-3.07,8-9.26,5.13-5.63-2.65-10.8-5-14.73-4.46a3.44,3.44,0,0,0-3,3.54,149.11,149.11,0,0,0,2.53,23,3.43,3.43,0,0,0,3.78,2.69c5.33-.64,16.54-2.3,25.24-5.75a3.44,3.44,0,0,0,2.17-2.78c.75-6.14,3.11-24.78,4.58-29.88,1.37-4.78,7.84-6.71,10.61-7.32a3.36,3.36,0,0,0,2.17-1.56c1.7-2.82,4.52-9.52-3.8-13.84a3.46,3.46,0,0,1-1.43-4.76c1.91-3.41,3.38-8.86-2.92-13s-12.18-1.41-15.47,1.12a3.45,3.45,0,0,1-4.42-.21,2.73,2.73,0,0,0-3.08-.4,3.4,3.4,0,0,1-4.5-2.23c-1.09-3.67-3.87-7.88-10.83-7.84-12.35.06-15.93,13.15-14.05,21.48s15.27,7.5,22.39,4.64c5.42-2.18,11.28,2,13.78,4.15A3.45,3.45,0,0,1,307.73,132.3Z"/><path class="cls-43" d="M317.7,158.37s-2.64-14.65,3-17.19,12.86.46,9.54,10.2C326.11,163.5,317.7,158.37,317.7,158.37Z"/><path class="cls-44" d="M295.79,173.11c17.09.46,26.14-17.63,26.23-17.81l-1.17-.58c-.09.18-8.78,17.52-25,17.08Z"/><g class="cls-45"><polygon class="cls-46" points="297.73 173.03 297.55 174.63 297.53 174.63 297.73 173.03"/><polygon class="cls-46" points="298.05 170.66 297.46 175 297.51 175.01 297.3 172.98 297.59 170.61 298.05 170.66"/><polygon class="cls-47" points="298.01 170.66 297.41 175 297.46 175 298.05 170.66 298.01 170.66"/><polygon class="cls-48" points="297.96 170.65 297.36 174.99 297.41 175 298.01 170.66 297.96 170.65"/><polygon class="cls-49" points="297.91 170.64 297.31 174.98 297.36 174.99 297.96 170.65 297.91 170.64"/><polygon class="cls-50" points="297.86 170.64 297.26 174.98 297.31 174.98 297.91 170.64 297.86 170.64"/><polygon class="cls-51" points="297.81 170.63 297.22 174.97 297.26 174.98 297.86 170.64 297.81 170.63"/><polygon class="cls-52" points="297.76 170.63 297.17 174.97 297.22 174.97 297.81 170.63 297.76 170.63"/><polygon class="cls-53" points="297.72 170.62 297.12 174.96 297.17 174.97 297.76 170.63 297.72 170.62"/><polygon class="cls-54" points="297.67 170.62 297.07 174.96 297.12 174.96 297.72 170.62 297.67 170.62"/><polygon class="cls-55" points="297.62 170.61 297.02 174.95 297.07 174.96 297.67 170.62 297.62 170.61"/><polygon class="cls-56" points="297.57 170.6 296.98 174.94 297.02 174.95 297.62 170.61 297.57 170.6"/><polygon class="cls-57" points="297.52 170.6 296.93 174.94 296.98 174.94 297.57 170.6 297.52 170.6"/><polygon class="cls-58" points="297.48 170.59 296.88 174.93 296.93 174.94 297.52 170.6 297.48 170.59"/><polygon class="cls-59" points="297.43 170.59 296.83 174.93 296.88 174.93 297.48 170.59 297.43 170.59"/><polygon class="cls-60" points="297.38 170.58 296.78 174.92 296.83 174.93 297.43 170.59 297.38 170.58"/><polygon class="cls-61" points="297.33 170.57 296.73 174.91 296.78 174.92 297.38 170.58 297.33 170.57"/><polygon class="cls-62" points="297.28 170.57 296.69 174.91 296.73 174.91 297.33 170.57 297.28 170.57"/><polygon class="cls-63" points="297.23 170.56 296.64 174.9 296.69 174.91 297.28 170.57 297.23 170.56"/><polygon class="cls-64" points="297.19 170.56 296.59 174.9 296.64 174.9 297.23 170.56 297.19 170.56"/><polygon class="cls-65" points="297.14 170.55 296.54 174.89 296.59 174.9 297.19 170.56 297.14 170.55"/><polygon class="cls-66" points="297.09 170.54 296.49 174.88 296.54 174.89 297.14 170.55 297.09 170.54"/><polygon class="cls-67" points="297.04 170.54 296.44 174.88 296.49 174.88 297.09 170.54 297.04 170.54"/><polygon class="cls-68" points="296.99 170.53 296.4 174.87 296.44 174.88 297.04 170.54 296.99 170.53"/><polygon class="cls-69" points="296.94 170.53 296.35 174.87 296.4 174.87 296.99 170.53 296.94 170.53"/><polygon class="cls-70" points="296.9 170.52 296.3 174.86 296.35 174.87 296.94 170.53 296.9 170.52"/><polygon class="cls-71" points="296.85 170.51 296.25 174.85 296.3 174.86 296.9 170.52 296.85 170.51"/><polygon class="cls-72" points="296.8 170.51 296.2 174.85 296.25 174.85 296.85 170.51 296.8 170.51"/><polygon class="cls-73" points="296.75 170.5 296.15 174.84 296.2 174.85 296.8 170.51 296.75 170.5"/><polygon class="cls-74" points="296.7 170.5 296.11 174.84 296.15 174.84 296.75 170.5 296.7 170.5"/><polygon class="cls-75" points="296.65 170.49 296.06 174.83 296.11 174.84 296.7 170.5 296.65 170.49"/><polygon class="cls-76" points="296.61 170.49 296.01 174.82 296.06 174.83 296.65 170.49 296.61 170.49"/><polygon class="cls-77" points="296.56 170.48 295.96 174.82 296.01 174.82 296.61 170.49 296.56 170.48"/><polygon class="cls-78" points="296.51 170.47 295.91 174.81 295.96 174.82 296.56 170.48 296.51 170.47"/><polygon class="cls-79" points="296.46 170.47 295.87 174.81 295.91 174.81 296.51 170.47 296.46 170.47"/><polygon class="cls-80" points="296.41 170.46 295.82 174.8 295.87 174.81 296.46 170.47 296.41 170.46"/><polygon class="cls-81" points="296.37 170.46 295.77 174.79 295.82 174.8 296.41 170.46 296.37 170.46"/><polygon class="cls-82" points="296.32 170.45 295.72 174.79 295.77 174.79 296.37 170.46 296.32 170.45"/><polygon class="cls-83" points="296.27 170.44 295.67 174.78 295.72 174.79 296.32 170.45 296.27 170.44"/><polygon class="cls-84" points="296.22 170.44 295.62 174.78 295.67 174.78 296.27 170.44 296.22 170.44"/><polygon class="cls-85" points="296.17 170.43 295.57 174.77 295.62 174.78 296.22 170.44 296.17 170.43"/><polygon class="cls-86" points="296.12 170.43 295.53 174.77 295.57 174.77 296.17 170.43 296.12 170.43"/><polygon class="cls-87" points="296.07 170.42 295.48 174.76 295.53 174.77 296.12 170.43 296.07 170.42"/><polygon class="cls-88" points="296.03 170.41 295.43 174.75 295.48 174.76 296.07 170.42 296.03 170.41"/><polygon class="cls-89" points="295.98 170.41 295.38 174.75 295.43 174.75 296.03 170.41 295.98 170.41"/><polygon class="cls-90" points="295.93 170.4 295.33 174.74 295.38 174.75 295.98 170.41 295.93 170.4"/><polygon class="cls-91" points="295.88 170.4 295.29 174.74 295.33 174.74 295.93 170.4 295.88 170.4"/><polygon class="cls-92" points="295.83 170.39 295.24 174.73 295.29 174.74 295.88 170.4 295.83 170.39"/><polygon class="cls-93" points="295.79 170.38 295.19 174.72 295.24 174.73 295.83 170.39 295.79 170.38"/><polygon class="cls-94" points="295.74 170.38 295.14 174.72 295.19 174.72 295.79 170.38 295.74 170.38"/><polygon class="cls-95" points="295.69 170.37 295.09 174.71 295.14 174.72 295.74 170.38 295.69 170.37"/><polygon class="cls-96" points="295.64 170.37 295.04 174.71 295.09 174.71 295.69 170.37 295.64 170.37"/><polygon class="cls-97" points="295.59 170.36 295 174.7 295.04 174.71 295.64 170.37 295.59 170.36"/><polygon class="cls-98" points="295.54 170.35 294.95 174.69 295 174.7 295.59 170.36 295.54 170.35"/><polygon class="cls-99" points="295.5 170.35 294.9 174.69 294.95 174.69 295.54 170.35 295.5 170.35"/><polygon class="cls-100" points="295.45 170.34 294.85 174.68 294.9 174.69 295.5 170.35 295.45 170.34"/><polygon class="cls-101" points="295.4 170.34 294.8 174.68 294.85 174.68 295.45 170.34 295.4 170.34"/><polygon class="cls-102" points="295.35 170.33 294.75 174.67 294.8 174.68 295.4 170.34 295.35 170.33"/><polygon class="cls-103" points="295.3 170.33 294.71 174.67 294.75 174.67 295.35 170.33 295.3 170.33"/><polygon class="cls-104" points="295.25 170.32 294.66 174.66 294.71 174.67 295.3 170.33 295.25 170.32"/><polygon class="cls-105" points="295.21 170.31 294.61 174.65 294.66 174.66 295.25 170.32 295.21 170.31"/><polygon class="cls-106" points="295.16 170.31 294.56 174.65 294.61 174.65 295.21 170.31 295.16 170.31"/><polygon class="cls-107" points="295.11 170.3 294.51 174.64 294.56 174.65 295.16 170.31 295.11 170.3"/><polygon class="cls-108" points="295.06 170.3 294.46 174.64 294.51 174.64 295.11 170.3 295.06 170.3"/><polygon class="cls-109" points="295.01 170.29 294.42 174.63 294.46 174.64 295.06 170.3 295.01 170.29"/><polygon class="cls-110" points="294.96 170.28 294.37 174.62 294.42 174.63 295.01 170.29 294.96 170.28"/><polygon class="cls-111" points="294.92 170.28 294.32 174.62 294.37 174.62 294.96 170.28 294.92 170.28"/><polygon class="cls-112" points="294.87 170.27 294.27 174.61 294.32 174.62 294.92 170.28 294.87 170.27"/><polygon class="cls-113" points="294.82 170.27 294.22 174.61 294.27 174.61 294.87 170.27 294.82 170.27"/><polygon class="cls-114" points="294.77 170.26 294.18 174.6 294.22 174.61 294.82 170.27 294.77 170.26"/><polygon class="cls-115" points="294.72 170.25 294.13 174.59 294.18 174.6 294.77 170.26 294.72 170.25"/><polygon class="cls-116" points="294.68 170.25 294.08 174.59 294.13 174.59 294.72 170.25 294.68 170.25"/><polygon class="cls-117" points="294.63 170.24 294.03 174.58 294.08 174.59 294.68 170.25 294.63 170.24"/><polygon class="cls-118" points="294.58 170.24 293.98 174.58 294.03 174.58 294.63 170.24 294.58 170.24"/><polygon class="cls-119" points="294.53 170.23 293.93 174.57 293.98 174.58 294.58 170.24 294.53 170.23"/><polygon class="cls-120" points="294.48 170.22 293.89 174.56 293.93 174.57 294.53 170.23 294.48 170.22"/><polygon class="cls-121" points="294.43 170.22 293.84 174.56 293.89 174.56 294.48 170.22 294.43 170.22"/><polygon class="cls-122" points="294.39 170.21 293.79 174.55 293.84 174.56 294.43 170.22 294.39 170.21"/><polygon class="cls-123" points="294.34 170.21 293.74 174.55 293.79 174.55 294.39 170.21 294.34 170.21"/><polygon class="cls-124" points="294.29 170.2 293.69 174.54 293.74 174.55 294.34 170.21 294.29 170.2"/><polygon class="cls-125" points="294.24 170.2 293.64 174.54 293.69 174.54 294.29 170.2 294.24 170.2"/><polygon class="cls-126" points="294.19 170.19 293.6 174.53 293.64 174.54 294.24 170.2 294.19 170.19"/><polygon class="cls-127" points="294.14 170.18 293.55 174.52 293.6 174.53 294.19 170.19 294.14 170.18"/><polygon class="cls-128" points="294.1 170.18 293.5 174.52 293.55 174.52 294.14 170.18 294.1 170.18"/><polygon class="cls-129" points="294.05 170.17 293.45 174.51 293.5 174.52 294.1 170.18 294.05 170.17"/><polygon class="cls-130" points="294 170.17 293.4 174.51 293.45 174.51 294.05 170.17 294 170.17"/><polygon class="cls-131" points="293.95 170.16 293.36 174.5 293.4 174.51 294 170.17 293.95 170.16"/><polygon class="cls-132" points="293.9 170.15 293.31 174.49 293.36 174.5 293.95 170.16 293.9 170.15"/><polygon class="cls-133" points="293.86 170.15 293.26 174.49 293.31 174.49 293.9 170.15 293.86 170.15"/><polygon class="cls-134" points="293.81 170.14 293.21 174.48 293.26 174.49 293.86 170.15 293.81 170.14"/><polygon class="cls-135" points="293.76 170.14 293.16 174.48 293.21 174.48 293.81 170.14 293.76 170.14"/><polygon class="cls-136" points="293.71 170.13 293.11 174.47 293.16 174.48 293.76 170.14 293.71 170.13"/><polygon class="cls-137" points="293.66 170.13 293.06 174.47 293.11 174.47 293.71 170.13 293.66 170.13"/><polygon class="cls-138" points="293.61 170.12 293.02 174.46 293.06 174.47 293.66 170.13 293.61 170.12"/><polygon class="cls-139" points="293.56 170.11 292.97 174.45 293.02 174.46 293.61 170.12 293.56 170.11"/><polygon class="cls-140" points="293.52 170.11 292.92 174.45 292.97 174.45 293.56 170.11 293.52 170.11"/><polygon class="cls-141" points="293.47 170.1 292.87 174.44 292.92 174.45 293.52 170.11 293.47 170.1"/><polygon class="cls-142" points="293.42 170.09 292.82 174.44 292.87 174.44 293.47 170.1 293.42 170.09"/><polygon class="cls-143" points="293.37 170.09 292.77 174.43 292.82 174.44 293.42 170.09 293.37 170.09"/><polygon class="cls-144" points="293.32 170.08 292.73 174.42 292.77 174.43 293.37 170.09 293.32 170.08"/><polygon class="cls-145" points="293.27 170.08 292.68 174.42 292.73 174.42 293.32 170.08 293.27 170.08"/><polygon class="cls-146" points="293.23 170.07 292.63 174.41 292.68 174.42 293.27 170.08 293.23 170.07"/><polygon class="cls-147" points="293.18 170.07 292.58 174.41 292.63 174.41 293.23 170.07 293.18 170.07"/><polygon class="cls-148" points="293.13 170.06 292.53 174.4 292.58 174.41 293.18 170.07 293.13 170.06"/><polygon class="cls-149" points="293.08 170.05 292.49 174.39 292.53 174.4 293.13 170.06 293.08 170.05"/><polygon class="cls-150" points="293.03 170.05 292.44 174.39 292.49 174.39 293.08 170.05 293.03 170.05"/><polygon class="cls-151" points="292.99 170.04 292.39 174.38 292.44 174.39 293.03 170.05 292.99 170.04"/><polygon class="cls-152" points="292.94 170.04 292.34 174.38 292.39 174.38 292.99 170.04 292.94 170.04"/><polygon class="cls-153" points="292.89 170.03 292.29 174.37 292.34 174.38 292.94 170.04 292.89 170.03"/><polygon class="cls-154" points="292.84 170.02 292.24 174.36 292.29 174.37 292.89 170.03 292.84 170.02"/><polygon class="cls-155" points="292.79 170.02 292.2 174.36 292.24 174.36 292.84 170.02 292.79 170.02"/><polygon class="cls-156" points="292.74 170.01 292.15 174.35 292.2 174.36 292.79 170.02 292.74 170.01"/><polygon class="cls-157" points="292.7 170.01 292.1 174.35 292.15 174.35 292.74 170.01 292.7 170.01"/><polygon class="cls-158" points="292.65 170 292.05 174.34 292.1 174.35 292.7 170.01 292.65 170"/><polygon class="cls-159" points="292.6 170 292 174.34 292.05 174.34 292.65 170 292.6 170"/><polygon class="cls-160" points="292.55 169.99 291.95 174.33 292 174.34 292.6 170 292.55 169.99"/><polygon class="cls-161" points="292.5 169.98 291.91 174.32 291.95 174.33 292.55 169.99 292.5 169.98"/><polygon class="cls-162" points="292.45 169.98 291.86 174.32 291.91 174.32 292.5 169.98 292.45 169.98"/><polygon class="cls-163" points="292.41 169.97 291.81 174.31 291.86 174.32 292.45 169.98 292.41 169.97"/><polygon class="cls-164" points="292.36 169.97 291.76 174.31 291.81 174.31 292.41 169.97 292.36 169.97"/><polygon class="cls-165" points="292.31 169.96 291.71 174.3 291.76 174.31 292.36 169.97 292.31 169.96"/><polygon class="cls-166" points="292.26 169.95 291.67 174.29 291.71 174.3 292.31 169.96 292.26 169.95"/><polygon class="cls-167" points="292.21 169.95 291.62 174.29 291.67 174.29 292.26 169.95 292.21 169.95"/><polygon class="cls-168" points="292.17 169.94 291.57 174.28 291.62 174.29 292.21 169.95 292.17 169.94"/><polygon class="cls-169" points="292.12 169.94 291.52 174.28 291.57 174.28 292.17 169.94 292.12 169.94"/><polygon class="cls-170" points="292.07 169.93 291.47 174.27 291.52 174.28 292.12 169.94 292.07 169.93"/><polygon class="cls-171" points="292.02 169.92 291.42 174.26 291.47 174.27 292.07 169.93 292.02 169.92"/><polygon class="cls-172" points="291.97 169.92 291.38 174.26 291.42 174.26 292.02 169.92 291.97 169.92"/><polygon class="cls-173" points="291.92 169.91 291.33 174.25 291.38 174.26 291.97 169.92 291.92 169.91"/><polygon class="cls-174" points="291.88 169.91 291.28 174.25 291.33 174.25 291.92 169.91 291.88 169.91"/><polygon class="cls-175" points="291.83 169.9 291.23 174.24 291.28 174.25 291.88 169.91 291.83 169.9"/><polygon class="cls-176" points="291.78 169.9 291.18 174.24 291.23 174.24 291.83 169.9 291.78 169.9"/><polygon class="cls-177" points="291.73 169.89 291.13 174.23 291.18 174.24 291.78 169.9 291.73 169.89"/><polygon class="cls-178" points="291.68 169.88 291.09 174.22 291.13 174.23 291.73 169.89 291.68 169.88"/><polygon class="cls-179" points="291.63 169.88 291.04 174.22 291.09 174.22 291.68 169.88 291.63 169.88"/><polygon class="cls-180" points="291.59 169.87 290.99 174.21 291.04 174.22 291.63 169.88 291.59 169.87"/><polygon class="cls-181" points="291.54 169.87 290.94 174.21 290.99 174.21 291.59 169.87 291.54 169.87"/><polygon class="cls-182" points="291.49 169.86 290.89 174.2 290.94 174.21 291.54 169.87 291.49 169.86"/><polygon class="cls-183" points="291.44 169.85 290.85 174.19 290.89 174.2 291.49 169.86 291.44 169.85"/><polygon class="cls-184" points="291.39 169.85 290.8 174.19 290.85 174.19 291.44 169.85 291.39 169.85"/><polygon class="cls-185" points="291.34 169.84 290.75 174.18 290.8 174.19 291.39 169.85 291.34 169.84"/><polygon class="cls-186" points="291.3 169.84 290.7 174.18 290.75 174.18 291.34 169.84 291.3 169.84"/><polygon class="cls-187" points="291.25 169.83 290.65 174.17 290.7 174.18 291.3 169.84 291.25 169.83"/><polygon class="cls-188" points="291.2 169.82 290.6 174.16 290.65 174.17 291.25 169.83 291.2 169.82"/><polygon class="cls-189" points="291.15 169.82 290.56 174.16 290.6 174.16 291.2 169.82 291.15 169.82"/><polygon class="cls-190" points="291.1 169.81 290.51 174.15 290.56 174.16 291.15 169.82 291.1 169.81"/><polygon class="cls-191" points="291.06 169.81 290.46 174.15 290.51 174.15 291.1 169.81 291.06 169.81"/><polygon class="cls-192" points="291.01 169.8 290.41 174.14 290.46 174.15 291.06 169.81 291.01 169.8"/><polygon class="cls-193" points="290.96 169.79 290.36 174.13 290.41 174.14 291.01 169.8 290.96 169.79"/><polygon class="cls-194" points="290.91 169.79 290.31 174.13 290.36 174.13 290.96 169.79 290.91 169.79"/><polygon class="cls-195" points="290.86 169.78 290.26 174.12 290.31 174.13 290.91 169.79 290.86 169.78"/><polygon class="cls-196" points="290.81 169.78 290.22 174.12 290.26 174.12 290.86 169.78 290.81 169.78"/><polygon class="cls-197" points="290.76 169.77 290.81 171.94 290.54 174.16 290.22 174.12 290.81 169.78 290.76 169.77"/><polygon class="cls-197" points="290.49 171.9 290.71 170.22 290.7 170.22 290.49 171.9"/></g><path class="cls-198" d="M321.25,138.16s-7.47-26.91-24.56-28.89a12.28,12.28,0,0,1,9.8-.15c5.16,2.24,18.63,15,19,29.56C322.16,139.93,321.25,138.16,321.25,138.16Z"/><path class="cls-199" d="M323,134.18c9.46,1.45,8.88,13.35,8.88,13.35,1.09,8.56-1.22,12.94-4.33,15.12a7.41,7.41,0,0,1-11.6-5.16c-.29-2.33-.59-4.55-.8-5.33C314.59,150.27,313.51,132.73,323,134.18Z"/><path class="cls-200" d="M322.25,137.22A4.27,4.27,0,0,1,327,139.5c6.22,12.69-.24,21.46-3.61,21.8-3.54.35-4.3-16.75-3.75-21.18A3.12,3.12,0,0,1,322.25,137.22Z"/><path class="cls-201" d="M95.43,302.57a5.71,5.71,0,0,0,5.86,5.48H509.11a5.71,5.71,0,0,0,5.86-5.48h0a5.71,5.71,0,0,0-5.86-5.49H101.29a5.71,5.71,0,0,0-5.86,5.49Z"/><path class="cls-202" d="M101.63,308.05c10.9,59.22,21.81,117.83,32.72,176.8.64,3.44,3.74,6.35,6.77,6.35H472.7c3,0,6.37-2.91,7-6.35,10.91-59,21.82-117.58,32.73-176.8Z"/><path class="cls-203" d="M366.69,308.05c4.36,60.32,8.71,122.83,13.06,183.15H472.7c3,0,6.37-2.91,7-6.35,10.91-59,21.82-117.58,32.73-176.8Z"/><path class="cls-204" d="M390.73,302.57c0,3,.8,5.48,1.8,5.48H517.9c1,0,1.8-2.5,1.8-5.48h0c0-3-.81-5.49-1.8-5.49H392.53c-1,0-1.8,2.5-1.8,5.49Z"/><path class="cls-205" d="M175.08,291.6H288.64c2.47,0,3.59,3,3.59,5.48v1.1H170.5v-1.1C170.5,294.61,172.61,291.6,175.08,291.6Z"/><path class="cls-206" d="M142.66,177l14.56,99.75a7.1,7.1,0,0,0,6.84,5.9h109a5,5,0,0,0,5.17-6.06L259.15,174.2a7.14,7.14,0,0,0-7.08-5.49l-104.48,2.68A4.89,4.89,0,0,0,142.66,177Z"/><path class="cls-207" d="M249.44,170.59l20.13,109.77a3.48,3.48,0,0,0,3.27,2.49c3.48,0,6.06-2.74,5.43-6.11L259.16,174.23a7.16,7.16,0,0,0-7.09-5.52l-1.84,0A1.85,1.85,0,0,0,249.44,170.59Z"/><path class="cls-208" d="M160.41,242.31a.63.63,0,0,0,.6-.79l-10.41-59.1c-.47-2.68,1.65-4.4,4-4.52l11.08-.57a.62.62,0,0,0,.58-.77.85.85,0,0,0-.85-.69l-11.07.57c-3.45.17-5.71,2.83-5.15,6.05l10.39,59.08A.88.88,0,0,0,160.41,242.31Z"/><path class="cls-209" d="M241.3,273.93l15.34,0c3.14,0,5-2.82,4.34-6.52l-4.13-22.8a1,1,0,0,0-.91-.77.64.64,0,0,0-.63.79l4.12,22.78c.51,2.8-.82,4.91-3.08,4.92l-15.33,0a.64.64,0,0,0-.63.79A1,1,0,0,0,241.3,273.93Z"/><path class="cls-210" d="M172.69,298.54v1.32l27.13-.58h38.35c.93,0,1.68-.41,1.68-1.33h0a6.06,6.06,0,0,0-6.14-6.35H179.57a11.29,11.29,0,0,0-1.8.27A6.92,6.92,0,0,0,172.69,298.54Z"/><path class="cls-211" d="M166.24,298.44a6.48,6.48,0,0,1,6.54-6.47l5.47,0,21.6.1,27.07.16a6.25,6.25,0,0,1,6.5,6.21c0,.71-.58.82-1.29.82h-64.6c-.35,0-.68.33-.92.09s-.38-.34-.38-.69Z"/><path class="cls-212" d="M217.88,219.22c2.47,0,4.16,2.35,4.16,4.82V291.6H187V219.22Z"/><path class="cls-213" d="M187.25,219.22h25.3c2.47,0,4,2.35,4,4.82V291.6h-34V224A5,5,0,0,1,187.25,219.22Z"/><path class="cls-214" d="M338.18,298.18H308.85s6.66-14.31,18.85-13.61S338.18,298.18,338.18,298.18Z"/><g class="cls-215"><path class="cls-2" d="M227.61,403.12l-2.13-18.79h0c-.46-6.47-5.85-12-12.44-12-3.95,0-7.47-.76-9.76,4.25H191.84c-2.28-5-5.8-4.25-9.76-4.25a12.68,12.68,0,0,0-12.44,11.8v.11l-2.13,18.85a5,5,0,0,0,3,5.19l2.11.92a5,5,0,0,0,5.7-1.28l10.08-11.28h18.3l10.08,11.28a5,5,0,0,0,5.7,1.28l2.11-.9A5,5,0,0,0,227.61,403.12Z"/><g class="cls-216"><polygon class="cls-2" points="227.54 373.98 225.8 372.76 227.54 372.76 227.54 373.98"/><polygon class="cls-2" points="228.09 375.34 223.43 371.55 225.8 371.55 228.09 373.98 228.09 375.34"/><polygon class="cls-2" points="228.09 376.7 221.07 371.55 223.43 371.55 228.09 375.34 228.09 376.7"/><polygon class="cls-2" points="228.09 378.07 218.7 371.55 221.07 371.55 228.09 376.7 228.09 378.07"/><polygon class="cls-2" points="228.09 379.43 216.34 371.55 218.7 371.55 228.09 378.07 228.09 379.43"/><polygon class="cls-2" points="228.09 380.8 213.97 371.55 216.34 371.55 228.09 379.43 228.09 380.8"/><polygon class="cls-2" points="228.09 382.16 211.61 371.55 213.97 371.55 228.09 380.8 228.09 382.16"/><polygon class="cls-2" points="228.09 383.53 209.24 371.55 211.61 371.55 228.09 382.16 228.09 383.53"/><polygon class="cls-2" points="228.09 384.89 206.88 371.55 209.24 371.55 228.09 383.53 228.09 384.89"/><polygon class="cls-2" points="228.09 386.25 204.51 371.55 206.88 371.55 228.09 384.89 228.09 386.25"/><polygon class="cls-2" points="228.09 387.62 202.15 371.55 204.51 371.55 228.09 386.25 228.09 387.62"/><polygon class="cls-2" points="228.09 388.98 199.79 371.55 202.15 371.55 228.09 387.62 228.09 388.98"/><polygon class="cls-2" points="228.09 390.35 197.42 371.55 199.79 371.55 228.09 388.98 228.09 390.35"/><polygon class="cls-2" points="228.09 391.71 195.06 371.55 197.42 371.55 228.09 390.35 228.09 391.71"/><polygon class="cls-2" points="228.09 393.08 192.69 371.55 195.06 371.55 228.09 391.71 228.09 393.08"/><polygon class="cls-2" points="228.09 394.44 190.33 371.55 192.69 371.55 228.09 393.08 228.09 394.44"/><polygon class="cls-2" points="228.09 395.8 187.96 371.55 190.33 371.55 228.09 394.44 228.09 395.8"/><polygon class="cls-2" points="228.09 397.17 185.6 371.55 187.96 371.55 228.09 395.8 228.09 397.17"/><polygon class="cls-2" points="228.09 398.53 183.23 371.55 185.6 371.55 228.09 397.17 228.09 398.53"/><polygon class="cls-2" points="228.09 399.9 180.87 371.55 183.23 371.55 228.09 398.53 228.09 399.9"/><polygon class="cls-2" points="228.09 401.26 178.5 371.55 180.87 371.55 228.09 399.9 228.09 401.26"/><polygon class="cls-2" points="228.09 402.63 176.14 371.55 178.5 371.55 228.09 401.26 228.09 402.63"/><polygon class="cls-2" points="228.09 403.99 173.78 371.55 176.14 371.55 228.09 402.63 228.09 403.99"/><polygon class="cls-2" points="228.09 405.35 171.94 372.41 171.96 371.55 173.78 371.55 228.09 403.99 228.09 405.35"/><polygon class="cls-2" points="228.09 406.72 171.35 374.05 172 373.03 228.09 405.35 228.09 406.72"/><polygon class="cls-2" points="228.09 407.21 227.59 407.86 170.7 375.07 171.38 374.05 228.09 406.72 228.09 407.21"/><rect class="cls-2" x="198.17" y="359.17" width="1.18" height="65.62" transform="translate(-240.09 368.25) rotate(-60.02)"/><rect class="cls-2" x="197.58" y="360.2" width="1.18" height="65.62" transform="translate(-241.27 368.27) rotate(-60.02)"/><polygon class="cls-2" points="226.29 409.7 226.2 409.66 224.22 409.66 168.87 377.94 169.46 376.91 226.29 409.7"/><polygon class="cls-2" points="221.86 409.66 168.28 378.96 168.87 377.83 224.22 409.66 221.86 409.66"/><polygon class="cls-2" points="219.49 409.66 167.69 379.98 168.28 378.85 221.86 409.66 219.49 409.66"/><polygon class="cls-2" points="217.13 409.66 166.91 381.31 166.91 380.92 167.51 379.98 219.49 409.66 217.13 409.66"/><polygon class="cls-2" points="214.76 409.66 166.91 382.68 166.91 381.31 217.13 409.66 214.76 409.66"/><polygon class="cls-2" points="212.4 409.66 166.91 384.04 166.91 382.68 214.76 409.66 212.4 409.66"/><polygon class="cls-2" points="210.03 409.66 166.91 385.4 166.91 384.04 212.4 409.66 210.03 409.66"/><polygon class="cls-2" points="207.67 409.66 166.91 386.77 166.91 385.4 210.03 409.66 207.67 409.66"/><polygon class="cls-2" points="205.3 409.66 166.91 388.13 166.91 386.77 207.67 409.66 205.3 409.66"/><polygon class="cls-2" points="202.94 409.66 166.91 389.5 166.91 388.13 205.3 409.66 202.94 409.66"/><polygon class="cls-2" points="200.57 409.66 166.91 390.86 166.91 389.5 202.94 409.66 200.57 409.66"/><polygon class="cls-2" points="198.21 409.66 166.91 392.23 166.91 390.86 200.57 409.66 198.21 409.66"/><polygon class="cls-2" points="195.84 409.66 166.91 393.59 166.91 392.23 198.21 409.66 195.84 409.66"/><polygon class="cls-2" points="193.48 409.66 166.91 394.95 166.91 393.59 195.84 409.66 193.48 409.66"/><polygon class="cls-2" points="191.12 409.66 166.91 396.32 166.91 394.95 193.48 409.66 191.12 409.66"/><polygon class="cls-2" points="188.75 409.66 166.91 397.68 166.91 396.32 191.12 409.66 188.75 409.66"/><polygon class="cls-2" points="186.39 409.66 166.91 399.05 166.91 397.68 188.75 409.66 186.39 409.66"/><polygon class="cls-2" points="184.02 409.66 166.91 400.41 166.91 399.05 186.39 409.66 184.02 409.66"/><polygon class="cls-2" points="181.66 409.66 166.91 401.77 166.91 400.41 184.02 409.66 181.66 409.66"/><polygon class="cls-2" points="179.29 409.66 166.91 403.14 166.91 401.77 181.66 409.66 179.29 409.66"/><polygon class="cls-2" points="176.93 409.66 166.91 404.5 166.91 403.14 179.29 409.66 176.93 409.66"/><polygon class="cls-2" points="174.56 409.66 166.91 405.87 166.91 404.5 176.93 409.66 174.56 409.66"/><polygon class="cls-2" points="172.2 409.66 166.91 407.23 166.91 405.87 174.56 409.66 172.2 409.66"/><polygon class="cls-2" points="169.84 409.66 166.91 408.6 166.91 407.23 172.2 409.66 169.84 409.66"/><polygon class="cls-2" points="167.47 408.66 166.91 409.96 166.91 408.6 169.84 408.66 167.47 408.66"/><polygon class="cls-2" points="167.26 409.96 167.47 410.08 167.26 410.08 167.26 409.96"/></g><path class="cls-2" d="M197.56,433.06a41.88,41.88,0,1,1,41.87-41.88A41.93,41.93,0,0,1,197.56,433.06Zm0-79a37.17,37.17,0,1,0,37.16,37.16A37.21,37.21,0,0,0,197.56,354Z"/></g><g class="cls-215"><path class="cls-2" d="M310.46,435.3h-.28c-2.31,0-48.07-27.09-48.07-66.95v-.75l.52-.56c14.28-15.87,36.66-20.36,44.8-21.55v-.35h2.29l.64,0,.67,0,2.21-.12v.42c9.3,1,30,5.14,44.8,21.59l.52.56v.75c0,17.3-8,34-23,48.9-11.07,11-23.91,18.05-25.26,18.05Zm-44-66.19c.54,35.2,38.21,59.06,44,62.5,5.86-3.24,43.42-25.57,43.93-62.5-15.42-16.63-38.9-19.52-43.49-19.94l-.62-.05-.29.05C303.42,349.91,281,353.53,266.49,369.11Z"/><path class="cls-2" d="M340.31,369.86a.58.58,0,0,0-1.11-.22l-5.57,11.13a1.74,1.74,0,0,1-1.49,1l-7.51-.59s6.32,5.36,7.6,8.84h4.43c1.31,0,2.56.35,3.46-.6a3.82,3.82,0,0,0,1.27-3.1Z"/><path class="cls-2" d="M280.61,369.86a.59.59,0,0,1,1.12-.22l5.56,11.13a1.76,1.76,0,0,0,1.49,1l7.52-.59S290,386.5,288.69,390h-4.43c-1.31,0-2.56.35-3.45-.6a3.8,3.8,0,0,1-1.28-3.1Z"/><path class="cls-2" d="M331.33,395.79a21.52,21.52,0,0,0-41.25,0Z"/><path class="cls-2" d="M289.42,398.12a6.13,6.13,0,0,0-.24,2.32h43.05a6.13,6.13,0,0,0-.24-2.32Z"/></g><path class="cls-217" d="M404.66,34.49s25.08-8.84,23.51,8.85-37.9,33.44-37.9,33.44l-.5,4.74s43.07-12,46.07-35.72-19.29-26-31.37-20C402.3,33.79,404.66,34.49,404.66,34.49Z"/><path class="cls-218" d="M337.68,39s-27.45-6.29-24,11.66,43.82,30,43.82,30l1,4.81S311.21,78,305.7,54s17.95-28.74,31.4-24C340.2,38,337.68,39,337.68,39Z"/><path class="cls-219" d="M394.3,75c5.06-10.47,10.33-39.09,12.31-50.59a4.31,4.31,0,0,0-4.11-5l-62.82-1.95a4.31,4.31,0,0,0-4.44,4.39c.32,14.79,3.23,61,26.8,67.61,5.83,17.39,1.46,36.52-2.46,40.83l-3.92,4.31,32.51,1.5s-23-15.52-8.76-44C379.41,92.12,387.89,88.27,394.3,75Z"/><path class="cls-220" d="M350.47,134.06c3.38-.54,42.87,1.39,42.87,1.39s7.76,3.47.36,5.5c-9,.4-46.33-1.61-46.33-1.61S343.82,135.14,350.47,134.06Z"/><path class="cls-221" d="M340.71,21.33s-2.43,54.11,21.79,63.42c0,0-19-15.25-18-63Z"/><path class="cls-222" d="M74.53,223.69s28.81,36.89-4.06,74.41L58.11,297s23.79-38.2,13.19-68.66l-17.5,1.28-9.69-6.31Z"/><path class="cls-223" d="M159.51,140.75,22.69,133.68c-2.68-.14-4.94,1.48-5,3.6l-3.09,82.85c-.08,2.13,2.07,3.94,4.78,4,24.77.52,134.75,2.85,139.59,3.23s5.14-66.28,5.16-82.73C164.11,142.59,162.08,140.88,159.51,140.75Z"/><path class="cls-2" d="M156.39,224.33c-18-.6-117.31-2.7-137-3.11h0a1,1,0,0,1-1-.93l3.09-82.85a.85.85,0,0,1,.36-.66,1.11,1.11,0,0,1,.7-.2l136.81,7.07a1,1,0,0,1,1,.9c0,40.68-1.4,71.87-3.46,79.44l-.1.35Zm-134-86.86-3.1,82.8.08,0h0c19.59.41,117.68,2.48,136.67,3.1,2-8.08,3.3-38.85,3.35-78.81a.14.14,0,0,0-.11,0L22.48,137.49h0S22.39,137.49,22.38,137.47Z"/><path class="cls-2" d="M111.57,191.46,110,177.34h0c-.35-5.91-4.32-9-9.19-9-2.92,0-5.51.1-7.2,3.05H85.17c-1.69-3-4.29-2.8-7.21-2.8a9.5,9.5,0,0,0-9.18,8.88v.16l-1.57,14a3.73,3.73,0,0,0,2.21,3.85l1.56.69a3.85,3.85,0,0,0,4.21-1.3l7.44-8.67H96.14l7.45,8.68a3.75,3.75,0,0,0,4.2,1.12l1.56-.69A3.75,3.75,0,0,0,111.57,191.46Z"/><g class="cls-224"><polygon class="cls-2" points="111.52 170.19 110.23 169.3 111.52 169.3 111.52 170.19"/><polygon class="cls-2" points="111.2 171.2 108.49 169.45 110.23 169.45 111.2 170.19 111.2 171.2"/><polygon class="cls-2" points="111.91 172.21 106.74 168.48 108.49 168.48 111.91 171.2 111.91 172.21"/><polygon class="cls-2" points="111.91 173.22 105 168.48 106.74 168.48 111.91 172.21 111.91 173.22"/><polygon class="cls-2" points="111.91 174.22 103.25 168.48 105 168.48 111.91 173.22 111.91 174.22"/><polygon class="cls-2" points="111.91 175.23 101.51 168.48 103.25 168.48 111.91 174.22 111.91 175.23"/><polygon class="cls-2" points="111.91 176.24 99.76 168.48 101.51 168.48 111.91 175.23 111.91 176.24"/><polygon class="cls-2" points="111.91 177.25 98.02 168.48 99.76 168.48 111.91 176.24 111.91 177.25"/><polygon class="cls-2" points="111.91 178.25 96.27 168.48 98.02 168.48 111.91 177.25 111.91 178.25"/><polygon class="cls-2" points="111.91 179.26 94.52 168.48 96.27 168.48 111.91 178.25 111.91 179.26"/><polygon class="cls-2" points="111.91 180.27 92.78 168.48 94.52 168.48 111.91 179.26 111.91 180.27"/><polygon class="cls-2" points="111.91 181.27 91.03 168.48 92.78 168.48 111.91 180.27 111.91 181.27"/><polygon class="cls-2" points="111.91 182.28 89.29 168.48 91.03 168.48 111.91 181.27 111.91 182.28"/><polygon class="cls-2" points="111.91 183.29 87.54 168.48 89.29 168.48 111.91 182.28 111.91 183.29"/><polygon class="cls-2" points="111.91 184.29 85.8 168.48 87.54 168.48 111.91 183.29 111.91 184.29"/><polygon class="cls-2" points="111.91 185.3 84.05 168.48 85.8 168.48 111.91 184.29 111.91 185.3"/><polygon class="cls-2" points="111.91 186.31 82.3 168.48 84.05 168.48 111.91 185.3 111.91 186.31"/><polygon class="cls-2" points="111.91 187.32 80.56 168.48 82.3 168.48 111.91 186.31 111.91 187.32"/><polygon class="cls-2" points="111.91 188.32 78.81 168.48 80.56 168.48 111.91 187.32 111.91 188.32"/><polygon class="cls-2" points="111.91 189.33 77.07 168.48 78.81 168.48 111.91 188.32 111.91 189.33"/><polygon class="cls-2" points="111.91 190.34 75.32 168.48 77.07 168.48 111.91 189.33 111.91 190.34"/><polygon class="cls-2" points="111.91 191.34 73.58 168.48 75.32 168.48 111.91 190.34 111.91 191.34"/><polygon class="cls-2" points="111.91 192.35 71.83 168.48 73.58 168.48 111.91 191.34 111.91 192.35"/><polygon class="cls-2" points="111.91 193.36 70.47 169.07 70.49 168.48 71.83 168.48 111.91 192.35 111.91 193.36"/><polygon class="cls-2" points="111.91 194.37 70.03 170.25 70.5 169.49 111.91 193.36 111.91 194.37"/><polygon class="cls-2" points="111.91 194.73 111.55 195.21 69.55 171 70.05 170.25 111.91 194.37 111.91 194.73"/><rect class="cls-2" x="89.84" y="159.26" width="0.87" height="48.44" transform="translate(-113.77 170) rotate(-60.02)"/><rect class="cls-2" x="89.4" y="160.02" width="0.87" height="48.44" transform="translate(-114.64 169.98) rotate(-60.02)"/><polygon class="cls-2" points="110.6 196.56 110.53 196.53 109.07 196.53 68.21 173.11 68.64 172.36 110.6 196.56"/><polygon class="cls-2" points="107.33 196.53 67.77 173.87 68.21 173.03 109.07 196.53 107.33 196.53"/><polygon class="cls-2" points="105.58 196.53 67.33 174.62 67.77 173.79 107.33 196.53 105.58 196.53"/><polygon class="cls-2" points="103.83 196.53 66.15 175.61 66.15 175.32 66.9 174.62 105.58 196.53 103.83 196.53"/><polygon class="cls-2" points="102.09 196.53 66.15 176.62 66.15 175.61 103.83 196.53 102.09 196.53"/><polygon class="cls-2" points="100.34 196.53 66.15 177.62 66.15 176.62 102.09 196.53 100.34 196.53"/><polygon class="cls-2" points="98.6 196.53 66.15 178.63 66.15 177.62 100.34 196.53 98.6 196.53"/><polygon class="cls-2" points="96.85 196.53 66.15 179.64 66.15 178.63 98.6 196.53 96.85 196.53"/><polygon class="cls-2" points="95.11 196.53 66.15 180.65 66.15 179.64 96.85 196.53 95.11 196.53"/><polygon class="cls-2" points="93.36 196.53 66.15 181.65 66.15 180.65 95.11 196.53 93.36 196.53"/><polygon class="cls-2" points="91.61 196.53 66.15 182.66 66.15 181.65 93.36 196.53 91.61 196.53"/><polygon class="cls-2" points="89.87 196.53 66.15 183.67 66.15 182.66 91.61 196.53 89.87 196.53"/><polygon class="cls-2" points="88.12 196.53 66.15 184.67 66.15 183.67 89.87 196.53 88.12 196.53"/><polygon class="cls-2" points="86.38 196.53 66.15 185.68 66.15 184.67 88.12 196.53 86.38 196.53"/><polygon class="cls-2" points="84.63 196.53 66.15 186.69 66.15 185.68 86.38 196.53 84.63 196.53"/><polygon class="cls-2" points="82.89 196.53 66.15 187.69 66.15 186.69 84.63 196.53 82.89 196.53"/><polygon class="cls-2" points="81.14 196.53 66.15 188.7 66.15 187.69 82.89 196.53 81.14 196.53"/><polygon class="cls-2" points="79.39 196.53 66.15 189.71 66.15 188.7 81.14 196.53 79.39 196.53"/><polygon class="cls-2" points="77.65 196.53 66.15 190.72 66.15 189.71 79.39 196.53 77.65 196.53"/><polygon class="cls-2" points="75.9 196.53 66.15 191.72 66.15 190.72 77.65 196.53 75.9 196.53"/><polygon class="cls-2" points="74.16 196.53 66.15 192.73 66.15 191.72 75.9 196.53 74.16 196.53"/><polygon class="cls-2" points="72.41 196.53 66.15 193.74 66.15 192.73 74.16 196.53 72.41 196.53"/><polygon class="cls-2" points="70.67 196.53 66.15 194.75 66.15 193.74 72.41 196.53 70.67 196.53"/><polygon class="cls-2" points="68.92 196.53 66.15 195.75 66.15 194.75 70.67 196.53 68.92 196.53"/><polygon class="cls-2" points="67.17 196.28 66.75 196.76 66.75 195.75 68.92 196.28 67.17 196.28"/><polygon class="cls-2" points="67.02 196.76 67.17 196.85 67.02 196.85 67.02 196.76"/></g><path class="cls-2" d="M89.39,213.81A30.92,30.92,0,1,1,120.3,182.9,31,31,0,0,1,89.39,213.81Zm0-58.35a27.44,27.44,0,1,0,27.44,27.44A27.47,27.47,0,0,0,89.39,155.46Z"/><path class="cls-225" d="M58.75,404.31s-23.35,50.88-35.6,71.95c0,0-2.43,13.27,0,17.44l2.08.92-9.68-.29s-.86-17.84-.19-18.84a2.49,2.49,0,0,1,2-.93s4.14-32.87,16.16-39.88l11.65-40.11Z"/><path class="cls-226" d="M29.36,497.11c0,.24-7.56.13-11.67.06a3.29,3.29,0,0,1-3.14-2.58l-3.1-16.32a2.94,2.94,0,0,1,2.23-3.41l1.73-.39s2.47,3.39,1.69,6.58-1.47,11.47.5,12.43,7.63,1.14,7.63,1.14S29.23,495,29.36,497.11Z"/><path class="cls-227" d="M80.87,497.41a.86.86,0,0,1-.43,1.6c-6.88-.07-22.3-.29-23.67-.86-1.77-.74.65-7.09,3.19-9.24l14,4.57Z"/><path class="cls-228" d="M85.23,401.06s-15.09,73-19.36,87.22L76,494.62s-5.06-.86-8.81-1.14-7.2-4.57-7.2-4.57L61.17,487S65,414.39,64,406.15Z"/><path class="cls-229" d="M122.68,230.83s2.08,38-32.49,57.36l8.33,19s31.29-18.93,30.13-70.55a6,6,0,0,1,1.47-4l6.65-7.72a11.93,11.93,0,0,0,2.54-10.69l-.87-3.5a1.82,1.82,0,0,0-2.68-1.13l-.69.4a12.16,12.16,0,0,0-5,5.58l-3.27,7.3a7,7,0,0,1-7,4.12l-2-.17Z"/><path class="cls-230" d="M91.4,285.35C85.61,287,66,292.11,53.79,291.9l7.51,42.37-.59,6.91,24.48-.11s6.89-16,12.33-24c1.57-2.31.4-5.06-.49-7.7l1.22-.82a3.3,3.3,0,0,0,1.32-3.8l-6-18.24A1.82,1.82,0,0,0,91.4,285.35Z"/><path class="cls-231" d="M87.15,337.46l-.48,4.18s6.92,20.72-3.46,69.12c0,0-22.48,6.36-40.95-8.87,0,0,5.21-45.68,6.63-47.81,7.09-10.59,11.82-12.9,11.82-12.9l.21-4.57S80.68,340.18,87.15,337.46Z"/><path class="cls-232" d="M77.57,288.76c.08-.11-5.11-15.69-5.11-15.69l-7.45.68L62.1,291.42S73.77,293.77,77.57,288.76Z"/><path class="cls-233" d="M66.79,248.51c.5.31,15.91,6.67,12.6,22.67a3,3,0,0,1-1.71,2.14,26.09,26.09,0,0,1-13,2.15c-8.08-.82-13.37-14.91-13.14-19S61.87,245.44,66.79,248.51Z"/><path class="cls-234" d="M62.1,242.29c.41.05,8.91,3,4.69,9.17S61,261.25,63,264c1.82,2.47,5.84,1.06,5.49,6.19a2.89,2.89,0,0,0,1.22,2.6c3.8,2.56,13,10.47,3.88,21.73a2.87,2.87,0,0,0-.32,3.21c2.68,4.82,8.32,18.93-12.09,26.75C41,332.16,33.71,319,31.67,313.71a2.83,2.83,0,0,0-2.78-1.79c-2.22.11-5.36-.26-5.21-3.22A7.42,7.42,0,0,1,26.21,304a2.8,2.8,0,0,0-.54-4.42A5.53,5.53,0,0,1,23,296.15c-1.22-4.53,1.22-18.08,14.21-20.37a3.08,3.08,0,0,0,2.37-2.3v-.05a2.82,2.82,0,0,0-1-2.76c-2.08-1.52-4.74-4.58-2.58-9.49a10.65,10.65,0,0,1,8.32-6.3,2.83,2.83,0,0,0,2.32-3.38C45.64,247.17,46.44,240.23,62.1,242.29Z"/><path class="cls-235" d="M470.26,483.17s1.85,2.62,2.67,10.19a1.24,1.24,0,0,1-1.16,1.37l-13.45.68a.8.8,0,0,1-.81-1c.67-2.38,2.77-8.18,7.92-11.7Z"/><path class="cls-236" d="M472.08,479.05l-1.47,6.27a1.21,1.21,0,0,1-1.16.93,10.58,10.58,0,0,1-2.83-.35,2,2,0,0,1-1.4-2.13l.69-6.12Z"/><path class="cls-237" d="M439.54,483.63A18.83,18.83,0,0,1,442.4,493a2.38,2.38,0,0,1-2.31,2.41l-20.91.73a1,1,0,0,1-.63-1.8c3.85-2.91,11.45-8.37,17-10.61Z"/><path class="cls-238" d="M440.06,477l-.53,8a1.62,1.62,0,0,1-1.73,1.52,5.66,5.66,0,0,1-1.93-.51,1.86,1.86,0,0,1-1.08-1.77l.36-9.7Z"/><path class="cls-239" d="M481.67,371s5.06,5.58,5.44,11.65S472.54,485,472.54,485s-5.72.3-8.41-1.77c0,0,3.65-63.19,2.67-78,0,0-21,63.51-26.13,74.84,0,0-5.48.05-7.11-1.18,0,0,13.1-83.92,19.29-98.41Z"/><path class="cls-240" d="M467.27,403.43a.8.8,0,0,1-.3-.06.81.81,0,0,1-.47-1.05l3.42-8.88a.78.78,0,0,1,.4-.44l5.52-2.73a.82.82,0,0,1,.73,1.47l-5.24,2.58L468,402.9A.83.83,0,0,1,467.27,403.43Z"/><path class="cls-241" d="M432.59,308.82c23.85.7,29.47,6.29,29.47,6.29l-13.37,16.64s-23.17-3.07-38.36-17.77a40.78,40.78,0,0,0,7.78-9.2A31.56,31.56,0,0,0,432.59,308.82Z"/><path class="cls-242" d="M399.5,270a.73.73,0,0,1,1.41-.12l2.29,6.77a6.75,6.75,0,0,1,.08,4.05l-1.48,3.63a6.52,6.52,0,0,0,.74,5.29c2.38,3.78,7.57,10.77,15.57,15.2a40.78,40.78,0,0,1-7.78,9.2,41.08,41.08,0,0,1-12-21.3,3.17,3.17,0,0,1-1.88-3.39Z"/><path class="cls-243" d="M423.64,318.33c9.33-8,25.63-10.28,35-10.91a8.45,8.45,0,0,1,8.8,6.39c2.88,11.56,10.85,41.7,12.47,46.91,1.32,4.27,2.74,8.46,3.64,11.08a3,3,0,0,1-1.84,3.82c-8.13,2.85-22.5,5.49-28.31,6.5a1.94,1.94,0,0,1-2.26-2.14,6.16,6.16,0,0,0-.51-3.2L433.3,338.84c-14.95,13.24-26.74,13.27-35.32,9a67.08,67.08,0,0,0,4.53-13.63C416,333.47,423.64,318.33,423.64,318.33Z"/><path class="cls-244" d="M381,329.31l2.74-2.91c7.12,6.17,13.43,8.16,18.81,7.85A67.08,67.08,0,0,1,398,347.88C386.68,342.3,381,329.31,381,329.31Z"/><path class="cls-245" d="M382.64,329.56l-13.49-1-11.59-8.3c1.9-.91,11.68,2.49,11.68,2.49s10.67-.4,13.51-.09c2.36.27,1.64,3.62,1.33,4.75-.06.23-.11.37-.11.37Z"/><path class="cls-246" d="M447.87,289.53,453,307.62s-8.77,4.72-15.26,3.44L436,295.12Z"/><path class="cls-247" d="M395.25,260.76l-101.14-5.22c-2-.1-3.66,1.1-3.71,2.66l-2.29,61.25c-.06,1.57,1.54,2.91,3.54,2.95,18.31.38,99.6,2.1,103.18,2.38s3.81-49,3.82-61.15C398.65,262.12,397.15,260.86,395.25,260.76Z"/><path class="cls-2" d="M393,322.55c-13.35-.44-86.72-2-101.3-2.3h0a.72.72,0,0,1-.71-.69l2.29-61.24a.61.61,0,0,1,.27-.49.79.79,0,0,1,.51-.14l101.14,5.22a.7.7,0,0,1,.71.66c0,30.08-1,53.13-2.56,58.73l-.07.26Zm-99.07-64.21-2.29,61.21.06,0h0c14.48.3,87,1.83,101,2.29,1.47-6,2.44-28.72,2.47-58.26,0,0,0,0-.08,0L294,258.36h0S293.89,258.36,293.88,258.34Z"/><path class="cls-2" d="M343.84,314h-.26c-1.26,0-26.08-14.51-26.08-36.23v-.41l.49-.3c7.78-8.65,20.25-11.1,24.61-11.75v-.19h1l.25,0,.57,0,1.42-.07v.23c4.36.55,16,2.8,24.06,11.77l-.05.3v.41c0,9.43-4.29,18.42-12.44,26.52-6,6-12.83,9.71-13.57,9.71Zm-24-35.82c.29,19.18,20.82,32.19,24,34.06,3.2-1.77,23.66-13.94,23.94-34.06-8.41-9.06-21.2-10.63-23.7-10.86l-.34,0-.16,0C340,267.73,327.77,269.7,319.88,278.19Z"/><path class="cls-2" d="M360.11,278.61a.33.33,0,0,0-.26-.3.32.32,0,0,0-.35.17l-3,6.07a.92.92,0,0,1-.81.52l-4.09-.65s3.44,2.3,4.14,4.49h2.42c.71,0,1.39.52,1.88,0a1.74,1.74,0,0,0,.69-1.52Z"/><path class="cls-2" d="M327.57,278.61a.33.33,0,0,1,.26-.3.31.31,0,0,1,.35.17l3,6.07a.92.92,0,0,0,.81.52l4.09-.65s-3.44,2.3-4.14,4.49h-2.41c-.72,0-1.4.52-1.89,0a1.74,1.74,0,0,1-.69-1.52Z"/><path class="cls-2" d="M355.21,293.27c-1.44-6.55-5.92-8.38-11.24-8.38s-9.79,1.83-11.24,8.38Z"/><path class="cls-2" d="M332.38,293.27a5.09,5.09,0,0,0-.14,1.09H355.7a5.07,5.07,0,0,0-.13-1.09Z"/><path class="cls-248" d="M434.12,281s-6.78,12.75-5.91,17.9,9.26,4.78,16.6.6l5.12-13.77Z"/><path class="cls-249" d="M444.48,292.72a.52.52,0,0,1-.23-.77,13.81,13.81,0,0,0,1.89-4s1.21-.78-3.1-1.81-10.76-2.64-12.11-6.31,2.15-12.59,7.68-5.42a.52.52,0,0,0,.83,0c.91-1.18,3.29-3.63,6.6-2.14,3.1,1.39,3.44,3.65,3.4,4.8a.52.52,0,0,0,.62.53c1.57-.29,5.32-.55,7.08,3.3,1.44,3.18.5,5-.35,5.85a.52.52,0,0,0,.22.87c1,.32,2.36,1.19,2.23,3.6-.19,3.34-3.91,3-5,2.89a.51.51,0,0,0-.47.16c-.91,1-5,5.29-9.45,5.8a.52.52,0,0,1-.55-.7l1.92-5.58a.52.52,0,0,0-.29-.65Z"/><path class="cls-250" d="M443.71,293.52s4.82-3.31,5.17-.53-4.34,4-6.66,3Z"/><path class="cls-251" d="M532.49,234.59s5.91,2.88,7,6.18c.87,2.65,7.41,3,8,8.2a6,6,0,0,0,5,5.26c6.67,1,17,4.49,18.6,16.07,1.26,8.85-3.25,12.2-8,13.36a6.7,6.7,0,0,0-5.08,7.75c.67,3.36-.34,7.25-6.17,10.33-13.06,6.89-26.11-16.33-26.11-16.33l-2.68-40.56Z"/><path class="cls-252" d="M461.4,225s26.08,41.26,57.11,49.23c0,0-6,17.22-10.71,19.19,0,0-38.17-31.85-48-62.56Z"/><path class="cls-253" d="M586.2,488.91l.85,6.95a2.87,2.87,0,0,0,2.52,2.51,44,44,0,0,0,9.3.15,2.46,2.46,0,0,0,2.06-3.19c-.85-2.69-2.41-6.71-4.66-9.08h-7.71A2.37,2.37,0,0,0,586.2,488.91Z"/><path class="cls-254" d="M525.81,407.48l-1.3,7.66s4.35,44.14,5.13,61.8a13.81,13.81,0,0,1-2,7.87L520,497.11l19.26-11.36.39-2.35-3.16-4.34,4.13-49.45a15.08,15.08,0,0,0-1.72-8.39l-4-7.49Z"/><path class="cls-255" d="M518.75,498.9h6.14a3.71,3.71,0,0,0,2.94-1.44c1.92-2.49,5.88-7.35,7.78-7.48,2.56-.17,2.23,8.92,2.23,8.92h1.43l1.82-11.29a6.69,6.69,0,0,0-3.51-7h0s-.58,4.32-3.75,6.23-12.89,8.76-12.89,8.76a8.92,8.92,0,0,0-2.5.06A1.63,1.63,0,0,0,518.75,498.9Z"/><path class="cls-256" d="M552.19,411.12s25.53,48.43,29.59,59.49a105.49,105.49,0,0,1,5.53,21.16c.09,1.36,1.79,2.67,6.47,2.67,2.41,0,3.6-1,4.17-1.91a2.73,2.73,0,0,0,.11-2.64c-1.48-3-6.17-12.54-7.9-16.87-2.07-5.17-6.53-28.62-9-36.77s-5.21-17-15.85-25.13C565.33,411.12,558,404,552.19,411.12Z"/><path class="cls-257" d="M536.06,331.76c-6.59-27.91,10.1-43.69,10.1-43.69-10.53-10.11-29.71-14.71-29.71-14.71s-18.31,13.38-16.13,23.86c1.27,6.14,12.86,36.77,12.86,36.77S523.9,339.06,536.06,331.76Z"/><path class="cls-258" d="M550.66,345.58c-2.68-8.08-14.6-13.82-14.6-13.82-12.16,7.3-22.88,2.23-22.88,2.23s-2.4,9.19-.74,17.73,12.07,63.42,12.07,63.42c16.4,3.32,41.63-3.35,41.63-3.35C555.69,393.24,553.34,353.65,550.66,345.58Z"/><path class="cls-259" d="M528.41,254.92,533.77,279c.51,2.12-1.42,1.77-3.56,1.37-3.51-.66-8-2-9.54-4.75a2.67,2.67,0,0,1-.28-.91L518.09,258a3,3,0,0,1,1.76-3.15l4.44-2A3,3,0,0,1,528.41,254.92Z"/><path class="cls-260" d="M518.16,233s-5.7,3.86-8.15,13.69,1.53,13.35,5.61,13.13,10-1.47,15.12-8.52S525.63,228.28,518.16,233Z"/><path class="cls-261" d="M525.57,247.32s2.09-14.08-9.6-11.92l-2.36,2.46s-5.73-6.45.61-11.32,15.12-3.62,20,5.25,6.63,15.1,2.55,20.61-7.14.78-7.14.78,1.87-4.77.32-6.82-3.55,1.2-3.55,1.2Z"/><path class="cls-262" d="M527.17,248.53s1-7.25,4.73-5.17-1.33,6.76-3.35,8.36Z"/><path class="cls-263" d="M461.79,233.47c-.07.85,2.92,1.44,3.88-2.19-.26-1.57-.73-8.47-1.87-9.54-6.09-5.71-11.16-5-11.16-5-.56,2-1.39,3.73-1.48,6a7,7,0,0,0,1.6,4.68c1.08,1.3,2.53,3,3.84,4.26A6,6,0,0,0,461.79,233.47Z"/><path class="cls-264" d="M458.76,230.7l1-.44c-.28-.71-2.74-7-4-8.38a2,2,0,0,1-.66-1.27.84.84,0,0,1,.21-.48l4.3,2.44,1.93,3.18.9-.61-2.07-3.44-5.22-2.94-.27.24a2.22,2.22,0,0,0-.86,1.54,3,3,0,0,0,1,2.13C455.93,223.7,458,228.81,458.76,230.7Z"/><path class="cls-265" d="M546.16,288.07s29.64,60.86,40.38,66.18c0,0,10.9,1.14,17.57,3.16a1.74,1.74,0,0,1-.07,3.35c-4.65,1.27-12.34,2.33-19.4-1.5,0,0,3.79,5.68,1.58,7.89,0,0-5.05-6-7-7.89-1.66-1.67-32-34.77-44.78-54.73-1-1.61-.32-6.4.4-8.18C536.54,292.27,540.19,285.75,546.16,288.07Z"/><path class="cls-266" d="M456.75,145.26s9,4.69,23.79,0,29.55,9.43,29.55,9.43-35.32,1.39-42.17,12.2-11.17,7.93-11.17,7.93Z"/><rect class="cls-267" x="453.87" y="144.32" width="5.77" height="86.5" rx="2.52"/><path class="cls-268" d="M456.75,227.94a2.88,2.88,0,0,1-2.88,2.88h0a2.88,2.88,0,0,1-2.88-2.88V217.85a2.88,2.88,0,0,1,2.88-2.89h0a2.88,2.88,0,0,1,2.88,2.89Z"/><path class="cls-269" d="M463.31,221.4s-3.4-6.08-4.54-4.71-1.47,1.5-.77,3.6-.61,6.67,1.31,8.11S462.74,228.88,463.31,221.4Z"/></svg>